<!-- Generator: Adobe Illustrator 25.2.3, SVG Export Plug-In  --><svg xmlns="http://www.w3.org/2000/svg" xmlns:xlink="http://www.w3.org/1999/xlink" version="1.1" x="0px" y="0px" width="1131px" height="1131px" viewBox="0 0 1131 1131.1" style="overflow:visible;enable-background:new 0 0 1131 1131.1;fill:url(#CerosGradient_id1004b9f5f);" xml:space="preserve" aria-hidden="true">
<style type="text/css">
	.st0-6140e10a91257{fill:#B28338;}
</style>
<defs><linearGradient class="cerosgradient" data-cerosgradient="true" id="CerosGradient_id1004b9f5f" gradientUnits="userSpaceOnUse" x1="50%" y1="100%" x2="50%" y2="0%"><stop offset="0%" stop-color="#003A5D"/><stop offset="100%" stop-color="#003A5D"/></linearGradient><linearGradient/>
</defs>
<g>
	<path class="st0-6140e10a91257" d="M565.5,1131.1c-76.3,0-150.4-15-220.1-44.4c-67.3-28.5-127.8-69.3-179.8-121.2   C113.7,913.5,72.9,853,44.4,785.7C15,715.9,0,641.9,0,565.5c0-76.3,15-150.4,44.4-220.1c28.5-67.3,69.3-127.8,121.2-179.8   C217.6,113.7,278,72.9,345.4,44.4C415.1,15,489.2,0,565.5,0c76.3,0,150.4,15,220.1,44.4c67.3,28.5,127.8,69.3,179.8,121.2   c51.9,51.9,92.7,112.4,121.2,179.8c29.5,69.7,44.4,143.8,44.4,220.1c0,76.3-15,150.4-44.4,220.1c-28.5,67.3-69.3,127.8-121.2,179.8   c-51.9,51.9-112.4,92.7-179.8,121.2C715.9,1116.1,641.9,1131.1,565.5,1131.1z M565.5,22C492.1,22,421,36.4,354,64.7   c-64.7,27.4-122.8,66.6-172.8,116.5c-49.9,49.9-89.1,108-116.5,172.8C36.4,421,22,492.1,22,565.5c0,73.4,14.4,144.6,42.7,211.6   c27.4,64.7,66.6,122.8,116.5,172.8c49.9,49.9,108,89.1,172.8,116.5c67,28.3,138.2,42.7,211.6,42.7c73.4,0,144.6-14.4,211.6-42.7   c64.7-27.4,122.8-66.6,172.8-116.5c49.9-49.9,89.1-108,116.5-172.8c28.3-67,42.7-138.2,42.7-211.6c0-73.4-14.4-144.6-42.7-211.6   c-27.4-64.7-66.6-122.8-116.5-172.8c-49.9-49.9-108-89.1-172.8-116.5C710.1,36.4,638.9,22,565.5,22z" style="fill:url(#CerosGradient_id1004b9f5f);"/>
	<g>
		<g>
			<g>
				<path class="st0-6140e10a91257" d="M166.7,562.7c-3.2,0-6.6-0.2-10-0.7c-46.4-6.3-101.7-56.5-104-58.6c-2.7-2.4-4-6-3.5-9.6      c0.5-3.6,2.7-6.7,5.9-8.3c2.4-1.2,58.6-29.7,103.5-29.7c4.3,0,8.5,0.3,12.3,0.8c26.9,3.6,41.2,19.5,48.5,32.2      c7.5,13.1,9,25.3,9.1,26.6c0.2,1.8-0.1,3.6-0.7,5.2C227.2,522.3,210.8,562.7,166.7,562.7z M80.5,498      c18,14.4,51.7,38.4,79.2,42.2c2.4,0.3,4.7,0.5,7,0.5c24,0,35.9-18.7,39.5-25.6c-1.8-8.3-9.3-32.7-38.2-36.6      c-2.9-0.4-6.1-0.6-9.4-0.6C132,477.8,99.3,489.9,80.5,498z" style="fill:url(#CerosGradient_id1004b9f5f);"/>
			</g>
			<g>
				<path class="st0-6140e10a91257" d="M197.3,461.7c-8.7,0-17.5-1.8-26.2-5.5c-43.2-18.1-83.6-80.9-85.3-83.5c-1.9-3-2.3-6.8-0.9-10.2      c1.4-3.3,4.3-5.8,7.9-6.5c1.3-0.3,31.7-6.7,64.7-6.7c22.3,0,40.7,3,54.6,8.8c25.1,10.5,34.8,29.5,38.5,43.6      c3.9,14.6,2.2,26.7,1.9,28.1c-0.3,1.8-1,3.4-2,4.9C249.7,435.8,230.1,461.7,197.3,461.7z M114,374.7      c13.7,18.6,40,50.5,65.6,61.2c6,2.5,12,3.8,17.7,3.8c17.1,0,29.3-11.3,33.8-16.1c0.4-8.5-0.6-34-27.4-45.2      c-11.2-4.7-26.8-7.1-46.1-7.1C141.2,371.3,125.3,373.1,114,374.7z" style="fill:url(#CerosGradient_id1004b9f5f);"/>
			</g>
			<g>
				<path class="st0-6140e10a91257" d="M252.2,372c-14.3,0-27.7-4.8-39.9-14.2c-37-28.6-59.8-99.7-60.8-102.8c-1.1-3.4-0.4-7.2,1.8-10      c2.2-2.9,5.7-4.4,9.3-4.3c3.2,0.2,77.7,4.3,114.8,32.9c21.5,16.6,25.9,37.5,25.9,52.1c-0.1,15.1-4.8,26.4-5.4,27.6      c-0.7,1.6-1.8,3.1-3.2,4.2C293.9,358.1,276.1,372,252.2,372z M178.2,264.3c8.4,21.5,25.5,59.1,47.5,76.1      c8.2,6.4,17.1,9.6,26.4,9.6c12.1,0,22.2-5.4,26.5-8.1c2.6-8.1,8.2-33-14.8-50.8c-12.8-9.9-34.3-17.9-62.4-23.2      C192.9,266.2,184.8,265.1,178.2,264.3z" style="fill:url(#CerosGradient_id1004b9f5f);"/>
			</g>
			<g>
				<path class="st0-6140e10a91257" d="M329.7,299.6c-14.7,0-35.6-4.6-52.1-26.2c-28.4-37.2-32-111.8-32.1-115c-0.2-3.6,1.5-7.1,4.3-9.2      c2.9-2.2,6.6-2.8,10.1-1.7c3,1,74,24.3,102.3,61.5c16.5,21.6,15.3,42.9,11.5,57c-4,14.6-11.5,24.2-12.3,25.3      c-1.1,1.4-2.6,2.5-4.2,3.2C355.9,295,344.8,299.6,329.7,299.6z M268.9,174.2c2.6,22.9,9.4,63.7,26.2,85.8      c8.9,11.7,20.5,17.6,34.6,17.6c7,0,12.9-1.5,16.1-2.5c4.6-7.1,16.5-29.7-1.1-52.9c-9.8-12.9-28.7-26.3-54.5-38.7      C282.4,179.8,275,176.7,268.9,174.2z" style="fill:url(#CerosGradient_id1004b9f5f);"/>
			</g>
			<g>
				<path class="st0-6140e10a91257" d="M425.9,250.2c-13.9,0-48-4-63.3-41.4c-17.8-43.3-2-116.3-1.3-119.4c0.8-3.5,3.2-6.4,6.6-7.8      c3.3-1.4,7.1-1,10.2,0.9c2.7,1.7,65.2,42.6,82.9,85.9c10.3,25.1,3.7,45.4-3.6,58c-7.6,13.1-17.4,20.4-18.5,21.2      c-1.4,1-3.1,1.7-4.9,2C433.6,249.7,430.5,250.2,425.9,250.2z M379.8,110.7c-3.5,22.8-7.5,64,3.1,89.7      c9.9,24.1,31.2,27.8,43,27.8c0.8,0,1.5,0,2.1,0c6.3-5.7,23.6-24.5,12.6-51.4c-6.1-15-20.8-32.7-42.4-51.3      C391.5,119.7,385.1,114.7,379.8,110.7z" style="fill:url(#CerosGradient_id1004b9f5f);"/>
			</g>
			<g>
				<path class="st0-6140e10a91257" d="M520.9,226.4c-0.4,0-0.8,0-1.3-0.1c-1.3-0.2-13.5-1.7-26.5-9.3c-12.6-7.3-28.4-21.7-31.8-48.7      c-5.9-46.4,28.2-112.8,29.7-115.6c1.7-3.2,4.8-5.4,8.4-5.8c3.6-0.5,7.2,0.9,9.6,3.5c2.1,2.3,51.9,58,57.9,104.4      c3.5,26.9-8.2,44.8-18.5,55.1c-10.8,10.7-22.1,15.2-23.3,15.7C523.6,226.1,522.3,226.4,520.9,226.4z M503.3,78.1      c-9.2,21.2-23.7,59.8-20.2,87.4c3.7,28.9,28,36.6,36.3,38.5c7.6-3.9,29.2-17.5,25.5-46.4C541.4,130,517.6,96.2,503.3,78.1z" style="fill:url(#CerosGradient_id1004b9f5f);"/>
			</g>
			<g>
				<path class="st0-6140e10a91257" d="M612.6,226.7c-1.4,0-2.7-0.3-4-0.8c-1.3-0.5-12.5-5.1-23.2-15.9c-10.3-10.4-21.8-28.3-18.1-55.3      c6.3-46.4,56.5-101.7,58.6-104c2.4-2.7,6-4,9.6-3.5c3.6,0.5,6.7,2.7,8.3,5.9c1.4,2.8,35.1,69.5,28.9,115.8      c-3.6,26.9-19.5,41.2-32.2,48.5c-13.1,7.5-25.3,9-26.6,9.1C613.3,226.7,613,226.7,612.6,226.7z M631.1,78.5      c-14.4,18-38.4,51.7-42.2,79.2c-3.9,28.8,17.6,42.6,25.1,46.5c8.4-1.8,32.7-9.4,36.6-38.2C654.4,138.5,640.2,99.8,631.1,78.5z" style="fill:url(#CerosGradient_id1004b9f5f);"/>
			</g>
			<g>
				<path class="st0-6140e10a91257" d="M707.9,251.1c-4.9,0-8.2-0.5-8.6-0.5c-1.8-0.3-3.4-1-4.9-2c-1.1-0.8-10.8-8.2-18.3-21.4      c-7.3-12.7-13.7-33-3.2-58.1c18.1-43.2,80.9-83.6,83.5-85.3c3-1.9,6.8-2.3,10.2-0.9c3.3,1.4,5.8,4.3,6.5,7.9      c0.7,3.1,15.9,76.2-2.1,119.4C755.5,247.1,721.7,251.1,707.9,251.1z M705.4,229.1c0.7,0,1.5,0.1,2.5,0.1      c11.7,0,32.8-3.6,42.8-27.5c6.3-15,8.4-38,6.3-66.5c-0.7-8.7-1.6-16.6-2.5-23.1c-18.6,13.7-50.5,40-61.2,65.6      C682,204.4,699.1,223.3,705.4,229.1z" style="fill:url(#CerosGradient_id1004b9f5f);"/>
			</g>
			<g>
				<path class="st0-6140e10a91257" d="M803.6,301.3c-15.3,0-26.6-4.8-27.9-5.4c-1.6-0.7-3.1-1.8-4.2-3.2c-0.8-1.1-8.3-10.7-12.2-25.4      c-3.7-14.1-4.7-35.4,11.9-56.9c28.6-37,99.7-59.8,102.8-60.8c3.4-1.1,7.2-0.4,10,1.8c2.9,2.2,4.4,5.7,4.3,9.3      c-0.2,3.2-4.3,77.7-32.9,114.8C842.4,292.3,824.5,301.3,803.6,301.3z M787.3,276.7c3.3,1,9.3,2.6,16.4,2.6      c13.9,0,25.5-5.8,34.4-17.3c9.9-12.8,17.9-34.4,23.2-62.4c1.6-8.6,2.8-16.7,3.6-23.3c-21.5,8.4-59.1,25.5-76.1,47.5      c-8.9,11.6-11.6,24.3-8.1,37.8C782.5,268.5,785.4,273.8,787.3,276.7z" style="fill:url(#CerosGradient_id1004b9f5f);"/>
			</g>
			<g>
				<path class="st0-6140e10a91257" d="M880.7,374.2c-24.2,0-42-14.1-42.8-14.7c-1.4-1.1-2.5-2.6-3.2-4.2c-0.5-1.2-5.2-12.5-5.2-27.7      c0-14.6,4.6-35.4,26.2-51.9c37.2-28.4,111.8-32,115-32.1c3.6-0.2,7.1,1.5,9.2,4.3c2.2,2.9,2.8,6.6,1.7,10.1      c-1,3-24.3,74-61.5,102.3C908.1,369.5,894.8,374.2,880.7,374.2z M853.9,343.8c4.3,2.8,14.5,8.3,26.7,8.3c9.2,0,18-3.2,26.2-9.4      c12.9-9.8,26.3-28.7,38.7-54.5c3.8-7.8,6.9-15.2,9.3-21.3c-22.9,2.6-63.7,9.4-85.8,26.2C846,310.8,851.3,335.7,853.9,343.8z" style="fill:url(#CerosGradient_id1004b9f5f);"/>
			</g>
			<g>
				<path class="st0-6140e10a91257" d="M934.9,464.3c-33.1,0-52.6-26.3-53.5-27.4c-1-1.4-1.7-3.1-2-4.9c-0.2-1.3-1.8-13.4,2.1-28.1      c3.8-14.1,13.7-33,38.8-43.3c13.6-5.6,31.4-8.4,52.9-8.4c33.7,0,65.1,6.8,66.4,7.1c3.5,0.8,6.4,3.2,7.8,6.6      c1.4,3.3,1,7.1-0.9,10.2c-1.7,2.7-42.6,65.2-85.9,82.9C952.1,462.5,943.4,464.3,934.9,464.3z M901,426      c4.4,4.8,16.7,16.3,33.9,16.3c5.7,0,11.5-1.2,17.5-3.7c15-6.2,32.8-20.9,51.5-42.6c5.7-6.6,10.6-12.9,14.5-18.2      c-11.7-1.8-28.2-3.7-45.1-3.7c-18.6,0-33.7,2.3-44.6,6.8c-13.5,5.5-22.2,15.2-25.9,28.8C901,416.5,900.9,422.6,901,426z" style="fill:url(#CerosGradient_id1004b9f5f);"/>
			</g>
			<g>
				<path class="st0-6140e10a91257" d="M964.9,565.4c-44.5,0-60.7-40.7-61.4-42.5c-0.6-1.7-0.9-3.5-0.7-5.2c0.2-1.3,1.7-13.5,9.3-26.5      c7.3-12.6,21.7-28.4,48.7-31.8c3.7-0.5,7.6-0.7,11.6-0.7c45,0,101.6,29.1,104,30.4c3.2,1.7,5.4,4.8,5.8,8.4      c0.5,3.6-0.9,7.2-3.5,9.6c-2.3,2.1-58,51.9-104.4,57.9C971.1,565.2,968,565.4,964.9,565.4z M925.2,517.5      c3.6,7,15.4,25.9,39.7,25.9c2.2,0,4.4-0.1,6.7-0.4c16.1-2.1,37.1-11.7,60.8-27.8c7.2-4.9,13.6-9.7,18.7-13.8      c-18.9-8.3-52-20.8-78.6-20.8c-3.1,0-6.1,0.2-8.8,0.5c-14.5,1.9-25.4,8.9-32.5,21.1C927.6,508.4,925.9,514.3,925.2,517.5z" style="fill:url(#CerosGradient_id1004b9f5f);"/>
			</g>
			<g>
				<path class="st0-6140e10a91257" d="M972.4,671.4c-4.3,0-8.5-0.3-12.4-0.8c-26.9-3.6-41.2-19.5-48.5-32.2c-7.5-13.1-9-25.3-9.1-26.6      c-0.2-1.8,0.1-3.6,0.7-5.2c0.7-1.7,17.1-42.1,61.2-42.1c3.2,0,6.6,0.2,9.9,0.7c46.4,6.3,101.7,56.5,104,58.6      c2.7,2.4,4,6,3.5,9.6c-0.5,3.6-2.7,6.7-5.9,8.3C1073.6,642.9,1017.3,671.4,972.4,671.4z M924.8,612.2      c1.8,8.3,9.3,32.7,38.2,36.6c2.9,0.4,6.1,0.6,9.4,0.6c26.6,0,59.3-12.1,78.2-20.2c-18-14.4-51.7-38.4-79.2-42.2      c-2.4-0.3-4.7-0.5-7-0.5C940.3,586.5,928.4,605.3,924.8,612.2z" style="fill:url(#CerosGradient_id1004b9f5f);"/>
			</g>
			<g>
				<path class="st0-6140e10a91257" d="M158.6,668.5C158.6,668.5,158.6,668.5,158.6,668.5c-45,0-101.7-29.1-104-30.4c-3.2-1.7-5.4-4.8-5.8-8.4      c-0.5-3.6,0.9-7.2,3.5-9.6c2.3-2.1,58-51.9,104.4-57.9c3.2-0.4,6.4-0.6,9.5-0.6c44.4,0,60.7,40.7,61.4,42.5      c0.6,1.7,0.9,3.5,0.7,5.2c-0.2,1.3-1.7,13.4-9.3,26.5c-7.3,12.6-21.7,28.4-48.7,31.8C166.6,668.3,162.7,668.5,158.6,668.5z       M80,625.8c18.9,8.3,52,20.7,78.6,20.7c0,0,0,0,0,0c3.1,0,6.1-0.2,8.8-0.5c14.5-1.9,25.4-8.9,32.5-21.1c3.6-6.1,5.3-12,6-15.3      c-3.6-7-15.4-25.9-39.7-25.9c-2.2,0-4.4,0.1-6.7,0.4c-16.1,2.1-37.1,11.7-60.8,27.8C91.6,616.9,85.2,621.7,80,625.8z" style="fill:url(#CerosGradient_id1004b9f5f);"/>
			</g>
			<g>
				<path class="st0-6140e10a91257" d="M182.5,775.5C182.5,775.5,182.5,775.5,182.5,775.5c-33.7,0-65.1-6.8-66.4-7.1c-3.5-0.8-6.4-3.2-7.8-6.6      c-1.4-3.3-1-7.1,0.9-10.2c1.7-2.7,42.6-65.2,85.9-82.9c8.6-3.5,17.3-5.3,25.8-5.3c33.1,0,52.6,26.3,53.5,27.4      c1,1.4,1.7,3.1,2,4.9c0.2,1.3,1.8,13.4-2.1,28.1c-3.8,14.1-13.7,33-38.8,43.3C221.8,772.7,204,775.5,182.5,775.5z M137.4,749.9      c11.7,1.8,28.2,3.7,45.1,3.7c0,0,0,0,0,0c18.6,0,33.6-2.3,44.6-6.8c13.5-5.5,22.2-15.2,25.9-28.7c1.8-6.8,2-12.9,1.8-16.3      c-4.4-4.8-16.7-16.3-33.9-16.3c-5.7,0-11.5,1.2-17.5,3.7c-15,6.1-32.7,20.8-51.3,42.4C146.4,738.2,141.4,744.6,137.4,749.9z" style="fill:url(#CerosGradient_id1004b9f5f);"/>
			</g>
			<g>
				<path class="st0-6140e10a91257" d="M216,867.3c-3.4,0-6.7-1.6-8.7-4.3c-2.2-2.9-2.8-6.6-1.7-10.1c1-3,24.3-74,61.5-102.3      c12.1-9.2,25.4-13.9,39.5-13.9c24.2,0,42,14.1,42.8,14.7c1.4,1.1,2.5,2.6,3.2,4.2c0.5,1.2,5.2,12.5,5.2,27.7      c0,14.6-4.6,35.4-26.2,51.9c-37.2,28.4-111.8,32-115,32.1C216.3,867.3,216.1,867.3,216,867.3z M306.5,758.7      c-9.2,0-18,3.2-26.2,9.4c-12.9,9.8-26.2,28.5-38.6,54.2c-3.8,7.9-7,15.4-9.5,21.6c22.9-2.6,63.7-9.4,85.8-26.2      c23.1-17.6,17.7-42.5,15.1-50.7C328.9,764.2,318.7,758.7,306.5,758.7z" style="fill:url(#CerosGradient_id1004b9f5f);"/>
			</g>
			<g>
				<path class="st0-6140e10a91257" d="M952.5,778.3c-21.5,0-39.3-2.8-52.9-8.4c-25.1-10.3-35-29.3-38.8-43.3c-4-14.6-2.3-26.7-2.1-28.1      c0.3-1.8,0.9-3.4,2-4.9c0.8-1.1,20.4-27.4,53.5-27.4c8.5,0,17.2,1.8,25.8,5.3c43.3,17.8,84.2,80.3,85.9,82.9      c2,3,2.3,6.8,0.9,10.2c-1.4,3.3-4.3,5.8-7.8,6.6C1017.6,771.5,986.2,778.3,952.5,778.3z M880.1,704.5c-0.4,8.5,0.8,34,27.7,45      c11,4.5,26,6.8,44.6,6.8c16.9,0,33.4-1.9,45.1-3.7c-13.8-18.5-40.3-50.2-66-60.8c-5.9-2.4-11.8-3.7-17.5-3.7      C896.8,688.2,884.5,699.7,880.1,704.5z" style="fill:url(#CerosGradient_id1004b9f5f);"/>
			</g>
			<g>
				<path class="st0-6140e10a91257" d="M919,870c-0.2,0-0.3,0-0.5,0c-3.2-0.1-77.8-3.8-115-32.1c-21.6-16.5-26.2-37.3-26.2-51.9      c0-15.1,4.7-26.4,5.2-27.7c0.7-1.6,1.8-3.1,3.2-4.2c0.7-0.6,18.6-14.7,42.8-14.7c14.1,0,27.4,4.7,39.5,13.9      c35.7,27.2,58.6,93.6,61.3,101.6c0.5,1.3,0.8,2.6,0.8,4.1C930,865.1,925.1,870,919,870C919,870,919,870,919,870z M801.7,769.7      c-2.6,8.1-8,33,15.1,50.7c12.9,9.8,34.6,17.7,62.8,22.8c8.6,1.6,16.5,2.6,23,3.4c-8.6-21.4-25.9-58.9-48-75.8      c-8.2-6.2-17-9.4-26.2-9.4C816.2,761.4,806,767,801.7,769.7z" style="fill:url(#CerosGradient_id1004b9f5f);"/>
			</g>
		</g>
		<g>
			<path class="st0-6140e10a91257" d="M328.5,608.8c-43.4,0-100.3-39.2-102.7-40.8c-3-2.1-4.7-5.4-4.7-9c0-3.6,1.8-7,4.7-9     c2.4-1.7,59.3-40.8,102.7-40.8c38.8,0,56.7,30.9,60.7,47.2c0.4,1.7,0.4,3.5,0,5.3C385.2,577.9,367.3,608.8,328.5,608.8z      M252.6,558.9c18.4,10.9,51,27.9,75.9,27.9c25.9,0,35.7-20.4,38.5-27.9c-2.7-7.4-12.5-27.9-38.5-27.9     C305,531.1,272.8,546.9,252.6,558.9z" style="fill:url(#CerosGradient_id1004b9f5f);"/>
			<path class="st0-6140e10a91257" d="M322.8,724.8c-13.1,0-22-0.7-22.4-0.8c-3.6-0.3-6.8-2.3-8.6-5.5c-1.8-3.1-2-6.9-0.4-10.2     c1.2-2.6,31-65,68.6-86.7c10-5.8,20.4-8.7,30.9-8.7c26.5,0,44.5,18.4,45.2,19.2c1.2,1.3,2.1,2.8,2.6,4.6     c4.7,16.2,4.7,51.8-29,71.3C385.8,721.9,349.2,724.8,322.8,724.8z M319.1,702.8c1.2,0,2.4,0,3.7,0c33.5,0,60.5-4.9,76-13.8     c22.4-12.9,20.8-35.4,19.4-43.3c-4.2-3.5-14.4-10.6-27.3-10.6c-6.7,0-13.4,1.9-19.9,5.7C350.6,652.5,330.7,682.3,319.1,702.8z" style="fill:url(#CerosGradient_id1004b9f5f);"/>
			<path class="st0-6140e10a91257" d="M366.2,492.2c-10.6,0-21-2.9-30.9-8.7c-37.6-21.7-67.3-84.1-68.6-86.7c-1.5-3.3-1.4-7.1,0.4-10.2     c1.8-3.1,5-5.2,8.6-5.5c0.4,0,9.3-0.8,22.4-0.8c26.4,0,62.9,2.9,87,16.8c33.6,19.4,33.6,55.1,29,71.3c-0.5,1.7-1.4,3.3-2.6,4.6     C410.7,473.8,392.7,492.2,366.2,492.2z M294.5,402.4c10.5,18.7,30.2,49.6,51.8,62.1c6.6,3.8,13.3,5.7,19.9,5.7     c12.9,0,23.1-7.2,27.3-10.6c1.4-7.8,3-30.4-19.4-43.3c-15.5-8.9-42.4-13.8-76-13.8C296.9,402.4,295.7,402.4,294.5,402.4z" style="fill:url(#CerosGradient_id1004b9f5f);"/>
			<path class="st0-6140e10a91257" d="M457.9,409.6c-23.3,0-42.5-11-54.1-31.1c-21.7-37.6-16.3-106.5-16-109.4c0.3-3.6,2.3-6.8,5.5-8.6     c3.1-1.8,6.9-2,10.2-0.4c2.6,1.2,65,31,86.7,68.6c19.4,33.6,1.6,64.5-10.5,76.2c-1.3,1.2-2.8,2.1-4.6,2.6     C474.3,407.7,467.5,409.6,457.9,409.6z M409.1,287.9c-0.2,21.4,1.4,58.1,13.8,79.6c7.7,13.3,19.5,20.1,35,20.1     c3.5,0,6.4-0.4,8.4-0.7c5.1-6.1,17.8-24.8,4.9-47.2c-7.4-12.8-22.9-27.1-44.8-41.3C420.1,294.3,414.1,290.8,409.1,287.9z" style="fill:url(#CerosGradient_id1004b9f5f);"/>
			<path class="st0-6140e10a91257" d="M565.5,382.9c-0.9,0-1.8-0.1-2.6-0.3c-16.3-4-47.2-21.9-47.2-60.7c0-43.4,39.2-100.3,40.8-102.7     c2.1-3,5.4-4.7,9-4.7c3.6,0,7,1.8,9,4.7c1.7,2.4,40.8,59.3,40.8,102.7c0,38.8-30.9,56.7-47.2,60.7     C567.3,382.8,566.4,382.9,565.5,382.9z M565.5,246c-10.9,18.4-27.9,51-27.9,75.9c0,25.9,20.4,35.7,27.9,38.5     c7.5-2.7,27.9-12.6,27.9-38.5C593.4,298.4,577.5,266.2,565.5,246z" style="fill:url(#CerosGradient_id1004b9f5f);"/>
			<path class="st0-6140e10a91257" d="M673.1,409.6c-9.6,0-16.4-1.9-17.2-2.1c-1.7-0.5-3.3-1.4-4.6-2.6c-12.1-11.7-30-42.6-10.6-76.2     c21.7-37.6,84.1-67.3,86.7-68.6c3.3-1.5,7.1-1.4,10.2,0.4c3.1,1.8,5.2,5,5.5,8.6c0.2,2.9,5.7,71.8-16,109.4     C715.7,398.6,696.5,409.6,673.1,409.6z M664.8,386.9c2,0.3,4.9,0.7,8.4,0.7c15.6,0,27.3-6.8,35-20.1     c11.7-20.3,14.1-56.1,13.8-79.6c-18.7,10.5-49.7,30.3-62.1,51.8C647,362.1,659.7,380.8,664.8,386.9z" style="fill:url(#CerosGradient_id1004b9f5f);"/>
			<path class="st0-6140e10a91257" d="M764.8,492.2c-26.5,0-44.5-18.4-45.2-19.2c-1.2-1.3-2.1-2.8-2.6-4.6c-4.7-16.2-4.7-51.8,29-71.3     c24-13.9,60.6-16.8,87-16.8c13.1,0,22,0.7,22.4,0.8c3.6,0.3,6.8,2.3,8.6,5.5c1.8,3.1,2,6.9,0.4,10.2c-1.2,2.6-31,65-68.6,86.7     C785.8,489.3,775.4,492.2,764.8,492.2z M737.5,459.6c4.2,3.5,14.4,10.6,27.3,10.6c6.7,0,13.4-1.9,19.9-5.7     c20.3-11.7,40.2-41.6,51.8-62.1c-1.2,0-2.4,0-3.7,0c-33.5,0-60.5,4.9-76,13.8C734.5,429.2,736.1,451.7,737.5,459.6z" style="fill:url(#CerosGradient_id1004b9f5f);"/>
			<path class="st0-6140e10a91257" d="M802.6,608.8C802.6,608.8,802.6,608.8,802.6,608.8c-38.8,0-56.7-30.9-60.7-47.2c-0.4-1.7-0.4-3.5,0-5.3     c4-16.3,21.9-47.2,60.7-47.2c43.4,0,100.3,39.2,102.7,40.8c3,2.1,4.7,5.4,4.7,9c0,3.6-1.8,7-4.7,9     C902.9,569.6,846,608.8,802.6,608.8z M764.1,558.9c2.7,7.5,12.6,27.8,38.5,27.8c14.8,0,34.9-6.3,58.2-18.1     c6.7-3.4,12.7-6.8,17.7-9.8c-18.4-10.9-51-27.9-75.9-27.9c0,0,0,0,0,0c-13.2,0-23.8,5.1-31.5,15.1     C767.4,551.1,765.2,556,764.1,558.9z" style="fill:url(#CerosGradient_id1004b9f5f);"/>
			<path class="st0-6140e10a91257" d="M815.2,724.8c-26.4,0-63-2.9-87-16.8c-33.6-19.4-33.6-55.1-29-71.3c0.5-1.7,1.4-3.3,2.6-4.6     c0.8-0.8,18.8-19.2,45.3-19.2c10.6,0,21,2.9,30.9,8.7c37.6,21.7,67.3,84.1,68.6,86.7c1.5,3.3,1.4,7.1-0.4,10.2     c-1.8,3.1-5,5.2-8.6,5.5C837.2,724.1,828.3,724.8,815.2,724.8z M719.8,645.7c-1.4,7.8-3,30.4,19.4,43.3     c15.5,8.9,42.4,13.8,76,13.8c1.3,0,2.5,0,3.6,0c-10.5-18.7-30.3-49.6-51.8-62.1c-6.6-3.8-13.3-5.7-19.9-5.7     C734.2,635,723.9,642.2,719.8,645.7z" style="fill:url(#CerosGradient_id1004b9f5f);"/>
		</g>
		<g>
			<path class="st0-6140e10a91257" d="M608.5,1126.6c-6.1,0-11-4.9-11-11V560.2c0-56.7,11.3-91.5,35.5-109.6c4.9-3.6,11.8-2.6,15.4,2.2     c3.6,4.9,2.6,11.8-2.2,15.4c-17.9,13.4-26.7,43.5-26.7,92v555.3C619.5,1121.6,614.5,1126.6,608.5,1126.6z" style="fill:url(#CerosGradient_id1004b9f5f);"/>
			<path class="st0-6140e10a91257" d="M700.1,1112.2c-35.1,0-62.6-41-62.6-93.4V591.5c0-52.4,27.5-93.4,62.6-93.4c6.1,0,11,4.9,11,11     s-4.9,11-11,11c-19.6,0-40.6,28.7-40.6,71.4v427.3c0,42.7,21,71.4,40.6,71.4c6.1,0,11,4.9,11,11S706.1,1112.2,700.1,1112.2z" style="fill:url(#CerosGradient_id1004b9f5f);"/>
			<g>
				<path class="st0-6140e10a91257" d="M521.1,1126.6c-6.1,0-11-4.9-11-11V560.2c0-48.5-8.7-78.6-26.7-92c-4.9-3.6-5.9-10.5-2.2-15.4      c3.6-4.9,10.5-5.9,15.4-2.2c24.2,18.1,35.5,52.9,35.5,109.6v555.3C532.1,1121.6,527.2,1126.6,521.1,1126.6z" style="fill:url(#CerosGradient_id1004b9f5f);"/>
				<path class="st0-6140e10a91257" d="M429.5,1112.2c-6.1,0-11-4.9-11-11s4.9-11,11-11c19.6,0,40.6-28.7,40.6-71.4V591.5      c0-42.7-21-71.4-40.6-71.4c-6.1,0-11-4.9-11-11s4.9-11,11-11c35.1,0,62.6,41,62.6,93.4v427.3      C492.1,1071.2,464.6,1112.2,429.5,1112.2z" style="fill:url(#CerosGradient_id1004b9f5f);"/>
			</g>
			<path class="st0-6140e10a91257" d="M563.7,1127.4c-6.1,0-11-4.9-11-11V436.2c0-6.1,4.9-11,11-11s11,4.9,11,11v680.2     C574.7,1122.5,569.8,1127.4,563.7,1127.4z" style="fill:url(#CerosGradient_id1004b9f5f);"/>
		</g>
	</g>
</g>
</svg>