<!-- Generator: Adobe Illustrator 25.2.3, SVG Export Plug-In  --><svg xmlns="http://www.w3.org/2000/svg" xmlns:xlink="http://www.w3.org/1999/xlink" version="1.1" x="0px" y="0px" width="1131px" height="1131px" viewBox="0 0 1131.1 1131.1" style="overflow:visible;enable-background:new 0 0 1131.1 1131.1;fill:url(#CerosGradient_ida8d8c570c);" xml:space="preserve" aria-hidden="true">
<style type="text/css">
	.st0-6140e0c291255{fill:#B28338;}
</style>
<defs><linearGradient class="cerosgradient" data-cerosgradient="true" id="CerosGradient_ida8d8c570c" gradientUnits="userSpaceOnUse" x1="50%" y1="100%" x2="50%" y2="0%"><stop offset="0%" stop-color="#0099A8"/><stop offset="100%" stop-color="#0099A8"/></linearGradient><linearGradient/>
</defs>
<g>
	<g>
		<g>
			<g>
				<g>
					<path class="st0-6140e0c291255" d="M566.3,269.6c-0.8,0-1.7-0.1-2.5-0.3c-16.6-3.8-48.1-21.4-48.7-60.6c-0.7-43.9,38.1-102.2,39.7-104.6       c2-3,5.4-4.8,9-4.9c3.6-0.1,7,1.7,9.1,4.6c1.7,2.4,42.2,59.4,42.9,103.4c0.6,39.2-30.3,57.8-46.8,62.1       C568.2,269.4,567.2,269.6,566.3,269.6z M564.4,130.7c-10.8,18.8-27.6,52.3-27.2,77.6c0.4,26.4,21.3,36.1,29,38.7       c7.5-2.9,28.2-13.2,27.8-39.6C593.5,183.6,576.8,151.1,564.4,130.7z" style="fill:url(#CerosGradient_ida8d8c570c);"/>
					<path class="st0-6140e0c291255" d="M298.9,561.5c-15.9,0-30.6-6.2-42.7-17.9c-31.5-30.6-45.3-99.2-45.9-102.1c-0.7-3.5,0.4-7.2,2.9-9.8       c2.5-2.6,6.1-3.8,9.7-3.2c2.9,0.5,71.9,12.2,103.4,42.8c28.2,27.3,19.4,62.3,10.8,77c-0.9,1.5-2.2,2.8-3.7,3.8       C331.9,553,317.8,561.5,298.9,561.5z M235.9,453.7c5.7,20.9,17.5,56.5,35.6,74.1c8,7.8,17.2,11.7,27.4,11.7       c9.1,0,16.7-3,20.5-4.8c3.3-7.3,10.6-29.2-8.4-47.6C293.9,470.5,259.1,459.3,235.9,453.7z" style="fill:url(#CerosGradient_ida8d8c570c);"/>
					<g>
						<g>
							<path class="st0-6140e0c291255" d="M408.6,551.3c-0.8,0-1.7-0.1-2.5-0.3c-14.8-3.4-43-19.1-43.5-54.2c-0.6-38.7,33.4-89.8,34.9-92         c2-3,5.4-4.8,9-4.9c3.7-0.1,7,1.7,9.1,4.6c1.5,2.1,37.1,52.2,37.6,90.9c0.5,35.1-27.1,51.6-41.8,55.5         C410.5,551.2,409.5,551.3,408.6,551.3z M406.9,431.8c-9.3,16.5-22.6,44-22.3,64.8c0.2,11.2,4.6,20.1,13.2,26.5         c4,3,8,4.7,10.5,5.7c2.6-1.1,6.8-3.1,10.9-6.4c8.1-6.6,12.1-15.5,11.9-26.5C430.9,476.1,417.5,449.4,406.9,431.8z" style="fill:url(#CerosGradient_ida8d8c570c);"/>
							<path class="st0-6140e0c291255" d="M407.9,617.3c-6.1,0-11-4.9-11-11V503.9c0-6.1,4.9-11,11-11s11,4.9,11,11v102.4         C418.9,612.4,414,617.3,407.9,617.3z" style="fill:url(#CerosGradient_ida8d8c570c);"/>
						</g>
						<g>
							<path class="st0-6140e0c291255" d="M274.9,674.1c-38.5,0-88.8-33.4-90.9-34.9c-3-2-4.8-5.4-4.9-9c-0.1-3.6,1.7-7,4.6-9.1         c2.1-1.5,52.2-37.1,90.9-37.6c0.3,0,0.7,0,1,0c34.4,0,50.7,27.4,54.5,41.8c0.5,1.7,0.5,3.5,0.1,5.3         c-3.4,14.8-19.1,43-54.2,43.5C275.6,674.1,275.3,674.1,274.9,674.1z M210.9,629.8c16.5,9.3,43.9,22.6,64.8,22.3         c11.2-0.2,20.1-4.6,26.5-13.2c3-4,4.7-8,5.7-10.5c-1-2.6-3-6.7-6.3-10.8c-6.5-8-15.2-12.1-25.9-12.1c-0.2,0-0.4,0-0.7,0         C254.1,605.9,227.1,620,210.9,629.8z" style="fill:url(#CerosGradient_ida8d8c570c);"/>
							<path class="st0-6140e0c291255" d="M384.2,639.8H283c-6.1,0-11-4.9-11-11s4.9-11,11-11h101.2c6.1,0,11,4.9,11,11S390.2,639.8,384.2,639.8z" style="fill:url(#CerosGradient_ida8d8c570c);"/>
						</g>
					</g>
					<g>
						<path class="st0-6140e0c291255" d="M277.9,427.7c-7.1,0-14.3-1.5-21.5-4.3c-35.9-14.5-69.8-65.6-71.2-67.8c-2-3-2.4-6.8-1-10.2        c1.3-3.3,4.3-5.8,7.8-6.6c1.1-0.3,27.6-6.2,55.7-6.2c17.2,0,31.6,2.3,42.7,6.7c32.5,13.1,37.1,45,34.9,60.1        c-0.3,1.8-0.9,3.4-2,4.9C322.6,405.2,306.1,427.7,277.9,427.7z M213.6,357.2c11.6,15,31.7,37.9,51,45.7        c4.5,1.8,9,2.7,13.3,2.7c12.7,0,21.9-8.2,25.7-12.2c0-2.8-0.2-7.5-1.7-12.6c-3-10-9.6-17.1-19.8-21.2        c-8.5-3.4-20.1-5.1-34.5-5.1C235.2,354.6,223,355.9,213.6,357.2z" style="fill:url(#CerosGradient_ida8d8c570c);"/>
						<path class="st0-6140e0c291255" d="M373.2,485.6c-5.5,0-10.3-4.1-10.9-9.7c-2.6-22.5-17.5-42.9-44.2-60.6c-20.8-13.8-40.8-20.4-41-20.5        c-5.8-1.9-8.9-8.1-7-13.9c1.9-5.8,8.1-8.9,13.9-7c3.8,1.2,92.3,31,100.3,99.5c0.7,6-3.6,11.5-9.7,12.2        C374.1,485.6,373.7,485.6,373.2,485.6z" style="fill:url(#CerosGradient_ida8d8c570c);"/>
					</g>
					<path class="st0-6140e0c291255" d="M473.9,1113.9c-3.1,0-6.1-1.3-8.3-3.8c-4-4.6-3.5-11.5,1.1-15.5c27.5-23.9,36.3-104.5,37.4-133.5       c0-0.1,0-0.2,0-0.4l10-143L283.2,517c-3.4-4.5-2.9-10.8,1.1-14.7c4.1-3.9,10.4-4.1,14.7-0.4l222.8,189.2l32.7-475.7       c0.4-6.1,5.7-10.6,11.7-10.2c6.1,0.4,10.6,5.7,10.2,11.7l-34.2,497.4c-0.3,4.1-2.9,7.8-6.7,9.4c-3.8,1.6-8.2,0.9-11.4-1.8       L363.7,585.7l170.5,222c1.6,2.1,2.4,4.8,2.2,7.5l-10.3,147c-0.1,2.7-1.3,29.2-6.8,59.9c-8,44.1-20.8,74.1-38.1,89.2       C479.1,1113,476.5,1113.9,473.9,1113.9z" style="fill:url(#CerosGradient_ida8d8c570c);"/>
					<g>
						<path class="st0-6140e0c291255" d="M470.5,345.3c-8.9,0-17.7-2.4-26.2-7c-32.7-18-59.3-70.9-60.4-73.2c-1.6-3.2-1.5-7,0.2-10.2        c1.7-3.2,4.9-5.3,8.5-5.6c0.4,0,10.9-1.1,25.3-1.1c20.6,0,49.4,2.3,68.9,13c29.8,16.4,30.5,47.6,26.6,61.9        c-0.5,1.7-1.3,3.3-2.5,4.6C510.1,328.3,494.3,345.3,470.5,345.3z M411.9,270.2c10.2,16.9,26.7,39.8,43,48.8        c5.2,2.9,10.4,4.3,15.6,4.3c10.2,0,18.4-5.6,22.1-8.7c0.3-2.7,0.6-7.1-0.2-11.9c-1.7-9.9-7-17.2-16.3-22.2        c-12-6.6-32.7-10.3-58.3-10.3C415.7,270.1,413.7,270.2,411.9,270.2z" style="fill:url(#CerosGradient_ida8d8c570c);"/>
						<path class="st0-6140e0c291255" d="M554,361.8c-1.9,0-3.8-0.5-5.5-1.5l-82-47.5c-5.3-3-7.1-9.8-4-15c3-5.3,9.8-7.1,15-4l82,47.5        c5.3,3,7.1,9.8,4,15C561.5,359.9,557.8,361.8,554,361.8z" style="fill:url(#CerosGradient_ida8d8c570c);"/>
					</g>
					<g>
						<path class="st0-6140e0c291255" d="M344.2,338.5c-13.8,0-26.6-5.4-37.1-15.5c-26.8-26-38.5-84.1-39-86.5c-0.7-3.5,0.4-7.2,2.9-9.8        c2.5-2.6,6.1-3.8,9.7-3.2c2.5,0.4,60.8,10.3,87.7,36.3c24.4,23.7,16.8,54,9.4,66.7c-0.9,1.5-2.2,2.8-3.7,3.8        C372.7,331.2,360.5,338.5,344.2,338.5z M293.8,248.8c5.4,19,15.2,45.5,28.6,58.4c6.5,6.3,13.6,9.3,21.7,9.3        c6.7,0,12.6-2.1,15.8-3.6c1-2.5,2.5-6.6,3-11.6c1-10-2.2-18.4-9.8-25.8C339.7,262.6,312.9,253.6,293.8,248.8z" style="fill:url(#CerosGradient_ida8d8c570c);"/>
						<path class="st0-6140e0c291255" d="M370.4,460.2c-1.1,0-2.2-0.2-3.2-0.5c-5.8-1.8-9.1-7.9-7.3-13.7c31.2-101.3-22.6-139.9-23.2-140.2        c-5-3.5-6.3-10.3-2.8-15.3c3.5-5,10.3-6.3,15.3-2.8c0.7,0.5,18,12.6,30.2,39.4c19.8,43.4,11.7,92.1,1.5,125.4        C379.5,457.2,375.1,460.2,370.4,460.2z" style="fill:url(#CerosGradient_ida8d8c570c);"/>
					</g>
					<g>
						<path class="st0-6140e0c291255" d="M236,799.5c-12.2,0-23.5-4.2-33.6-12.4c-29-23.5-45.8-80.3-46.5-82.7c-1-3.5-0.3-7.2,2-10        c2.3-2.8,5.8-4.3,9.4-4c2.5,0.2,61.5,4.9,90.5,28.4c26.4,21.4,21.5,52.3,15.2,65.6c-0.8,1.6-1.9,3-3.3,4.1        C268.2,789.6,254.6,799.5,236,799.5z M182.6,714.3c7.1,18.4,19.2,43.9,33.7,55.7c6.2,5,12.7,7.5,19.7,7.5        c7.9,0,14.7-3.2,18.1-5.1c0.8-2.6,1.9-6.8,1.9-11.8c0.1-10-3.9-18.1-12.1-24.8C229.5,724,202.1,717.4,182.6,714.3z" style="fill:url(#CerosGradient_ida8d8c570c);"/>
						<path class="st0-6140e0c291255" d="M341.4,842.9c-0.5,0-1,0-1.5-0.1c-59.1-8.2-110.7-75.6-112.9-78.5c-3.7-4.8-2.7-11.7,2.1-15.4        c4.8-3.7,11.7-2.7,15.4,2.1l0,0c0.5,0.6,48.3,63,98.3,69.9c6,0.8,10.2,6.4,9.4,12.4C351.5,838.9,346.8,842.9,341.4,842.9z" style="fill:url(#CerosGradient_ida8d8c570c);"/>
					</g>
					<g>
						<path class="st0-6140e0c291255" d="M196.2,590.5c-11.5,0-39.5-3.3-52-34.2c-14-34.7-1.1-92.4-0.6-94.9c0.8-3.5,3.3-6.4,6.6-7.8        c3.3-1.3,7.1-1,10.2,1c2.1,1.4,51.4,34.1,65.4,68.7c12.7,31.5-6.5,56.2-18.5,64.8c-1.4,1-3.1,1.7-4.9,2        C202.1,590.2,199.7,590.5,196.2,590.5z M162.2,483.1c-2.7,19.6-4.5,47.7,2.5,65c7.2,17.8,22.8,20.4,31.6,20.4        c0.1,0,0.3,0,0.4,0c2-1.9,5-5.1,7.4-9.4c4.9-8.7,5.4-17.7,1.5-27.5c-4.6-11.4-15.7-25-32.3-39.4        C169.3,488.8,165.5,485.7,162.2,483.1z" style="fill:url(#CerosGradient_ida8d8c570c);"/>
						<path class="st0-6140e0c291255" d="M220.3,620.8c-2,0-3.9-0.5-5.7-1.6c-25.8-15.8-38-64.9-39.3-70.5c-1.4-5.9,2.3-11.8,8.2-13.2        c5.9-1.4,11.8,2.3,13.2,8.2c4.1,17.5,15.7,48.4,29.4,56.7c5.2,3.2,6.8,9.9,3.6,15.1C227.6,619,224,620.8,220.3,620.8z" style="fill:url(#CerosGradient_ida8d8c570c);"/>
					</g>
					<g>
						<path class="st0-6140e0c291255" d="M488.1,619.6c-0.9,0-1.7-0.1-2.6-0.3c-13.5-3.2-39.1-17.9-39.3-49.9c-0.2-34.9,30.8-80.6,32.1-82.5        c2-3,5.4-4.8,9-4.8c0,0,0,0,0.1,0c3.6,0,6.9,1.7,9,4.7c1.3,1.9,32.9,47.2,33,82.1c0.2,32-25.2,46.9-38.7,50.3        C489.9,619.5,489,619.6,488.1,619.6z M487.6,514c-8.9,15.8-19.4,38.6-19.3,55.3c0.1,9.8,3.7,17.2,11.1,22.9        c3.3,2.5,6.5,4,8.7,4.9c6.1-2.4,19.5-9.7,19.4-28C507.4,552.3,496.6,529.6,487.6,514z" style="fill:url(#CerosGradient_ida8d8c570c);"/>
						<path class="st0-6140e0c291255" d="M489.9,688.2c-5.9,0-10.8-4.7-11-10.7l-2.9-99.8c-0.2-6.1,4.6-11.1,10.7-11.3c6.1-0.2,11.1,4.6,11.3,10.7        l2.9,99.8c0.2,6.1-4.6,11.1-10.7,11.3C490.1,688.2,490,688.2,489.9,688.2z" style="fill:url(#CerosGradient_ida8d8c570c);"/>
					</g>
					<g>
						<path class="st0-6140e0c291255" d="M463.9,240.8c-15.4,0-28.7-7.1-37.5-20c-17.1-25.2-16.8-73-16.8-75c0-3.6,1.8-7,4.8-9        c3-2,6.8-2.5,10.1-1.2c1.9,0.7,46.4,18.1,63.5,43.3c16,23.6,4.6,47.1-3.7,56.3c-1.2,1.3-2.7,2.3-4.4,3        C479.3,238.4,472.7,240.8,463.9,240.8z M432.4,163.3c1.4,15,4.7,34.2,12.2,45.1c4.7,7,11,10.4,19.3,10.4        c2.3,0,4.4-0.3,5.9-0.6c3-4.6,8.1-15.2,0.1-26.9C462.5,180.3,445.9,170.1,432.4,163.3z" style="fill:url(#CerosGradient_ida8d8c570c);"/>
						<path class="st0-6140e0c291255" d="M508,323.8c-6.1,0-11-4.9-11-11c0-52-43.9-98.6-44.4-99c-4.2-4.4-4-11.4,0.3-15.5        c4.4-4.2,11.3-4.1,15.5,0.3c2.1,2.1,50.5,53.3,50.5,114.2C519,318.8,514.1,323.8,508,323.8z" style="fill:url(#CerosGradient_ida8d8c570c);"/>
					</g>
					<g>
						<path class="st0-6140e0c291255" d="M496.9,468.6c-13.4,0-25.8-5.3-35.7-15.4c-24.5-24.9-34.2-79.2-34.6-81.5c-0.6-3.6,0.5-7.2,3.1-9.7        c2.6-2.5,6.2-3.6,9.8-3c2.3,0.4,56.5,10.8,81,35.7c22.5,22.8,14.7,51.2,7.4,63.1c-0.9,1.5-2.2,2.8-3.7,3.7        C522.9,462.3,511.8,468.6,496.9,468.6z M452.1,384.7c4.7,17.5,13.1,41.2,24.8,53.1c5.9,6,12.4,8.8,20.1,8.8        c5.7,0,10.7-1.7,13.5-2.9c2.7-5.9,7.2-20.6-5.6-33.6C493,398.3,469.5,389.6,452.1,384.7z" style="fill:url(#CerosGradient_ida8d8c570c);"/>
						<path class="st0-6140e0c291255" d="M544,490.4c-2.8,0-5.5-1-7.6-3.1l-49.1-47.5c-4.4-4.2-4.5-11.2-0.3-15.6c4.2-4.4,11.2-4.5,15.6-0.3        l49.1,47.5c4.4,4.2,4.5,11.2,0.3,15.6C549.8,489.3,546.9,490.4,544,490.4z" style="fill:url(#CerosGradient_ida8d8c570c);"/>
					</g>
					<g>
						<g>
							<path class="st0-6140e0c291255" d="M518.6,872.5c-2.3,0-4.6-0.7-6.5-2.2L358.5,756.8c-4.9-3.6-5.9-10.5-2.3-15.4c3.6-4.9,10.5-5.9,15.4-2.3         l153.5,113.5c4.9,3.6,5.9,10.5,2.3,15.4C525.3,870.9,521.9,872.5,518.6,872.5z" style="fill:url(#CerosGradient_ida8d8c570c);"/>
							<path class="st0-6140e0c291255" d="M380.5,805.9c-14.9,0-28.8-4.4-41.5-13.1c-38.7-26.6-61.5-92.1-62.5-94.9c-1.1-3.1-0.7-6.6,1.1-9.4         c1.8-2.8,4.7-4.7,8-5.1c0.5-0.1,13.3-1.6,30.9-1.6c46.5,0,71.7,10.6,84.6,19.4c17.6,12.1,27.9,30.9,29.7,54.5         c1.3,17.1-2.3,30.8-2.4,31.4c-0.7,2.6-2.3,4.8-4.5,6.3C423.2,793.8,404.9,805.9,380.5,805.9z M302.7,704.1         c8.2,19.4,25.7,54.6,48.8,70.5c8.9,6.1,18.7,9.2,29,9.2c12.1,0,22.4-4.2,27.5-6.8c1.9-11.2,4.5-41.3-19.4-57.7         c-14.6-10-40.2-15.6-72.2-15.6C311.4,703.8,306.7,703.9,302.7,704.1z" style="fill:url(#CerosGradient_ida8d8c570c);"/>
						</g>
						<g>
							<path class="st0-6140e0c291255" d="M381.3,904.6C381.3,904.6,381.3,904.6,381.3,904.6c-16.2,0-28.7-8.2-39.7-15.4c-3.3-2.2-6.4-4.2-9.5-6         c-17.3-10-36.1-15.9-36.3-15.9c-3.8-1.2-6.6-4.3-7.5-8.1c-0.9-3.9,0.4-7.9,3.4-10.5c1.5-1.3,36.2-32.1,85.5-32.1         c9.6,0,19.2,1.2,28.5,3.5c30.6,7.7,53.5,28.6,54.4,29.5c2.3,2.1,3.6,5.2,3.5,8.3c-0.1,3.1-1.5,6.1-3.9,8.1         c-1.4,1.2-33.9,28.8-65.5,37C389.9,904.1,385.5,904.6,381.3,904.6z M322.4,853.9c6.4,2.7,13.6,6.2,20.7,10.3         c3.7,2.1,7.2,4.4,10.6,6.7c9.7,6.3,18,11.8,27.6,11.8h0c2.4,0,4.8-0.3,7.3-1c16.8-4.4,34.9-16,46-24.1         c-8.2-5.6-20.4-12.7-34.4-16.2c-7.6-1.9-15.4-2.9-23.2-2.9C354.3,838.5,335,846.6,322.4,853.9z" style="fill:url(#CerosGradient_ida8d8c570c);"/>
							<path class="st0-6140e0c291255" d="M385,874.1c-5.1,0-9.6-3.5-10.7-8.7c-1.3-5.9,2.5-11.8,8.4-13.1c3.6-0.8,88.3-18.9,139.5-1.3         c5.7,2,8.8,8.2,6.8,14c-2,5.7-8.2,8.8-14,6.8c-45.4-15.6-126.9,1.8-127.7,2C386.5,874,385.7,874.1,385,874.1z" style="fill:url(#CerosGradient_ida8d8c570c);"/>
						</g>
					</g>
				</g>
				<g>
					<path class="st0-6140e0c291255" d="M832.1,561.5C832.1,561.5,832.1,561.5,832.1,561.5c-18.9,0-33-8.5-34.6-9.4c-1.5-0.9-2.8-2.2-3.7-3.8       c-8.6-14.7-17.4-49.7,10.8-77c31.5-30.6,100.5-42.3,103.4-42.8c3.6-0.6,7.2,0.6,9.7,3.2c2.5,2.6,3.6,6.2,2.9,9.8       c-0.6,2.9-14.4,71.5-45.9,102.1C862.8,555.3,848,561.5,832.1,561.5z M811.7,534.7c3.8,1.8,11.4,4.8,20.4,4.8       c10.2,0,19.4-3.9,27.4-11.7c10.7-10.4,21-29.2,29.6-54.2c2.5-7.3,4.5-14.1,6.1-19.8c-21.1,5-57,15.7-75.1,33.4       c-9.6,9.3-13.7,20.5-12.2,33.3C808.5,526.6,810.4,531.8,811.7,534.7z" style="fill:url(#CerosGradient_ida8d8c570c);"/>
					<g>
						<g>
							<path class="st0-6140e0c291255" d="M722.5,551.3c-0.9,0-1.9-0.1-2.8-0.4c-14.7-3.9-42.4-20.4-41.8-55.5c0.6-38.7,36.1-88.7,37.6-90.9         c2.1-2.9,5.5-4.7,9.1-4.6c3.6,0.1,7,1.9,9,4.9c1.4,2.2,35.4,53.3,34.9,92c-0.5,35.1-28.7,50.8-43.5,54.2         C724.1,551.3,723.3,551.3,722.5,551.3z M724.1,431.8c-9.8,16.3-24,43.2-24.3,64c-0.2,11,3.8,19.9,11.9,26.5         c4.1,3.3,8.3,5.4,10.9,6.4c2.7-1,6.9-2.9,11.1-6.1c8.3-6.4,12.5-15.2,12.7-26.1C746.7,475.7,733.4,448.3,724.1,431.8z" style="fill:url(#CerosGradient_ida8d8c570c);"/>
							<path class="st0-6140e0c291255" d="M723.1,617.3c-6.1,0-11-4.9-11-11V503.9c0-6.1,4.9-11,11-11s11,4.9,11,11v102.4         C734.1,612.4,729.2,617.3,723.1,617.3z" style="fill:url(#CerosGradient_ida8d8c570c);"/>
						</g>
						<g>
							<path class="st0-6140e0c291255" d="M856.1,674.1C856.1,674.1,856.1,674.1,856.1,674.1c-0.3,0-0.7,0-1,0c-35.1-0.5-50.8-28.7-54.2-43.5         c-0.4-1.7-0.4-3.5,0.1-5.3c3.8-14.5,20.1-41.8,54.5-41.8c0.3,0,0.7,0,1,0c38.7,0.6,88.7,36.1,90.9,37.6         c2.9,2.1,4.6,5.5,4.6,9.1c-0.1,3.6-1.9,7-4.9,9C944.9,640.7,894.7,674.1,856.1,674.1z M823.2,628.3c1,2.6,2.9,6.9,6.1,11.1         c6.4,8.3,15.2,12.5,26.1,12.7c20.9,0.3,48.2-13,64.8-22.3c-16.3-9.8-43.2-24-64.1-24.3c-0.2,0-0.5,0-0.7,0         c-11,0-19.8,4.2-26.4,12.6C826.1,622,824.2,625.9,823.2,628.3z" style="fill:url(#CerosGradient_ida8d8c570c);"/>
							<path class="st0-6140e0c291255" d="M848,639.8H746.9c-6.1,0-11-4.9-11-11s4.9-11,11-11H848c6.1,0,11,4.9,11,11S854.1,639.8,848,639.8z" style="fill:url(#CerosGradient_ida8d8c570c);"/>
						</g>
					</g>
					<g>
						<path class="st0-6140e0c291255" d="M853.1,427.7C853.1,427.7,853.1,427.7,853.1,427.7c-28.1,0-44.6-22.5-45.3-23.4c-1-1.4-1.7-3.1-2-4.9        c-2.1-15,2.4-47,34.9-60.1c11.1-4.5,25.4-6.7,42.7-6.7c28.1,0,54.5,5.9,55.7,6.2c3.5,0.8,6.4,3.3,7.8,6.6        c1.3,3.3,1,7.1-1,10.2c-1.4,2.2-35.3,53.3-71.2,67.8C867.4,426.2,860.2,427.7,853.1,427.7z M827.4,393.5        c3.7,4,13,12.2,25.7,12.2h0c4.3,0,8.7-0.9,13.3-2.7c11.9-4.8,26.1-16.4,41.1-33.6c3.7-4.3,7.1-8.4,9.9-12.1        c-9.4-1.4-21.6-2.7-34-2.7c-14.4,0-26,1.7-34.5,5.1c-10.4,4.2-17.1,11.6-20,21.9C827.6,386.4,827.4,390.8,827.4,393.5z" style="fill:url(#CerosGradient_ida8d8c570c);"/>
						<path class="st0-6140e0c291255" d="M757.8,485.6c-0.4,0-0.8,0-1.3-0.1c-6-0.7-10.4-6.2-9.7-12.2c3.3-28.8,22-55.2,53.9-76.4        c23.3-15.4,45.4-22.8,46.3-23.1c5.8-1.9,12,1.3,13.9,7c1.9,5.8-1.3,12-7,13.9c-1.1,0.4-79,26.7-85.2,81.1        C768.1,481.5,763.3,485.6,757.8,485.6z" style="fill:url(#CerosGradient_ida8d8c570c);"/>
					</g>
					<path class="st0-6140e0c291255" d="M657.1,1113.9c-2.6,0-5.1-0.9-7.2-2.7c-17.3-15.1-30.1-45.1-38.1-89.2c-5.6-30.7-6.7-57.2-6.8-59.9       l-10.3-147c-0.2-2.7,0.6-5.3,2.2-7.5l170.5-222L606.9,722c-3.2,2.7-7.6,3.4-11.4,1.8c-3.8-1.6-6.4-5.2-6.7-9.4L554.6,217       c-0.4-6.1,4.2-11.3,10.2-11.7c6.1-0.4,11.3,4.2,11.7,10.2l32.7,475.7L832,501.9c4.3-3.6,10.6-3.5,14.7,0.4       c4.1,3.9,4.6,10.2,1.1,14.7l-231,300.7l10,143c0,0.1,0,0.2,0,0.4c1.1,29,10,109.6,37.4,133.5c4.6,4,5.1,10.9,1.1,15.5       C663.3,1112.6,660.2,1113.9,657.1,1113.9z" style="fill:url(#CerosGradient_ida8d8c570c);"/>
					<g>
						<path class="st0-6140e0c291255" d="M660.6,345.3C660.6,345.3,660.6,345.3,660.6,345.3c-23.8,0-39.7-16.9-40.3-17.7c-1.2-1.3-2.1-2.9-2.5-4.6        c-3.8-14.2-3.1-45.5,26.6-61.9c10.8-5.9,31.5-13,68.9-13c14.4,0,24.8,1.1,25.3,1.1c3.6,0.4,6.8,2.5,8.5,5.6        c1.7,3.2,1.8,7,0.2,10.2c-1.1,2.2-27.7,55.1-60.4,73.2C678.3,342.9,669.5,345.3,660.6,345.3z M638.5,314.6        c3.6,3,11.8,8.7,22.1,8.7h0c5.2,0,10.4-1.4,15.6-4.3c10.7-5.9,22.9-18.6,35.3-36.7c2.9-4.3,5.5-8.4,7.7-12        c-1.9,0-3.9-0.1-5.9-0.1c-25.5,0-46.2,3.6-58.3,10.3c-9.2,5.1-14.6,12.4-16.3,22.2C637.9,307.5,638.1,311.9,638.5,314.6z" style="fill:url(#CerosGradient_ida8d8c570c);"/>
						<path class="st0-6140e0c291255" d="M577.1,361.8c-3.8,0-7.5-2-9.5-5.5c-3-5.3-1.2-12,4-15l82-47.5c5.3-3,12-1.2,15,4c3,5.3,1.2,12-4,15        l-82,47.5C580.9,361.4,579,361.8,577.1,361.8z" style="fill:url(#CerosGradient_ida8d8c570c);"/>
					</g>
					<g>
						<path class="st0-6140e0c291255" d="M786.9,338.5C786.9,338.5,786.9,338.5,786.9,338.5c-16.4,0-28.6-7.4-29.9-8.2c-1.5-0.9-2.8-2.2-3.7-3.8        c-7.4-12.7-15-43,9.4-66.7c26.8-26,85.2-35.9,87.7-36.3c3.6-0.6,7.2,0.6,9.7,3.2c2.5,2.6,3.6,6.2,2.9,9.8        c-0.5,2.5-12.1,60.5-39,86.5C813.5,333.2,800.7,338.5,786.9,338.5z M771.1,313c3.2,1.4,9,3.6,15.8,3.6c8.2,0,15.3-3,21.7-9.3        c13.4-13,23.2-39.4,28.6-58.4c-19.1,4.8-45.9,13.9-59.3,26.8c-7.6,7.3-10.8,15.8-9.8,25.8C768.6,306.3,770.1,310.4,771.1,313z        " style="fill:url(#CerosGradient_ida8d8c570c);"/>
						<path class="st0-6140e0c291255" d="M760.6,460.2c-4.7,0-9.1-3-10.5-7.8c-10.2-33.2-18.3-81.9,1.5-125.4c12.2-26.8,29.5-38.9,30.2-39.4        c5-3.5,11.8-2.2,15.3,2.8c3.4,5,2.2,11.8-2.7,15.3c-0.4,0.3-13.8,10.1-23.3,31.8c-12.8,29.2-12.8,66.7,0.1,108.5        c1.8,5.8-1.5,12-7.3,13.7C762.8,460.1,761.7,460.2,760.6,460.2z" style="fill:url(#CerosGradient_ida8d8c570c);"/>
					</g>
					<g>
						<path class="st0-6140e0c291255" d="M895.1,799.5C895.1,799.5,895.1,799.5,895.1,799.5c-18.7,0-32.3-9.9-33.8-11c-1.4-1.1-2.6-2.5-3.3-4.1        c-6.3-13.3-11.2-44.2,15.2-65.6c29-23.5,88-28.2,90.5-28.4c3.6-0.3,7.1,1.2,9.4,4c2.3,2.8,3,6.5,2,10        c-0.7,2.4-17.5,59.2-46.5,82.7C918.5,795.3,907.2,799.5,895.1,799.5z M876.9,772.4c3.4,1.9,10.2,5.1,18.1,5.1c0,0,0,0,0,0        c7.1,0,13.5-2.4,19.7-7.5c14.5-11.8,26.6-37.2,33.7-55.7c-19.5,3.1-46.9,9.7-61.4,21.5c-8.3,6.7-12.3,15.3-12,25.5        C875.2,765.9,876.2,769.9,876.9,772.4z" style="fill:url(#CerosGradient_ida8d8c570c);"/>
						<path class="st0-6140e0c291255" d="M789.6,842.9c-5.4,0-10.1-4-10.9-9.5c-0.8-6,3.4-11.6,9.4-12.4c50.1-6.9,97.9-69.3,98.3-69.9        c3.7-4.8,10.6-5.8,15.4-2.1c4.8,3.7,5.8,10.6,2.1,15.4c-2.2,2.9-53.7,70.3-112.9,78.5C790.6,842.8,790.1,842.9,789.6,842.9z" style="fill:url(#CerosGradient_ida8d8c570c);"/>
					</g>
					<g>
						<path class="st0-6140e0c291255" d="M934.8,590.5C934.8,590.5,934.8,590.5,934.8,590.5c-3.5,0-5.9-0.3-6.3-0.4c-1.8-0.3-3.4-0.9-4.9-2        c-12-8.6-31.2-33.3-18.5-64.8c14-34.7,63.3-67.4,65.4-68.7c3-2,6.8-2.4,10.2-1c3.3,1.3,5.8,4.3,6.6,7.8        c0.6,2.4,13.4,60.2-0.6,94.9C974.4,587.2,946.3,590.5,934.8,590.5z M934.4,568.5c0.1,0,0.3,0,0.4,0c8.7,0,24.4-2.7,31.6-20.4        c7-17.3,5.2-45.5,2.5-65c-15.5,12.2-36.3,31.3-43.3,48.5c-4,9.9-3.4,19.3,1.8,28.1C929.8,563.7,932.6,566.7,934.4,568.5z" style="fill:url(#CerosGradient_ida8d8c570c);"/>
						<path class="st0-6140e0c291255" d="M910.8,620.8c-3.7,0-7.3-1.9-9.4-5.3c-3.2-5.2-1.5-12,3.6-15.1c13.7-8.4,25.3-39.2,29.4-56.7        c1.4-5.9,7.3-9.6,13.2-8.2c5.9,1.4,9.6,7.3,8.2,13.2c-1.3,5.5-13.5,54.6-39.3,70.5C914.7,620.3,912.8,620.8,910.8,620.8z" style="fill:url(#CerosGradient_ida8d8c570c);"/>
					</g>
					<g>
						<path class="st0-6140e0c291255" d="M643,619.6c-0.9,0-1.8-0.1-2.7-0.3c-13.5-3.4-38.9-18.3-38.7-50.3c0.2-34.9,31.7-80.2,33-82.1        c2.1-2.9,5.4-4.7,9-4.7c0,0,0,0,0.1,0c3.6,0,7,1.8,9,4.8c1.3,1.9,32.3,47.6,32.1,82.5c-0.2,32-25.8,46.6-39.3,49.9        C644.7,619.5,643.8,619.6,643,619.6z M643.5,514c-9.1,15.7-19.8,38.4-19.9,55.1c-0.1,9.8,3.5,17.3,10.9,23        c3.2,2.5,6.5,4.1,8.6,5c6.1-2.3,19.6-9.5,19.7-27.7C662.9,552.5,652.4,529.7,643.5,514z" style="fill:url(#CerosGradient_ida8d8c570c);"/>
						<path class="st0-6140e0c291255" d="M641.1,688.2c-0.1,0-0.2,0-0.3,0c-6.1-0.2-10.9-5.2-10.7-11.3l2.9-99.8c0.2-6.1,5.2-10.9,11.3-10.7        c6.1,0.2,10.9,5.2,10.7,11.3l-2.9,99.8C652,683.5,647.1,688.2,641.1,688.2z" style="fill:url(#CerosGradient_ida8d8c570c);"/>
					</g>
					<g>
						<path class="st0-6140e0c291255" d="M667.2,240.8C667.2,240.8,667.2,240.8,667.2,240.8c-8.9,0-15.5-2.3-16.2-2.6c-1.7-0.6-3.2-1.6-4.4-3        c-8.3-9.2-19.7-32.7-3.7-56.3c17.1-25.2,61.6-42.6,63.5-43.3c3.4-1.3,7.2-0.9,10.1,1.2c3,2,4.8,5.4,4.8,9        c0,2,0.3,49.8-16.8,75C695.9,233.7,682.6,240.8,667.2,240.8z M661.3,218.2c1.5,0.3,3.6,0.6,5.9,0.6c8.2,0,14.6-3.4,19.3-10.4        c7.4-10.9,10.8-30.1,12.2-45.1c-13.4,6.8-30,17.1-37.4,28C653.3,202.9,658.2,213.5,661.3,218.2z" style="fill:url(#CerosGradient_ida8d8c570c);"/>
						<path class="st0-6140e0c291255" d="M623.1,323.8c-6.1,0-11-4.9-11-11c0-60.9,48.4-112.1,50.5-114.2c4.2-4.4,11.2-4.5,15.6-0.3        c4.4,4.2,4.5,11.2,0.3,15.5c-0.7,0.8-44.4,47.2-44.4,99C634.1,318.8,629.1,323.8,623.1,323.8z" style="fill:url(#CerosGradient_ida8d8c570c);"/>
					</g>
					<g>
						<path class="st0-6140e0c291255" d="M634.1,468.6C634.1,468.6,634.1,468.6,634.1,468.6c-14.8,0-26-6.4-27.2-7.1c-1.5-0.9-2.8-2.2-3.7-3.7        c-7.3-11.8-15.1-40.3,7.4-63.1c24.5-24.9,78.7-35.3,81-35.7c3.5-0.7,7.2,0.4,9.8,3c2.6,2.5,3.7,6.2,3.1,9.7        c-0.4,2.3-10.1,56.6-34.6,81.5C659.9,463.3,647.6,468.6,634.1,468.6z M620.7,443.8c2.8,1.2,7.8,2.8,13.4,2.8c0,0,0,0,0,0        c7.6,0,14.2-2.9,20.1-8.8c11.7-11.9,20.1-35.6,24.8-53.1c-17.5,4.9-41,13.6-52.7,25.5c-6.9,6.9-9.6,14.8-8.3,24.1        C618.5,438.3,619.7,441.7,620.7,443.8z" style="fill:url(#CerosGradient_ida8d8c570c);"/>
						<path class="st0-6140e0c291255" d="M587,490.4c-2.9,0-5.8-1.1-7.9-3.4c-4.2-4.4-4.1-11.3,0.3-15.6l49.1-47.5c4.4-4.2,11.3-4.1,15.6,0.3        c4.2,4.4,4.1,11.3-0.3,15.6l-49.1,47.5C592.5,489.4,589.8,490.4,587,490.4z" style="fill:url(#CerosGradient_ida8d8c570c);"/>
					</g>
					<g>
						<g>
							<path class="st0-6140e0c291255" d="M612.5,872.5c-3.4,0-6.7-1.5-8.9-4.5c-3.6-4.9-2.6-11.8,2.3-15.4l153.5-113.5c4.9-3.6,11.8-2.6,15.4,2.3         c3.6,4.9,2.6,11.8-2.3,15.4L619,870.3C617,871.8,614.8,872.5,612.5,872.5z" style="fill:url(#CerosGradient_ida8d8c570c);"/>
							<path class="st0-6140e0c291255" d="M750.5,805.9C750.5,805.9,750.5,805.9,750.5,805.9c-24.4,0-42.6-12-43.4-12.6c-2.2-1.5-3.8-3.7-4.5-6.3         c-0.2-0.6-3.8-14.3-2.4-31.4c1.9-23.5,12.1-42.4,29.7-54.5c12.9-8.9,38.1-19.4,84.6-19.4c17.6,0,30.3,1.5,30.9,1.6         c3.3,0.4,6.2,2.3,8,5.1c1.8,2.8,2.2,6.3,1.1,9.4c-1,2.8-23.8,68.4-62.5,94.9C779.4,801.5,765.4,805.9,750.5,805.9z M723,777         c5.2,2.6,15.4,6.8,27.5,6.8c0,0,0,0,0,0c10.4,0,20.1-3.1,29-9.2c13.3-9.1,26.8-26.4,39.2-50c4-7.6,7.2-14.8,9.7-20.5         c-4-0.2-8.7-0.3-13.9-0.3c-31.9,0-57.5,5.5-72.2,15.6c-12,8.2-18.8,20.8-20.2,37.4C721.4,765.1,722.3,772.6,723,777z" style="fill:url(#CerosGradient_ida8d8c570c);"/>
						</g>
						<g>
							<path class="st0-6140e0c291255" d="M749.8,904.6c-4.2,0-8.6-0.6-12.9-1.7c-31.6-8.3-64.1-35.8-65.5-37c-2.4-2-3.8-5-3.9-8.1         c-0.1-3.1,1.2-6.2,3.5-8.3c1-0.9,23.8-21.8,54.4-29.5c9.3-2.3,18.9-3.5,28.5-3.5c49.3,0,84,30.8,85.5,32.1         c2.9,2.7,4.2,6.7,3.4,10.5c-0.9,3.9-3.7,7-7.5,8.1c-0.2,0.1-19.1,6-36.3,15.9c-3.2,1.8-6.2,3.9-9.5,6         C778.5,896.4,766,904.6,749.8,904.6z M696.4,857.5c11.1,8.1,29.2,19.7,46,24.1c2.5,0.7,5,1,7.3,1c9.6,0,18-5.5,27.6-11.8         c3.4-2.2,6.9-4.5,10.6-6.7c7.1-4.1,14.3-7.5,20.6-10.3c-12.7-7.3-32-15.4-54.6-15.4c-7.8,0-15.6,1-23.2,2.9         C716.8,844.9,704.6,851.9,696.4,857.5z" style="fill:url(#CerosGradient_ida8d8c570c);"/>
							<path class="st0-6140e0c291255" d="M746.1,874.1c-0.8,0-1.6-0.1-2.3-0.3l0,0c-0.8-0.2-82.3-17.6-127.7-2c-5.7,2-12-1.1-14-6.8         c-2-5.7,1.1-12,6.8-14c51.2-17.6,136,0.5,139.5,1.3c5.9,1.3,9.7,7.2,8.4,13.1C755.7,870.6,751.2,874.1,746.1,874.1z" style="fill:url(#CerosGradient_ida8d8c570c);"/>
						</g>
					</g>
				</g>
			</g>
		</g>
	</g>
	<path class="st0-6140e0c291255" d="M565.5,1131.1c-76.3,0-150.4-15-220.1-44.4c-67.3-28.5-127.8-69.3-179.8-121.2   C113.7,913.5,72.9,853,44.4,785.7C15,715.9,0,641.9,0,565.5s15-150.4,44.4-220.1c28.5-67.3,69.3-127.8,121.2-179.8   c51.9-51.9,112.4-92.7,179.8-121.2C415.1,15,489.2,0,565.5,0c76.3,0,150.4,15,220.1,44.4c67.3,28.5,127.8,69.3,179.8,121.2   c51.9,51.9,92.7,112.4,121.2,179.8c29.5,69.7,44.4,143.8,44.4,220.1s-15,150.4-44.4,220.1c-28.5,67.3-69.3,127.8-121.2,179.8   c-51.9,51.9-112.4,92.7-179.8,121.2C715.9,1116.1,641.9,1131.1,565.5,1131.1z M565.5,22C492.1,22,421,36.4,354,64.7   c-64.7,27.4-122.8,66.6-172.8,116.5c-49.9,49.9-89.1,108-116.5,172.8C36.4,421,22,492.1,22,565.5c0,73.4,14.4,144.6,42.7,211.6   c27.4,64.7,66.6,122.8,116.5,172.8c49.9,49.9,108,89.1,172.8,116.5c67,28.3,138.2,42.7,211.6,42.7c73.4,0,144.6-14.4,211.6-42.7   c64.7-27.4,122.8-66.6,172.8-116.5c49.9-49.9,89.1-108,116.5-172.8c28.3-67,42.7-138.2,42.7-211.6c0-73.4-14.4-144.6-42.7-211.6   c-27.4-64.7-66.6-122.8-116.5-172.8c-49.9-49.9-108-89.1-172.8-116.5C710.1,36.4,638.9,22,565.5,22z" style="fill:url(#CerosGradient_ida8d8c570c);"/>
</g>
</svg>