<!-- Generator: Adobe Illustrator 25.2.3, SVG Export Plug-In  --><svg xmlns="http://www.w3.org/2000/svg" xmlns:xlink="http://www.w3.org/1999/xlink" version="1.1" x="0px" y="0px" width="1131px" height="1131px" viewBox="0 0 1131.1 1131.1" style="overflow:visible;enable-background:new 0 0 1131.1 1131.1;fill:url(#CerosGradient_idc10cc04dc);" xml:space="preserve" aria-hidden="true">
<style type="text/css">
	.st0-6140e1879125b{fill:#B28338;}
</style>
<defs><linearGradient class="cerosgradient" data-cerosgradient="true" id="CerosGradient_idc10cc04dc" gradientUnits="userSpaceOnUse" x1="50%" y1="100%" x2="50%" y2="0%"><stop offset="0%" stop-color="#0099A8"/><stop offset="100%" stop-color="#0099A8"/></linearGradient><linearGradient/>
</defs>
<g>
	<path class="st0-6140e1879125b" d="M565.5,1131.1c-76.3,0-150.4-15-220.1-44.4c-67.3-28.5-127.8-69.3-179.8-121.2   C113.7,913.5,72.9,853,44.4,785.7C15,715.9,0,641.9,0,565.5s15-150.4,44.4-220.1c28.5-67.3,69.3-127.8,121.2-179.8   c51.9-51.9,112.4-92.7,179.8-121.2C415.1,15,489.2,0,565.5,0c76.3,0,150.4,15,220.1,44.4c67.3,28.5,127.8,69.3,179.8,121.2   s92.7,112.4,121.2,179.8c29.5,69.7,44.4,143.8,44.4,220.1s-15,150.4-44.4,220.1c-28.5,67.3-69.3,127.8-121.2,179.8   c-51.9,51.9-112.4,92.7-179.8,121.2C715.9,1116.1,641.9,1131.1,565.5,1131.1z M565.5,22C492.1,22,421,36.4,354,64.7   c-64.7,27.4-122.8,66.6-172.8,116.5c-49.9,49.9-89.1,108-116.5,172.8C36.4,421,22,492.1,22,565.5s14.4,144.6,42.7,211.6   c27.4,64.7,66.6,122.8,116.5,172.8c49.9,49.9,108,89.1,172.8,116.5c67,28.3,138.2,42.7,211.6,42.7c73.4,0,144.6-14.4,211.6-42.7   c64.7-27.4,122.8-66.6,172.8-116.5c49.9-49.9,89.1-108,116.5-172.8c28.3-67,42.7-138.2,42.7-211.6S1094.7,421,1066.3,354   c-27.4-64.7-66.6-122.8-116.5-172.8c-49.9-49.9-108-89.1-172.8-116.5C710.1,36.4,638.9,22,565.5,22z" style="fill:url(#CerosGradient_idc10cc04dc);"/>
	<path class="st0-6140e1879125b" d="M565.4,1126.9c-0.1,0-0.1,0-0.2,0c-6.1-0.1-10.9-5.1-10.8-11.2l7.9-529.3c0-96.4,29.6-155.6,53.4-203.3   c16.9-33.9,30.3-60.6,27.1-89.9c-6-54.5-55.3-93.9-109.7-87.8c-20.5,2.3-38.9,12.4-51.8,28.5c-12.9,16.1-18.8,36.3-16.5,56.8   c3.6,32.7,33.2,56.3,65.8,52.7c24.9-2.8,43-25.3,40.2-50.2c-2.1-18.7-19-32.3-37.8-30.2c-6.7,0.7-12.7,4-16.9,9.3   c-4.2,5.2-6.1,11.8-5.4,18.5c1.1,9.8,10,16.9,19.8,15.8c3.2-0.4,6.1-1.9,8.1-4.5s2.9-5.7,2.6-8.9c-0.2-2.2-1.3-3.6-2.2-4.5   c-4.3-4.3-4.3-11.2,0-15.6c4.3-4.3,11.2-4.3,15.6,0c4.7,4.7,7.8,11,8.5,17.7c1,9.1-1.6,18-7.3,25.1c-5.7,7.1-13.8,11.6-22.9,12.6   c-21.9,2.4-41.7-13.4-44.1-35.3c-1.4-12.5,2.2-24.8,10.1-34.7c7.9-9.8,19.1-16,31.6-17.4c30.8-3.4,58.6,18.9,62.1,49.7   c4.1,37-22.7,70.4-59.7,74.5c-3,0.3-6.1,0.5-9.1,0.5c-41,0-76.5-30.9-81.1-72.6c-2.9-26.4,4.6-52.3,21.2-73   c16.6-20.7,40.2-33.7,66.6-36.6c32.2-3.6,63.9,5.6,89.2,25.9c25.3,20.3,41.2,49.2,44.8,81.4c4,35.7-11.4,66.5-29.3,102.1   c-22.8,45.6-51.1,102.3-51.1,193.5c0,0.1,0,0.1,0,0.2l-7.9,529.4C576.3,1122.1,571.4,1126.9,565.4,1126.9z" style="fill:url(#CerosGradient_idc10cc04dc);"/>
	<path class="st0-6140e1879125b" d="M441,1110.8c-3.1,0-6.1-1.3-8.3-3.8c-4-4.6-3.5-11.5,1.1-15.5c39.2-34.2,70-156.5,80.2-225.7   c3.8-25.8,5.8-65.1-6.4-105.9c-6.9-23-15.4-36.4-16.4-38c-24.7-32.7-71.6-44.6-130.9-59.6c-70.7-17.9-158.8-40.2-245.2-108.5   c-48.8-38.6-59-106.8-23.2-155.3c29.9-40.5,87-49.1,127.5-19.2c16.2,11.9,26.7,29.4,29.7,49.3c3,19.8-1.9,39.7-13.8,55.8   c-9.9,13.4-24.4,22.1-40.8,24.6c-16.5,2.5-32.9-1.6-46.3-11.5c-11.2-8.3-18.5-20.4-20.6-34.1c-2.1-13.7,1.3-27.5,9.6-38.7   c14.4-19.5,41.9-23.6,61.3-9.2c16.5,12.2,20.1,35.6,7.9,52.1c-3.6,4.9-10.5,5.9-15.4,2.3c-4.9-3.6-5.9-10.5-2.3-15.4   c5-6.8,3.6-16.4-3.2-21.4c-9.7-7.1-23.4-5.1-30.5,4.6c-4.8,6.5-6.7,14.4-5.5,22.3c1.2,7.9,5.4,14.9,11.9,19.7   c8.7,6.4,19.3,9,29.9,7.4c10.6-1.6,20-7.3,26.4-15.9c8.4-11.4,11.9-25.4,9.8-39.5c-2.1-14-9.6-26.4-21-34.8   c-30.7-22.6-74.1-16.1-96.7,14.6c-28.7,38.9-20.3,93.8,19.1,125c82.7,65.4,168.2,87,236.9,104.4c61.1,15.5,114,28.9,143.3,68   c0.1,0.1,0.2,0.2,0.3,0.4c0.4,0.6,10.8,15.8,19.1,43.2c7.6,24.8,15,65.2,7.4,116.5c-4.4,29.5-14.1,77.3-28.2,123.2   c-17.9,58.1-37.8,97-59.4,115.8C446.2,1110,443.6,1110.8,441,1110.8z" style="fill:url(#CerosGradient_idc10cc04dc);"/>
	<path class="st0-6140e1879125b" d="M468.4,698.4c-1.8,0-3.6-0.4-5.3-1.4c-2-1.1-49.8-27.9-73.8-57.4c-25-30.8-31.3-87.3-16.3-147.4   c2.2-8.6,4.2-16.5,6-23.8c10.2-39.9,15.8-61.8,14.8-89.7c-1.5-40.8-34.3-56.3-36.4-57.2c-70.6-27.5-80.1-81.4-80.1-130.6   c0-43.4,35.3-78.6,78.6-78.6c35.9,0,65.1,29.2,65.1,65.1c0,29.9-24.3,54.3-54.3,54.3c-25.2,0-45.6-20.5-45.6-45.6   c0-21.3,17.4-38.7,38.7-38.7c6.1,0,11,4.9,11,11s-4.9,11-11,11c-9.2,0-16.7,7.5-16.7,16.7c0,13,10.6,23.6,23.6,23.6   c17.8,0,32.3-14.5,32.3-32.3c0-23.8-19.3-43.1-43.1-43.1c-31.2,0-56.6,25.4-56.6,56.6c0,50.7,11.3,88.8,66.3,110.2   c0.1,0,0.2,0.1,0.3,0.1c2,0.8,47.9,20.9,49.9,76.7c1.1,31-5.1,55.4-15.5,95.9c-1.9,7.3-3.9,15.1-6,23.7   c-13.2,52.7-8.5,103,12,128.1c21.3,26.2,67,51.8,67.4,52.1c5.3,3,7.2,9.6,4.3,15C476,696.3,472.2,698.4,468.4,698.4z" style="fill:url(#CerosGradient_idc10cc04dc);"/>
	<path class="st0-6140e1879125b" d="M223.4,351.8c-4.1,0-8.2-0.5-12.3-1.4c-17.3-3.9-32.1-14.3-41.6-29.3c-9.5-15-12.6-32.8-8.7-50.2   c4.7-21,17.3-38.8,35.5-50.3c18.2-11.5,39.7-15.2,60.6-10.5c16.4,3.7,31.6,11.6,44,22.8c4.5,4.1,4.9,11,0.8,15.5   c-4.1,4.5-11,4.9-15.5,0.8c-9.6-8.7-21.4-14.8-34.1-17.6c-15.2-3.4-30.9-0.7-44.1,7.6c-13.2,8.3-22.3,21.3-25.8,36.5   c-2.6,11.6-0.5,23.5,5.8,33.6c6.4,10.1,16.3,17,27.9,19.6c8.7,2,17.7,0.4,25.2-4.4c7.5-4.8,12.8-12.2,14.7-20.9   c1.4-6.4,0.3-13-3.2-18.5c-3.5-5.5-9-9.4-15.4-10.8c-9.4-2.1-18.7,3.8-20.8,13.2c-1.4,6.3,2.6,12.6,8.9,14   c5.9,1.3,9.6,7.2,8.3,13.1c-1.3,5.9-7.2,9.6-13.1,8.3c-18.2-4.1-29.6-22.2-25.5-40.3c4.8-21.2,25.9-34.6,47.1-29.8   c12.1,2.7,22.5,10,29.1,20.5c6.6,10.5,8.8,23,6.1,35.1c-3.3,14.4-11.9,26.8-24.4,34.7C244,348.9,233.8,351.8,223.4,351.8z" style="fill:url(#CerosGradient_idc10cc04dc);"/>
	<path class="st0-6140e1879125b" d="M319.6,468.3c-14.4,0-28.9-4.8-40.8-14.8c-15.9-13.2-25.6-31.8-27.5-52.3c-1.9-20.5,4.3-40.6,17.5-56.4   c16-19.3,38.6-31.1,63.5-33.4c24.9-2.3,49.3,5.3,68.5,21.3c4.7,3.9,5.3,10.8,1.4,15.5c-3.9,4.7-10.8,5.3-15.5,1.4   c-14.7-12.3-33.4-18-52.4-16.3c-19.1,1.8-36.3,10.8-48.6,25.6c-9.4,11.3-13.9,25.7-12.5,40.3c1.3,14.7,8.3,28,19.7,37.4   c17.8,14.8,44.3,12.4,59.1-5.4c11.1-13.3,9.2-33.1-4.1-44.2c-9.7-8.1-24.2-6.7-32.2,3c-2.8,3.3-4.1,7.5-3.7,11.8   c0.4,4.3,2.4,8.2,5.7,10.9c2.2,1.8,5,2.7,7.8,2.4c2.8-0.3,5.4-1.6,7.2-3.8c3.9-4.7,10.8-5.3,15.5-1.4c4.7,3.9,5.3,10.8,1.4,15.5   c-5.6,6.7-13.4,10.9-22.1,11.6c-8.7,0.8-17.2-1.8-23.9-7.4c-7.8-6.5-12.6-15.7-13.6-25.8c-0.9-10.1,2.1-20,8.7-27.9   c15.8-19,44.2-21.6,63.2-5.8c22.6,18.8,25.7,52.5,6.9,75.2C356.2,460.5,337.9,468.3,319.6,468.3z" style="fill:url(#CerosGradient_idc10cc04dc);"/>
	<path class="st0-6140e1879125b" d="M277.9,638.6c-1.3,0-2.5-0.2-3.8-0.7c-34.8-12.8-58.9-44.9-61.3-81.9c-1.4-20.6,5.4-40.5,19-56   c13.6-15.5,32.4-24.8,53-26.2c17.1-1.1,33.5,4.4,46.4,15.7c12.9,11.3,20.6,26.9,21.7,43.9c1.9,29.4-20.4,54.9-49.7,56.8   c-12,0.8-23.5-3.1-32.6-11c-9-7.9-14.4-18.8-15.2-30.8c-0.7-10.2,2.6-20,9.4-27.6c6.7-7.7,16-12.3,26.2-12.9   c18-1.2,33.6,12.5,34.8,30.5c0.4,6.1-4.2,11.3-10.2,11.7c-6.1,0.4-11.3-4.2-11.7-10.2c-0.4-5.9-5.5-10.4-11.4-10   c-4.3,0.3-8.2,2.2-11.1,5.5c-2.8,3.2-4.2,7.4-4,11.7c0.4,6.1,3.2,11.7,7.8,15.7c4.6,4,10.5,6,16.6,5.6   c17.3-1.1,30.4-16.1,29.2-33.4c-0.7-11.2-5.8-21.4-14.2-28.8c-8.4-7.4-19.2-11-30.4-10.3c-14.7,1-28.2,7.6-37.9,18.7   c-9.7,11.1-14.5,25.3-13.6,40c1.9,28.3,20.3,52.9,46.9,62.7c5.7,2.1,8.6,8.4,6.5,14.1C286.6,635.8,282.4,638.6,277.9,638.6z" style="fill:url(#CerosGradient_idc10cc04dc);"/>
	<path class="st0-6140e1879125b" d="M573.3,208.3c-0.4,0-0.8,0-1.2-0.1c-44.2-4.8-74.4-33.4-77.1-73.1c-2.3-35.1,24.4-65.6,59.5-68   c29.3-2,54.8,20.3,56.7,49.7c1.6,24.7-17.1,46.1-41.8,47.7c-21,1.4-39.1-14.5-40.5-35.5c-1.2-18,12.5-33.6,30.4-34.8   c14.9-1,27.9,9.8,29.9,24.4c0-0.1,0-0.3,0-0.4c-1.1-17.2-16.1-30.3-33.3-29.2c-23,1.5-40.6,21.5-39,44.6   c1.5,22.6,17.4,48.3,57.5,52.7c6,0.6,10.4,6.1,9.8,12.1C583.6,204.1,578.9,208.3,573.3,208.3z M561.3,116.3c-0.1,0-0.3,0-0.4,0   c-5.9,0.4-10.3,5.5-9.9,11.3c0.6,8.8,8.3,15.5,17.1,15c9.8-0.6,17.7-7.4,20.4-16.2c-1.7,3.4-5.1,5.8-9.1,6   c-6.1,0.4-11.3-4.2-11.7-10.2C567.4,118.9,564.6,116.3,561.3,116.3z" style="fill:url(#CerosGradient_idc10cc04dc);"/>
	<path class="st0-6140e1879125b" d="M522.4,473.3c-2.7,0-5.4-0.2-8.1-0.5c-16.5-2.1-31.2-10.6-41.3-23.7c-12.2-15.9-17.6-35.6-15-55.5   c2.6-19.9,12.7-37.6,28.6-49.8c4.8-3.7,11.7-2.8,15.4,2c3.7,4.8,2.8,11.7-2,15.4c-11.2,8.7-18.4,21.2-20.2,35.2   c-1.8,14.1,1.9,28,10.6,39.2c6.6,8.5,16.1,14,26.7,15.4c10.7,1.4,21.2-1.5,29.8-8c13.1-10.1,15.6-29,5.4-42.1   c-7.3-9.5-21.1-11.3-30.6-4c-3.2,2.5-5.3,6.1-5.8,10.1c-0.5,4,0.6,8,3,11.3c1.6,2.1,4,3.5,6.6,3.8c2.6,0.3,5.3-0.4,7.4-2   c4.8-3.7,11.7-2.8,15.4,2c3.7,4.8,2.8,11.7-2,15.4c-6.8,5.2-15.2,7.5-23.6,6.4c-8.5-1.1-16-5.4-21.2-12.2   c-6.1-7.9-8.7-17.7-7.4-27.5c1.3-9.9,6.3-18.6,14.2-24.7c19.1-14.7,46.7-11.2,61.4,8c17.5,22.7,13.3,55.4-9.4,72.9   C549.3,468.8,536.1,473.3,522.4,473.3z" style="fill:url(#CerosGradient_idc10cc04dc);"/>
	<path class="st0-6140e1879125b" d="M452.9,161.7c-10,0-19.5-3.8-26.9-10.6c-7.7-7.2-12.1-16.9-12.4-27.4c-0.4-12.4,4-24.2,12.5-33.2   c8.5-9,20-14.2,32.4-14.6c14.8-0.5,28.8,4.8,39.6,14.9c10.8,10.1,17,23.8,17.4,38.5c0.2,6.1-4.6,11.2-10.6,11.3c-0.1,0-0.2,0-0.4,0   c-5.9,0-10.8-4.7-11-10.6c-0.3-8.9-4-17.1-10.5-23.2c-6.5-6.1-14.9-9.3-23.8-9c-6.5,0.2-12.6,2.9-17,7.7c-4.5,4.8-6.8,11-6.6,17.5   c0.1,4.6,2.1,8.9,5.5,12.1c3.4,3.2,7.8,4.8,12.4,4.7c3.1-0.1,6-1.4,8.1-3.7c2.1-2.3,3.2-5.2,3.1-8.4c-0.2-6.1,4.6-11.2,10.6-11.3   c6.1-0.2,11.2,4.6,11.3,10.6c0.3,9-2.9,17.5-9.1,24.1c-6.1,6.6-14.5,10.3-23.5,10.6C453.7,161.7,453.3,161.7,452.9,161.7z" style="fill:url(#CerosGradient_idc10cc04dc);"/>
	<path class="st0-6140e1879125b" d="M405.4,311.1c-4.7,0-9.4-0.9-13.9-2.6c-9.5-3.7-16.9-10.9-21-20.2c-4.8-11-5-23.1-0.7-34.3   c4.4-11.1,12.8-19.9,23.7-24.7c26.9-11.8,58.3,0.6,70.1,27.4c2.4,5.6-0.1,12.1-5.7,14.5c-5.6,2.4-12.1-0.1-14.5-5.7   c-6.9-15.8-25.3-23-41.1-16.1c-5.6,2.4-9.9,6.9-12.1,12.6c-2.2,5.7-2.1,11.8,0.3,17.4c1.7,3.9,4.9,6.9,8.8,8.5   c4,1.6,8.3,1.5,12.3-0.2c2.1-0.9,3.7-2.4,4.9-4.3c3.1-5.2,9.8-7,15.1-3.9c5.2,3.1,7,9.8,3.9,15.1c-3.5,5.9-8.7,10.5-15,13.3   C415.7,310,410.5,311.1,405.4,311.1z" style="fill:url(#CerosGradient_idc10cc04dc);"/>
	<path class="st0-6140e1879125b" d="M570.4,757.5c-0.1,0-0.1,0-0.2,0c-6.1-0.1-10.9-5.1-10.8-11.2c0.9-51-10.7-86.4-21.8-102.5   c-3.4-5-8.6-8.4-14.6-9.5c-6-1.1-12,0.2-17,3.6c-7.3,5-9.1,15-4.1,22.3c3.3,4.8,9.9,6,14.8,2.7c5-3.4,11.9-2.2,15.3,2.8   c3.4,5,2.2,11.9-2.8,15.3c-14.8,10.2-35.2,6.4-45.4-8.4c-11.9-17.3-7.5-41,9.8-52.9c9.9-6.8,21.7-9.3,33.5-7.1   c11.8,2.2,22,8.8,28.7,18.6c16.9,24.5,26.5,67.7,25.6,115.4C581.3,752.7,576.4,757.5,570.4,757.5z" style="fill:url(#CerosGradient_idc10cc04dc);"/>
	<path class="st0-6140e1879125b" d="M477.1,614.2c-7.5,0-14.9-1.5-22-4.4c-14-5.9-24.9-16.9-30.7-30.9c-10-24.4,1.7-52.3,26.1-62.3   c10-4.1,21-4,30.9,0.1c9.9,4.2,17.7,12,21.8,21.9c3.5,8.5,3.5,17.9-0.1,26.4c-3.6,8.5-10.2,15.1-18.7,18.6c-5.6,2.3-12-0.4-14.3-6   c-2.3-5.6,0.4-12,6-14.3c6.4-2.6,9.4-9.9,6.8-16.3c-1.9-4.5-5.4-8.1-9.9-10c-4.5-1.9-9.5-1.9-14.1-0.1c-6.4,2.6-11.3,7.5-14,13.9   c-2.7,6.3-2.7,13.3-0.1,19.7c3.5,8.6,10.2,15.4,18.8,19c8.6,3.6,18.1,3.6,26.7,0.1c23.7-9.7,35-36.8,25.3-60.5   c-6.1-15-17.8-26.7-32.7-33c-15-6.3-31.5-6.3-46.5-0.2c-19.4,8-34.6,23-42.7,42.4c-8.1,19.4-8.2,40.8-0.2,60.2   c2.3,5.6-0.4,12-6,14.3c-5.6,2.3-12-0.4-14.3-6c-10.2-24.9-10.1-52.2,0.3-77c10.4-24.8,29.8-44.1,54.7-54.3   c20.5-8.4,42.9-8.3,63.3,0.3c20.4,8.5,36.2,24.5,44.6,45c14.3,34.9-2.5,74.9-37.4,89.2C491.7,612.8,484.4,614.2,477.1,614.2z" style="fill:url(#CerosGradient_idc10cc04dc);"/>
	<path class="st0-6140e1879125b" d="M698.1,1110.5c-2.5,0-5.1-0.9-7.2-2.7c-36.1-31.2-64-111.6-82.9-238.7c-4.2-28.3-6.3-71.5,7.4-116.5   c8.3-27.4,18.7-42.6,19.1-43.2c0.1-0.1,0.2-0.2,0.3-0.4c29.3-39.1,82.1-52.5,143.3-68c68.7-17.4,154.2-39.1,236.9-104.4   c39.4-31.2,47.8-86.1,19.1-125c-11-14.9-27.1-24.6-45.3-27.3c-18.3-2.8-36.5,1.8-51.4,12.7c-11.4,8.4-18.9,20.8-21,34.8   c-2.1,14,1.4,28.1,9.8,39.5c6.4,8.7,15.8,14.3,26.4,15.9c10.7,1.6,21.3-1,29.9-7.4c6.5-4.8,10.7-11.8,11.9-19.7   c1.2-7.9-0.8-15.9-5.5-22.3c-7.2-9.7-20.9-11.8-30.5-4.6c-6.8,5-8.2,14.6-3.2,21.4c3.6,4.9,2.6,11.8-2.3,15.4   c-4.9,3.6-11.8,2.6-15.4-2.3c-12.2-16.5-8.7-39.9,7.9-52.1c19.5-14.4,47-10.2,61.3,9.2c8.3,11.2,11.7,24.9,9.6,38.7   c-2.1,13.7-9.4,25.9-20.6,34.1c-13.4,9.9-29.8,14-46.3,11.5c-16.5-2.5-31-11.2-40.8-24.6c-24.6-33.3-17.5-80.5,15.8-105.1   c19.6-14.5,43.7-20.4,67.7-16.8c24.1,3.6,45.3,16.4,59.8,36c35.8,48.5,25.6,116.7-23.2,155.3c-86.4,68.3-174.4,90.6-245.2,108.5   c-59.3,15-106.2,26.9-130.9,59.6c-1,1.5-9.5,14.9-16.4,38c-6.7,22.5-13.3,59.2-6.4,105.9c22.5,151.7,53.5,206.2,75.5,225.3   c4.6,4,5.1,10.9,1.1,15.5C704.3,1109.2,701.2,1110.5,698.1,1110.5z" style="fill:url(#CerosGradient_idc10cc04dc);"/>
	<path class="st0-6140e1879125b" d="M675.5,698.4c-3.9,0-7.6-2-9.6-5.7c-3-5.3-1-12,4.3-15c0.5-0.3,46.1-25.8,67.4-52.1   c20.5-25.2,25.2-75.5,12-128.1c-2.1-8.6-4.2-16.4-6-23.7c-10.4-40.5-16.6-64.9-15.5-95.9c2-55.8,47.9-75.9,49.9-76.7   c0.1,0,0.2-0.1,0.3-0.1c55-21.3,66.3-59.5,66.3-110.2c0-31.2-25.4-56.6-56.6-56.6c-23.8,0-43.1,19.3-43.1,43.1   c0,17.8,14.5,32.3,32.3,32.3c13,0,23.6-10.6,23.6-23.6c0-9.2-7.5-16.7-16.7-16.7c-6.1,0-11-4.9-11-11s4.9-11,11-11   c21.3,0,38.7,17.4,38.7,38.7c0,25.2-20.5,45.6-45.6,45.6c-29.9,0-54.3-24.3-54.3-54.3c0-35.9,29.2-65.1,65.1-65.1   c43.4,0,78.6,35.3,78.6,78.6c0,49.2-9.5,103.1-80.1,130.6c-2.4,1.1-34.9,16.4-36.4,57.2c-1,27.8,4.6,49.8,14.8,89.7   c1.9,7.3,3.9,15.2,6,23.8c15,60.1,8.8,116.5-16.3,147.4c-24,29.6-71.8,56.3-73.8,57.4C679.1,697.9,677.3,698.4,675.5,698.4z" style="fill:url(#CerosGradient_idc10cc04dc);"/>
	<path class="st0-6140e1879125b" d="M920.5,351.8c-10.4,0-20.5-2.9-29.5-8.6c-12.5-7.9-21.2-20.2-24.4-34.7c-2.7-12.1-0.6-24.6,6.1-35.1   c6.6-10.5,17-17.8,29.1-20.5c21.2-4.8,42.4,8.6,47.1,29.8c4.1,18.2-7.4,36.2-25.5,40.3c-5.9,1.3-11.8-2.4-13.1-8.3   c-1.3-5.9,2.4-11.8,8.3-13.1c6.3-1.4,10.3-7.7,8.9-14c-1-4.5-3.8-8.4-7.7-10.9c-3.9-2.5-8.6-3.3-13.1-2.3   c-6.4,1.4-11.8,5.3-15.4,10.8c-3.5,5.5-4.6,12.1-3.2,18.5c2,8.7,7.2,16.1,14.7,20.9c7.5,4.8,16.5,6.3,25.2,4.4   c11.6-2.6,21.5-9.6,27.9-19.6c6.4-10.1,8.4-22,5.8-33.6c-3.4-15.2-12.6-28.2-25.8-36.5s-28.8-11-44.1-7.6   c-12.7,2.9-24.5,9-34.1,17.6c-4.5,4.1-11.5,3.7-15.5-0.8c-4.1-4.5-3.7-11.5,0.8-15.5c12.4-11.2,27.6-19.1,44-22.8   c21-4.7,42.5-1,60.6,10.5c18.2,11.5,30.8,29.3,35.5,50.3c3.9,17.3,0.8,35.2-8.7,50.2c-9.5,15-24.3,25.4-41.6,29.3   C928.7,351.4,924.5,351.8,920.5,351.8z" style="fill:url(#CerosGradient_idc10cc04dc);"/>
	<path class="st0-6140e1879125b" d="M824.3,468.3c-18.4,0-36.6-7.8-49.2-23c-18.8-22.6-15.7-56.3,6.9-75.2c19-15.8,47.4-13.2,63.2,5.8   c6.5,7.8,9.6,17.7,8.7,27.9c-0.9,10.1-5.8,19.3-13.6,25.8c-6.7,5.6-15.2,8.2-23.9,7.4c-8.7-0.8-16.6-4.9-22.1-11.6   c-3.9-4.7-3.2-11.6,1.4-15.5c4.7-3.9,11.6-3.2,15.5,1.4c1.8,2.2,4.4,3.5,7.2,3.8c2.8,0.3,5.6-0.6,7.8-2.4c3.3-2.8,5.3-6.6,5.7-10.9   c0.4-4.3-0.9-8.5-3.7-11.8c-8.1-9.7-22.5-11-32.2-3c-13.3,11.1-15.1,30.9-4.1,44.2c14.8,17.8,41.3,20.2,59.1,5.4   c11.3-9.4,18.3-22.7,19.7-37.4c1.3-14.7-3.1-29-12.5-40.3c-12.3-14.7-29.5-23.8-48.6-25.6c-19.1-1.8-37.7,4-52.4,16.3   c-4.7,3.9-11.6,3.2-15.5-1.4c-3.9-4.7-3.2-11.6,1.4-15.5c19.2-16,43.6-23.6,68.5-21.3c24.9,2.3,47.5,14.2,63.5,33.4   c27.2,32.7,22.7,81.5-10,108.7C853.2,463.5,838.7,468.3,824.3,468.3z" style="fill:url(#CerosGradient_idc10cc04dc);"/>
	<path class="st0-6140e1879125b" d="M866,638.6c-4.5,0-8.7-2.8-10.3-7.2c-2.1-5.7,0.8-12,6.5-14.1c26.6-9.8,45.1-34.4,46.9-62.7   c1-14.7-3.8-28.9-13.6-40c-9.7-11.1-23.2-17.7-37.9-18.7c-23.1-1.5-43.1,16-44.7,39.1c-0.6,8.4,2.2,16.4,7.7,22.8   c5.5,6.3,13.2,10.1,21.5,10.6c6.1,0.4,12-1.6,16.6-5.6c4.6-4,7.4-9.6,7.8-15.7c0.3-4.3-1.1-8.5-4-11.7c-2.8-3.2-6.8-5.2-11.1-5.5   c-5.9-0.4-11,4.1-11.4,10c-0.4,6.1-5.6,10.7-11.7,10.2c-6.1-0.4-10.7-5.6-10.2-11.7c1.2-18,16.8-31.7,34.8-30.5   c10.2,0.7,19.5,5.3,26.2,12.9c6.7,7.7,10,17.5,9.4,27.6c-0.8,12-6.2,22.9-15.2,30.8c-9,7.9-20.6,11.8-32.6,11   c-14.2-0.9-27.2-7.4-36.6-18.1c-9.4-10.7-14-24.5-13.1-38.7c1.1-17.1,8.8-32.6,21.7-43.9c12.9-11.3,29.3-16.8,46.4-15.7   c42.5,2.8,74.8,39.7,72,82.2c-2.5,37-26.5,69.1-61.3,81.9C868.5,638.4,867.2,638.6,866,638.6z" style="fill:url(#CerosGradient_idc10cc04dc);"/>
	<path class="st0-6140e1879125b" d="M683.8,446.1c-6.4,0-12.9-1.7-18.8-5.3c-9.6-5.9-16.3-15.2-18.9-26.1c-2.6-10.9-0.8-22.2,5.1-31.8   c14.4-23.4,45.2-30.7,68.6-16.3c16.6,10.2,28,30.7,35.9,64.4c1.4,5.9-2.3,11.8-8.2,13.2c-5.9,1.4-11.8-2.3-13.2-8.2   c-6.3-26.8-15-43.9-26-50.6c-6.3-3.9-13.8-5.1-21-3.4c-7.2,1.7-13.4,6.1-17.3,12.5c-5.8,9.4-2.9,21.8,6.6,27.6   c6.5,4,15.1,2,19.1-4.5c3.2-5.2,10-6.8,15.1-3.6c5.2,3.2,6.8,10,3.6,15.1C707.6,440,695.8,446.1,683.8,446.1z" style="fill:url(#CerosGradient_idc10cc04dc);"/>
	<path class="st0-6140e1879125b" d="M666.4,203.6c-4.6,0-9.3-0.7-14-2.1c-14.7-4.5-26.8-14.4-34-28s-8.8-29.1-4.3-43.8   c5.4-17.7,17.3-32.2,33.6-40.9c16.3-8.7,35-10.5,52.7-5.2c27,8.2,48,29.3,56,56.5c1.7,5.8-1.6,11.9-7.4,13.7   c-5.8,1.7-11.9-1.6-13.7-7.4c-5.9-20-21.4-35.6-41.3-41.6c-12.1-3.7-24.8-2.4-36,3.5c-11.1,5.9-19.3,15.9-22.9,27.9   c-2.8,9.1-1.8,18.7,2.7,27.1c4.5,8.4,11.9,14.5,21,17.3c13.8,4.2,28.5-3.6,32.7-17.5c3-9.9-2.6-20.4-12.5-23.5   c-6.8-2.1-14,1.8-16,8.6c-1.8,5.8-7.9,9.1-13.7,7.3c-5.8-1.8-9.1-7.9-7.3-13.7c5.6-18.4,25.1-28.8,43.5-23.2   c21.5,6.5,33.7,29.4,27.2,50.9C706.3,190.2,687.1,203.6,666.4,203.6z" style="fill:url(#CerosGradient_idc10cc04dc);"/>
	<path class="st0-6140e1879125b" d="M712.1,327.4c-6.1,0-12.3-1.3-18.1-4c-9.1-4.1-16-11.6-19.5-20.9c-3.5-9.3-3.1-19.5,1-28.5   c2.5-5.5,9-8,14.6-5.4c5.5,2.5,8,9,5.4,14.6c-1.7,3.7-1.8,7.9-0.4,11.7c1.4,3.8,4.3,6.9,8,8.6c11,5,24,0.2,29-10.8   c3.3-7.3,3.6-15.5,0.8-23c-2.8-7.5-8.4-13.5-15.7-16.9c-20.2-9.2-44.2-0.3-53.5,20c-2.5,5.5-9,8-14.6,5.4c-5.5-2.5-8-9-5.4-14.6   c14.3-31.3,51.3-45.1,82.6-30.9c12.7,5.8,22.3,16.1,27.2,29.2c4.9,13,4.4,27.2-1.4,39.8C744.7,317.8,728.8,327.4,712.1,327.4z" style="fill:url(#CerosGradient_idc10cc04dc);"/>
	<path class="st0-6140e1879125b" d="M570.8,757.5c-6,0-10.9-4.8-11-10.8c-0.8-47.7,8.8-90.9,25.6-115.4c6.8-9.9,17-16.5,28.7-18.6   c11.8-2.2,23.7,0.4,33.5,7.1c17.3,11.9,21.6,35.6,9.8,52.9c-10.2,14.8-30.5,18.6-45.4,8.4c-5-3.4-6.3-10.3-2.8-15.3   c3.4-5,10.3-6.3,15.3-2.8c4.8,3.3,11.4,2.1,14.8-2.7c5-7.3,3.2-17.3-4.1-22.3c-5-3.4-11.1-4.7-17-3.6c-6,1.1-11.2,4.5-14.6,9.5   c-11.1,16.1-22.6,51.5-21.8,102.5c0.1,6.1-4.7,11.1-10.8,11.2C571,757.5,570.9,757.5,570.8,757.5z" style="fill:url(#CerosGradient_idc10cc04dc);"/>
	<path class="st0-6140e1879125b" d="M666.7,614.2c-7.2,0-14.5-1.4-21.5-4.2c-34.9-14.3-51.7-54.3-37.4-89.2c8.4-20.5,24.2-36.4,44.6-45   c20.4-8.5,42.9-8.6,63.3-0.3c24.9,10.2,44.3,29.5,54.7,54.3c10.4,24.8,10.5,52.2,0.3,77c-2.3,5.6-8.7,8.3-14.3,6   c-5.6-2.3-8.3-8.7-6-14.3c8-19.4,7.9-40.8-0.2-60.2c-8.1-19.4-23.3-34.4-42.7-42.4c-15-6.1-31.5-6.1-46.5,0.2   c-15,6.3-26.6,18-32.7,33c-9.7,23.7,1.7,50.8,25.3,60.5c8.6,3.5,18.1,3.5,26.7-0.1c8.6-3.6,15.3-10.3,18.8-19   c2.6-6.4,2.6-13.4-0.1-19.7c-2.7-6.3-7.6-11.3-14-13.9c-9.4-3.8-20.1,0.7-24,10c-2.6,6.4,0.5,13.7,6.8,16.3c5.6,2.3,8.3,8.7,6,14.3   c-2.3,5.6-8.7,8.3-14.3,6c-17.6-7.2-26.1-27.4-18.9-45c4.1-10,11.8-17.8,21.8-21.9c9.9-4.2,20.9-4.2,30.9-0.1   c11.8,4.8,21,14,25.9,25.7c4.9,11.8,5,24.7,0.1,36.5C710.4,600.9,689.1,614.2,666.7,614.2z" style="fill:url(#CerosGradient_idc10cc04dc);"/>
	<g>
		<path class="st0-6140e1879125b" d="M494.5,1122c-2.4,0-4.8-0.8-6.8-2.4c-4.8-3.8-5.5-10.7-1.8-15.5c12.4-15.5,24.4-35.3,35.8-58.9    c37.3-77.2,37.8-283,37.8-285.1c0-6.1,4.9-11,11-11l0,0c6.1,0,11,4.9,11,11c0,0.5-0.1,53.5-4.9,115.7    c-6.6,84.2-18.3,144.4-35.1,179c-12.1,25-25,46.2-38.3,63C500.9,1120.6,497.7,1122,494.5,1122z" style="fill:url(#CerosGradient_idc10cc04dc);"/>
		<path class="st0-6140e1879125b" d="M642.8,1123.2c-3.2,0-6.4-1.4-8.6-4.1c-13.7-17-27-38.6-39.4-64.2c-16.7-34.6-27.9-94.9-33.3-179.2    c-4-62.1-3.1-115.2-3.1-115.7c0.1-6,5-10.8,11-10.8c0.1,0,0.1,0,0.2,0c6.1,0.1,10.9,5.1,10.8,11.2c0,2.1-3,207.8,34.2,284.9    c11.7,24.1,24,44.3,36.7,60c3.8,4.7,3.1,11.7-1.7,15.5C647.7,1122.4,645.3,1123.2,642.8,1123.2z" style="fill:url(#CerosGradient_idc10cc04dc);"/>
	</g>
</g>
</svg>