<!-- Generator: Adobe Illustrator 25.2.3, SVG Export Plug-In  --><svg xmlns="http://www.w3.org/2000/svg" xmlns:xlink="http://www.w3.org/1999/xlink" version="1.1" x="0px" y="0px" width="529px" height="521px" viewBox="0 0 529.5 521.8" style="overflow:visible;enable-background:new 0 0 529.5 521.8;fill:url(#CerosGradient_idf797458fa);" xml:space="preserve" aria-hidden="true">
<style type="text/css">
	.st0-61323b5137661{fill:#292929;}
</style>
<defs><linearGradient class="cerosgradient" data-cerosgradient="true" id="CerosGradient_idf797458fa" gradientUnits="userSpaceOnUse" x1="50%" y1="100%" x2="50%" y2="0%"><stop offset="0%" stop-color="#0099A8"/><stop offset="100%" stop-color="#0099A8"/></linearGradient><linearGradient/>
</defs>
<path class="st0-61323b5137661" d="M261.6,1.6c8.5,0.3,16.6-0.1,24.7-0.7c2.5-0.2,5-0.2,7.4-0.3c0.5,0,1.1,0,1.6,0c14.5,0.1,28.9-0.3,43.4-0.6  c10.8-0.2,21.6,0.8,32.1,3.2c13.6,3.1,25.9,8.8,36.6,17.8c5.4,4.5,10.6,9.2,15.8,13.9c6.2,5.6,12.3,11.2,18.4,16.9  c8.3,7.8,15.6,16.5,22,25.9c14.5,21.3,28.3,43.1,40.8,65.7c10.6,19.3,18,39.7,22.1,61.3c1.1,5.8,1.8,11.7,2.3,17.7  c0.9,11,0.9,22,0.5,33c-0.3,9.2-1.2,18.3-2.4,27.4c-1.6,12.3-3.8,24.5-6.2,36.7c-3,14.7-7.2,29.1-12.3,43.2  c-3.2,8.9-6.6,17.8-10,26.6c-4.9,12.3-12,23.1-20.8,33c-14,15.7-29.5,29.7-47.3,41.1c-3.3,2.1-6.5,4.2-9.8,6.4  c-9.7,6.3-19.9,11.8-30.4,16.5c-7.9,3.5-15.8,7-23.6,10.7c-13.4,6.2-27.3,10.8-41.6,14.2c-13.2,3.2-26.6,5.8-40,7.7  c-7.4,1-14.8,2-22.2,2.6c-17.8,1.4-34.8-1.7-51-9.3c-8.3-3.9-16.3-8.5-23.8-13.7c-11-7.5-21.9-15-32.8-22.7  c-13.1-9.2-26.4-18-40.2-26c-15-8.6-28.7-18.8-41.5-30.3c-4.8-4.3-9.6-8.7-14.4-13.1c-15.1-13.9-26.3-30.5-34.3-49.4  c-8.3-19.6-14.2-39.8-18.1-60.7c-2.4-13-4.3-26-5.6-39.1c-1.2-12.2-1.3-24.4-0.4-36.6c0.8-11.5,2.4-23,4.1-34.4  c1.8-11.9,5.1-23.4,10.5-34.2c1.1-2.2,2-4.5,3-6.8c6.3-15.1,14.8-29,25-41.8C49.6,95.7,56,88,63,80.8c2.7-2.8,5.2-5.8,7.8-8.7  c5.8-6.5,11.9-12.6,18.3-18.4c7.2-6.5,15.3-11.6,24.2-15.4c9.6-4.1,19.2-8.2,28.9-12.3c6.2-2.6,12.5-4.7,18.9-6.8  c10.8-3.4,21.5-7,32.4-10.3c7.2-2.2,14.7-3.5,22.2-4.5c11.4-1.5,22.8-2.3,34.2-2.8C253.8,1.5,258,1.6,261.6,1.6z" style="fill:url(#CerosGradient_idf797458fa);"/>
</svg>