<!-- Generator: Adobe Illustrator 25.2.3, SVG Export Plug-In  --><svg xmlns="http://www.w3.org/2000/svg" xmlns:xlink="http://www.w3.org/1999/xlink" version="1.1" x="0px" y="0px" width="1131px" height="1131px" viewBox="0 0 1131.1 1131.1" style="overflow:visible;enable-background:new 0 0 1131.1 1131.1;fill:url(#CerosGradient_idb8f8b7f17);" xml:space="preserve" aria-hidden="true">
<style type="text/css">
	.st0-6140e14e91259{fill:#B28338;}
</style>
<defs><linearGradient class="cerosgradient" data-cerosgradient="true" id="CerosGradient_idb8f8b7f17" gradientUnits="userSpaceOnUse" x1="50%" y1="100%" x2="50%" y2="0%"><stop offset="0%" stop-color="#F3D47B"/><stop offset="100%" stop-color="#F3D47B"/></linearGradient><linearGradient/>
</defs>
<g>
	<g>
		<path class="st0-6140e14e91259" d="M565.5,1131.1c-76.3,0-150.4-15-220.1-44.4c-67.3-28.5-127.8-69.3-179.8-121.2    C113.7,913.5,72.9,853,44.4,785.7C15,715.9,0,641.9,0,565.5c0-76.3,15-150.4,44.4-220.1c28.5-67.3,69.3-127.8,121.2-179.8    c51.9-51.9,112.4-92.7,179.8-121.2C415.1,15,489.2,0,565.5,0c76.3,0,150.4,15,220.1,44.4c67.3,28.5,127.8,69.3,179.8,121.2    c51.9,51.9,92.7,112.4,121.2,179.8c29.5,69.7,44.4,143.8,44.4,220.1c0,76.3-15,150.4-44.4,220.1    c-28.5,67.3-69.3,127.8-121.2,179.8c-51.9,51.9-112.4,92.7-179.8,121.2C715.9,1116.1,641.9,1131.1,565.5,1131.1z M565.5,22    C492.1,22,421,36.4,354,64.7c-64.7,27.4-122.8,66.6-172.8,116.5c-49.9,49.9-89.1,108-116.5,172.8C36.4,421,22,492.1,22,565.5    c0,73.4,14.4,144.6,42.7,211.6c27.4,64.7,66.6,122.8,116.5,172.8c49.9,49.9,108,89.1,172.8,116.5c67,28.3,138.2,42.7,211.6,42.7    c73.4,0,144.6-14.4,211.6-42.7c64.7-27.4,122.8-66.6,172.8-116.5c49.9-49.9,89.1-108,116.5-172.8c28.3-67,42.7-138.2,42.7-211.6    S1094.7,421,1066.3,354c-27.4-64.7-66.6-122.8-116.5-172.8c-49.9-49.9-108-89.1-172.8-116.5C710.1,36.4,638.9,22,565.5,22z" style="fill:url(#CerosGradient_idb8f8b7f17);"/>
		<g>
			<path class="st0-6140e14e91259" d="M478.2,1120.7c-0.2,0-0.5,0-0.7,0c-6.1-0.4-10.7-5.6-10.3-11.7l38.4-615.7l-385.6-257     c-5.1-3.4-6.4-10.2-3.1-15.3c3.4-5.1,10.2-6.4,15.3-3.1l390.8,260.6c3.3,2.2,5.1,5.9,4.9,9.8l-38.8,622.1     C488.8,1116.2,484,1120.7,478.2,1120.7z" style="fill:url(#CerosGradient_idb8f8b7f17);"/>
			<path class="st0-6140e14e91259" d="M499.4,786.8c-0.1,0-0.2,0-0.4,0c-6.1-0.2-10.8-5.3-10.6-11.4c1.4-42.5-32.8-79.3-61.9-102.7     c-32.5-26.2-65.6-41.8-66-42l-343-160.4c-5.5-2.6-7.9-9.1-5.3-14.6c2.6-5.5,9.1-7.9,14.6-5.3l343,160.4     c1.4,0.7,35.9,16.9,70.5,44.8c20.6,16.6,36.9,34,48.5,51.5c15,22.7,22.3,46,21.5,69.1C510.2,782.1,505.3,786.8,499.4,786.8z" style="fill:url(#CerosGradient_idb8f8b7f17);"/>
			<path class="st0-6140e14e91259" d="M378,403c-1.4,0-2.7-0.3-4.1-0.8c-5.6-2.2-8.4-8.6-6.2-14.3c0.2-0.5,19.4-50.5,4.1-114.2     c-28.4-119-109.5-160.8-110.3-161.2c-5.4-2.7-7.6-9.3-4.9-14.8c2.7-5.4,9.3-7.6,14.8-4.9c0.9,0.5,23.5,11.9,49.8,39.4     c24,25.1,56,69.1,72,136.3c16.9,70.7-4.2,125.1-5.1,127.4C386.5,400.4,382.4,403,378,403z" style="fill:url(#CerosGradient_idb8f8b7f17);"/>
			<path class="st0-6140e14e91259" d="M197.4,330.6c-9.2,0-19.4-0.7-30.7-2.4c-56.4-8.4-85.4-33.8-86.6-34.9c-4.5-4.1-4.9-11-0.8-15.5     c4-4.5,11-4.9,15.5-0.9c0.2,0.2,6.6,5.7,18.8,12c11.4,5.9,30.5,13.7,56.3,17.5c25.4,3.8,44.1,1.8,55.2-0.5     c12-2.5,18.2-5.9,18.2-5.9l-0.1,0.1l11.2,19C253.4,319.7,234.3,330.6,197.4,330.6z" style="fill:url(#CerosGradient_idb8f8b7f17);"/>
			<path class="st0-6140e14e91259" d="M115.3,603.8c-63.4,0-108.2-27.8-110.2-29c-5.1-3.2-6.7-10-3.5-15.2c3.2-5.1,10-6.7,15.2-3.5l0,0     c0.4,0.3,43.9,27,103.2,25.6c58.8-1.4,95.6-30,96-30.2c4.8-3.8,11.7-3,15.4,1.8c3.8,4.7,3,11.6-1.7,15.4     c-1.7,1.4-42.6,33.4-109.1,35C118.8,603.8,117,603.8,115.3,603.8z" style="fill:url(#CerosGradient_idb8f8b7f17);"/>
			<path class="st0-6140e14e91259" d="M190.7,690.3c-35.2,0-62.8-6.8-64.6-7.3c-5.9-1.5-9.5-7.5-8-13.4c1.5-5.9,7.5-9.5,13.4-8l0,0     c0.7,0.2,70.6,17.3,125.8-4.6c46.8-18.6,74.6-51.3,74.9-51.6c3.9-4.7,10.8-5.3,15.5-1.4c4.7,3.9,5.3,10.8,1.4,15.5     c-1.3,1.5-31.7,37.3-83.6,57.9C240.6,687.4,214,690.3,190.7,690.3z" style="fill:url(#CerosGradient_idb8f8b7f17);"/>
			<path class="st0-6140e14e91259" d="M315.3,471.1c-18.2,0-38.1-1.5-59.8-5.3c-67-11.6-121-36.9-154.5-56c-36.5-20.8-57-38.7-57.9-39.5     c-4.6-4-5-11-1-15.5c4-4.6,11-5,15.5-1c1.2,1,80.1,69.2,201.6,90.3C360.4,461.7,423,426.4,423.6,426c5.3-3,12-1.2,15,4     c3,5.3,1.2,12-4,15C432.4,446.4,388.6,471.1,315.3,471.1z" style="fill:url(#CerosGradient_idb8f8b7f17);"/>
		</g>
		<g>
			<path class="st0-6140e14e91259" d="M652.4,1120.7c-5.8,0-10.6-4.5-11-10.3l-36.9-622.1c-0.2-3.9,1.6-7.6,4.9-9.8l387.6-259.4     c5-3.4,11.9-2,15.3,3c3.4,5,2,11.9-3,15.3L626.9,493.3l36.5,615.8c0.4,6.1-4.3,11.3-10.3,11.6     C652.9,1120.7,652.7,1120.7,652.4,1120.7z" style="fill:url(#CerosGradient_idb8f8b7f17);"/>
			<path class="st0-6140e14e91259" d="M633.2,786.8c-5.9,0-10.8-4.7-11-10.6c-0.8-23.1,6.5-46.3,21.5-69.1c11.6-17.6,28-34.9,48.5-51.5     c34.6-27.9,69-44.1,70.5-44.8l341.7-159.5c5.5-2.6,12.1-0.2,14.6,5.3c2.6,5.5,0.2,12.1-5.3,14.6L772,630.7     c-1.3,0.6-130.6,62.1-127.8,144.8c0.2,6.1-4.6,11.2-10.6,11.4C633.4,786.8,633.3,786.8,633.2,786.8z" style="fill:url(#CerosGradient_idb8f8b7f17);"/>
			<path class="st0-6140e14e91259" d="M754.6,403c-5.4,0-10.1-3.9-10.9-9.4c-0.4-2.9-10-71.4,18.3-132.6c47.5-102.7,111.6-146.8,114.3-148.6     c5-3.4,11.9-2.1,15.3,2.9c3.4,5,2.1,11.9-2.9,15.3l0,0c-0.6,0.4-61.8,42.9-106.6,139.6c-25.6,55.3-16.6,119.5-16.5,120.2     c0.9,6-3.3,11.6-9.3,12.5C755.6,403,755.1,403,754.6,403z" style="fill:url(#CerosGradient_idb8f8b7f17);"/>
			<path class="st0-6140e14e91259" d="M935.2,330.6c-36.9,0-56-11-57-11.5l11.2-19l-0.1-0.1c0.1,0,6.2,3.4,18.2,5.9c11.2,2.3,29.8,4.3,55.2,0.5     c25.8-3.8,44.3-11,55.2-16.4c11.8-5.8,17.6-10.7,17.7-10.8c4.6-4,11.5-3.6,15.5,1c4,4.6,3.6,11.5-1,15.5     c-1.1,1-27.8,24-84.2,32.4C954.6,330,944.3,330.6,935.2,330.6z" style="fill:url(#CerosGradient_idb8f8b7f17);"/>
			<path class="st0-6140e14e91259" d="M1018,603.8c-2,0-3.9,0-5.9-0.1c-66.5-1.6-107.4-33.7-109.1-35c-4.7-3.8-5.5-10.7-1.7-15.5     c3.8-4.7,10.7-5.5,15.5-1.7c0.3,0.3,37.2,28.8,95.9,30.2c59.8,1.5,100.1-21.8,100.5-22.1c5.2-3.1,12-1.3,15.1,3.9     c3.1,5.2,1.3,12-3.9,15.1C1122.4,579.7,1080.6,603.8,1018,603.8z" style="fill:url(#CerosGradient_idb8f8b7f17);"/>
			<path class="st0-6140e14e91259" d="M889.8,688c-0.6,0-1.2-0.1-1.9-0.2c-88-15-105.6-69.7-106.4-72.1l21-6.4l0-0.1c0,0.1,3.7,11.1,16.3,23.5     c16.8,16.6,42,28.1,72.7,33.4c6,1,10,6.7,9,12.7C899.7,684.2,895,688,889.8,688z" style="fill:url(#CerosGradient_idb8f8b7f17);"/>
			<path class="st0-6140e14e91259" d="M817.3,471.1c-73.3,0-117.1-24.7-119.3-26c-5.3-3-7.1-9.8-4-15c3-5.3,9.8-7.1,15-4c0.1,0.1,16,9,44.1,15.7     c25.9,6.1,67.7,11.5,120.2,2.4c121.9-21.2,199.2-85.6,200-86.3c4.6-3.9,11.6-3.3,15.5,1.3c3.9,4.6,3.4,11.6-1.3,15.5     c-0.8,0.7-20.9,17.6-57,37.4c-33.1,18.1-86.6,42.2-153.5,53.8C855.4,469.5,835.4,471.1,817.3,471.1z" style="fill:url(#CerosGradient_idb8f8b7f17);"/>
		</g>
		<path class="st0-6140e14e91259" d="M565.4,445.8c-1.5,0-3.1-0.3-4.5-1c-3-1.3-5.3-4-6.1-7.1L442.4,25.4c-1.6-5.9,1.9-11.9,7.7-13.5    c5.9-1.6,11.9,1.9,13.5,7.7l108.3,397c5.8-5.1,13.6-12.7,22.7-24c33.7-41.9,58.3-99.7,73-140.9c14-39.3,32.1-98.8,38.3-159    c3.7-35.9,1.4-55.3,1.3-55.5c-0.8-6,3.5-11.5,9.5-12.3c6-0.8,11.5,3.5,12.3,9.5c0.4,3.3,10,82.8-40.7,224.7    c-54.4,152.4-115.3,184.3-117.9,185.6C568.8,445.5,567.1,445.8,565.4,445.8z" style="fill:url(#CerosGradient_idb8f8b7f17);"/>
		<path class="st0-6140e14e91259" d="M517.7,272.9c-1,0-1.9-0.1-2.9-0.4c-1.5-0.4-37.5-10.5-77-48c-58.9-55.9-73.6-170.5-74.2-175.3    c-0.7-6,3.5-11.5,9.6-12.3c6-0.7,11.5,3.5,12.3,9.6c0.2,1.3,14.5,111.6,67.5,162c35.2,33.4,67.3,42.6,67.6,42.7    c5.8,1.6,9.3,7.7,7.7,13.5C526.9,269.7,522.5,272.9,517.7,272.9z" style="fill:url(#CerosGradient_idb8f8b7f17);"/>
		<path class="st0-6140e14e91259" d="M637.2,340.2c-2.7-2-26.7-21.4-46.5-87.9c-10.4-34.8-13.3-85.2-8.8-149.7c3.4-47.6,9.6-84.7,9.9-86.3    c1-6,6.7-10,12.7-9c6,1,10,6.7,9,12.7c-0.2,1.5-24.8,148.7-1.7,226.1c14.2,47.5,31.5,70.9,38.7,76.7l-0.1-0.1L637.2,340.2z" style="fill:url(#CerosGradient_idb8f8b7f17);"/>
		<path class="st0-6140e14e91259" d="M427.9,670.7c-1.6,0-3.1-0.3-4.7-1c-5.5-2.6-7.9-9.1-5.3-14.6c0.2-0.3,16.8-37.4,5.6-84.8    c-5.8-24.6-13.7-39.1-19.3-46.9c-5.9-8.3-10.5-11-10.5-11c0.2,0.1,0.3,0.1,0.3,0.1l9.8-19.7c2.8,1.4,27.6,15.3,41.2,72.4    c13.1,55.1-6.3,97.4-7.1,99.2C436,668.3,432,670.7,427.9,670.7z" style="fill:url(#CerosGradient_idb8f8b7f17);"/>
		<path class="st0-6140e14e91259" d="M687.7,683.2c-5.2,0-9.8-3.7-10.8-9c-0.3-1.7-7.5-41.4,12.6-72.7c13.9-21.7,28-32.2,42.9-43.3    c10-7.5,20.4-15.2,32.6-27.4c4.3-4.3,11.3-4.3,15.6,0c4.3,4.3,4.3,11.3,0,15.6c-13.3,13.3-24.9,21.9-35,29.5    c-14.4,10.7-25.8,19.2-37.5,37.5c-15.4,24-9.5,56.5-9.5,56.8c1.1,6-2.8,11.7-8.8,12.8C689.1,683.1,688.4,683.2,687.7,683.2z" style="fill:url(#CerosGradient_idb8f8b7f17);"/>
	</g>
	<path class="st0-6140e14e91259" d="M364.1,256.5c-17.3,0-52.8-2.9-87.7-23.6c-46.6-27.6-77.3-73.1-78.6-75.1c-3.4-5.1-2-11.9,3.1-15.3   c5-3.4,11.9-2,15.2,3l0,0c0.3,0.4,29.3,43.3,71.5,68.3c41.1,24.4,84.5,20.2,84.9,20.2c6-0.6,11.4,3.8,12.1,9.8   c0.6,6-3.7,11.4-9.8,12.1C374.3,256.1,370.4,256.5,364.1,256.5z" style="fill:url(#CerosGradient_idb8f8b7f17);"/>
	<path class="st0-6140e14e91259" d="M539.4,388.6c-10.7,0-29.9-3.8-58.2-23.3c-42.7-29.4-49.3-71.1-49.6-72.9c-0.9-6,3.3-11.6,9.3-12.5   c6-0.9,11.6,3.2,12.5,9.2c0.2,1.5,5.8,34.3,40.3,58c32.2,22.2,48,19.3,48.1,19.3c5.7-2,12,1,14,6.8c2,5.7-1,12-6.8,14   C547.8,387.7,544.6,388.6,539.4,388.6z" style="fill:url(#CerosGradient_idb8f8b7f17);"/>
	<path class="st0-6140e14e91259" d="M222.9,458.2c-0.5,0-0.9,0-1.4-0.1c-6-0.8-10.3-6.3-9.6-12.3c0-0.1,1.9-16.7-3.4-30.7   c-9.7-25.5-28.2-40-28.4-40.1c-4.8-3.7-5.7-10.6-2-15.4c3.7-4.8,10.6-5.7,15.4-2.1c1,0.7,23.6,18.3,35.6,49.8   c7.3,19.2,4.7,40.4,4.6,41.2C233.1,454.1,228.4,458.2,222.9,458.2z" style="fill:url(#CerosGradient_idb8f8b7f17);"/>
	<path class="st0-6140e14e91259" d="M784,242.2c-4.8,0-9.2-3.1-10.6-8c-0.5-1.8-12.2-43.4-7.6-80.2c4.5-36.1,26.1-88.1,27-90.3   c2.3-5.6,8.8-8.3,14.4-5.9c5.6,2.3,8.3,8.8,5.9,14.4c-0.2,0.5-21.3,51.5-25.5,84.6c-4,32.3,6.8,71,7,71.4   c1.7,5.8-1.7,11.9-7.6,13.6C786,242.1,785,242.2,784,242.2z" style="fill:url(#CerosGradient_idb8f8b7f17);"/>
	<path class="st0-6140e14e91259" d="M762.4,316.8c-5.9,0-10.8-4.7-11-10.6c-0.2-6.1,4.5-11.1,10.6-11.4l0,0c0.5,0,55-2.7,96.7-49.1   c19.4-21.6,33.2-58,33.4-58.4c2.1-5.7,8.5-8.6,14.2-6.4c5.7,2.1,8.6,8.5,6.4,14.2c-0.6,1.6-15.4,40.7-37.6,65.4   c-48.2,53.6-109.7,56.3-112.3,56.4C762.7,316.8,762.5,316.8,762.4,316.8z" style="fill:url(#CerosGradient_idb8f8b7f17);"/>
	<path class="st0-6140e14e91259" d="M602.9,218.6c-4.9,0-8.1-2.1-9.3-3.1c-4.7-3.9-5.3-10.8-1.4-15.5c2.7-3.3,7-4.6,10.9-3.7   c2.5-1.4,10.7-7.2,25.6-30.9c24.8-39.4,16.5-84.1,16.4-84.5c-1.2-6,2.7-11.7,8.7-12.9c5.9-1.2,11.7,2.7,12.9,8.6   c0.4,2.2,10.3,53.5-19.3,100.5c-16.5,26.3-29.7,39.4-41.5,41.2C604.8,218.5,603.8,218.6,602.9,218.6z" style="fill:url(#CerosGradient_idb8f8b7f17);"/>
	<path class="st0-6140e14e91259" d="M302.9,602.6c-5.4,0-10.2-4-10.9-9.6c-0.5-4.1,1.3-7.9,4.3-10.2c0.7-2.4,2.2-10.4-0.9-31.3   c-7.1-48.2-37.2-87.1-37.5-87.5c-3.7-4.8-2.9-11.7,1.9-15.4c4.8-3.8,11.7-2.9,15.4,1.8c1.4,1.8,34,43.7,42,97.8   c4.8,32.8,0.3,43.3-3.5,48.4c-3.4,4.5-7.3,5.6-9.4,5.8C303.9,602.5,303.4,602.6,302.9,602.6z" style="fill:url(#CerosGradient_idb8f8b7f17);"/>
	<path class="st0-6140e14e91259" d="M860.4,465.5c-1.1,0-2.2-0.2-3.3-0.5c-5.8-1.8-9-8-7.2-13.8c0.2-0.7,5.8-18.1,23.4-47.7   c24.7-41.5,93.4-58.6,96.3-59.3c5.9-1.4,11.9,2.2,13.3,8.1c1.4,5.9-2.2,11.8-8.1,13.3l0,0c-0.6,0.2-62.7,15.7-82.6,49.2   c-16.2,27.2-21.3,43-21.4,43.1C869.4,462.5,865,465.5,860.4,465.5z" style="fill:url(#CerosGradient_idb8f8b7f17);"/>
	<path class="st0-6140e14e91259" d="M895.6,570.5c-6,0-10.9-4.8-11-10.9c0-0.8-0.1-20.2,12.2-44.2c14.4-28.2,48.1-54,49.5-55   c4.8-3.7,11.7-2.7,15.4,2.1c3.7,4.8,2.7,11.7-2.1,15.4l0,0c-0.3,0.2-31.2,23.9-43.3,47.5c-9.7,18.9-9.8,33.8-9.8,33.9   c0.1,6.1-4.8,11.1-10.9,11.1C895.7,570.5,895.7,570.5,895.6,570.5z" style="fill:url(#CerosGradient_idb8f8b7f17);"/>
	<path class="st0-6140e14e91259" d="M211,688c-0.4,0-0.7,0-1.1-0.1c-5.8-0.6-10-5.5-9.9-11.2c-0.1-0.9-1.1-7.6-9.4-23.2c-9.3-17.4-27.8-24.9-28-25   c-5.7-2.2-8.5-8.6-6.3-14.2c2.2-5.7,8.6-8.5,14.3-6.3c1.1,0.4,26.2,10.3,39.4,35.1c11.3,21.2,12.4,31,12,34.9   C221.4,683.8,216.6,688,211,688z" style="fill:url(#CerosGradient_idb8f8b7f17);"/>
	<path class="st0-6140e14e91259" d="M706.5,602.1c-4.9,0-9.3-3.3-10.6-8.2c-0.3-1.1-7.2-28.2-3.1-63.4c4.4-37.5,27-56.8,28-57.6   c4.7-3.9,11.6-3.3,15.5,1.4c3.9,4.6,3.3,11.6-1.4,15.4c-0.8,0.7-16.9,14.9-20.3,43.3c-3.6,31.2,2.5,55.1,2.5,55.3   c1.5,5.9-2,11.9-7.9,13.4C708.4,602,707.4,602.1,706.5,602.1z" style="fill:url(#CerosGradient_idb8f8b7f17);"/>
	<path class="st0-6140e14e91259" d="M624.6,410.7c-12.2,0-20.8-2.3-21.5-2.5c-5.8-1.6-9.3-7.7-7.6-13.6c1.6-5.8,7.7-9.3,13.6-7.6   c1.3,0.3,32.5,8.5,57.3-13.3c15.9-14,24.1-47,25.9-58.6c0.9-6,6.6-10.1,12.6-9.1c6,0.9,10.1,6.6,9.1,12.6   c-0.3,2-8.1,49.7-33.1,71.7C661.9,406.9,640.3,410.7,624.6,410.7z" style="fill:url(#CerosGradient_idb8f8b7f17);"/>
	<path class="st0-6140e14e91259" d="M590.4,186.8c-2.1,0-4.3-0.6-6.2-1.9c-1.7-1.1-41.2-28.5-59.5-67.2c-18.6-39.4-4.4-103.7-3.8-106.4   c1.3-5.9,7.2-9.6,13.2-8.3c5.9,1.3,9.6,7.2,8.3,13.1l0,0c-0.1,0.6-13.1,59.6,2.3,92.2c15.7,33.2,51.6,58.2,52,58.4   c5,3.4,6.3,10.3,2.8,15.3C597.4,185.1,593.9,186.8,590.4,186.8z" style="fill:url(#CerosGradient_idb8f8b7f17);"/>
</g>
</svg>