<!-- Generator: Adobe Illustrator 25.2.3, SVG Export Plug-In  --><svg xmlns="http://www.w3.org/2000/svg" xmlns:xlink="http://www.w3.org/1999/xlink" version="1.1" x="0px" y="0px" width="1131px" height="1131px" viewBox="0 0 1131 1131.1" style="overflow:visible;enable-background:new 0 0 1131 1131.1;fill:url(#CerosGradient_idbc4e60b4c);" xml:space="preserve" aria-hidden="true">
<style type="text/css">
	.st0-613b8659ffe67{fill:#B28338;}
</style>
<defs><linearGradient class="cerosgradient" data-cerosgradient="true" id="CerosGradient_idbc4e60b4c" gradientUnits="userSpaceOnUse" x1="50%" y1="100%" x2="50%" y2="0%"><stop offset="0%" stop-color="#003A5D"/><stop offset="100%" stop-color="#003A5D"/></linearGradient><linearGradient/>
</defs>
<g>
	<path class="st0-613b8659ffe67" d="M565.5,1131.1c-76.3,0-150.4-15-220.1-44.4c-67.3-28.5-127.8-69.3-179.8-121.2   C113.7,913.5,72.9,853,44.4,785.7C15,715.9,0,641.9,0,565.5s15-150.4,44.4-220.1c28.5-67.3,69.3-127.8,121.2-179.8   S278.1,72.9,345.4,44.4C415.1,15,489.2,0,565.5,0s150.4,15,220.1,44.4c67.3,28.5,127.8,69.3,179.8,121.2   c51.9,51.9,92.7,112.4,121.2,179.8c29.5,69.7,44.4,143.8,44.4,220.1s-15,150.4-44.4,220.1c-28.5,67.3-69.3,127.8-121.2,179.8   c-51.9,51.9-112.4,92.7-179.8,121.2C715.9,1116.1,641.9,1131.1,565.5,1131.1z M565.5,22C492.1,22,421,36.4,354,64.7   c-64.7,27.4-122.8,66.6-172.8,116.5c-49.9,49.9-89.1,108-116.5,172.8C36.4,421,22,492.1,22,565.5s14.4,144.6,42.7,211.6   c27.4,64.7,66.6,122.8,116.5,172.8c49.9,49.9,108,89.1,172.8,116.5c67,28.3,138.2,42.7,211.6,42.7s144.6-14.4,211.6-42.7   c64.7-27.4,122.8-66.6,172.8-116.5c49.9-49.9,89.1-108,116.5-172.8c28.3-67,42.7-138.2,42.7-211.6S1094.7,421,1066.3,354   c-27.4-64.7-66.6-122.8-116.5-172.8c-49.9-49.9-108-89.1-172.8-116.5C710.1,36.4,638.9,22,565.5,22z" style="fill:url(#CerosGradient_idbc4e60b4c);"/>
	<g>
		<g>
			<path class="st0-613b8659ffe67" d="M569.6,259.1c-0.8,0-1.7-0.1-2.5-0.3c-1.4-0.3-13.7-3.3-26.4-12.8c-12.2-9.1-26.8-25.8-27.3-54.1     c-0.7-49,42.6-114.2,44.5-116.9c2-3,5.4-4.8,9-4.9c3.6-0.1,7,1.7,9.1,4.6c1.9,2.7,47.3,66.5,48,115.5     c0.4,28.3-13.7,45.5-25.6,54.9c-12.4,9.8-24.7,13.2-26,13.6C571.4,259,570.5,259.1,569.6,259.1z M567.3,101.6     c-12.1,20.9-32.4,60.3-31.9,90c0.5,31.1,25.5,42.2,34,45c8.4-3.1,33.1-14.9,32.6-46C601.5,160.9,580.1,122.1,567.3,101.6z" style="fill:url(#CerosGradient_idbc4e60b4c);"/>
			<g>
				<path class="st0-613b8659ffe67" d="M268.7,505c-17.5,0-33.8-6.8-47.1-19.8c-35.2-34.1-50.6-110.9-51.2-114.1c-0.7-3.5,0.4-7.2,2.9-9.8      c2.5-2.6,6.1-3.8,9.7-3.2c3.3,0.5,80.5,13.6,115.6,47.7c20.3,19.7,22.5,41.9,20.7,57c-1.8,15.7-8.1,26.8-8.8,28      c-0.9,1.5-2.2,2.8-3.7,3.8C306.1,495,289.9,505,268.7,505z M195.8,383.2c6.2,23.3,19.7,65.5,41,86.2c9.3,9,20,13.6,31.8,13.6      c10.8,0,19.9-3.7,24.1-5.8c3.7-8.1,12.9-33.9-9.5-55.6c-12.3-11.9-33.9-22.9-62.6-31.7C211.4,387,202.8,384.8,195.8,383.2z" style="fill:url(#CerosGradient_idbc4e60b4c);"/>
				<g>
					<g>
						<path class="st0-613b8659ffe67" d="M392.1,493.6c-0.8,0-1.7-0.1-2.5-0.3c-16.3-3.8-47.3-21-47.9-59.6c-0.7-43.1,37.4-100.3,39-102.7        c2-3,5.4-4.8,9-4.9c3.6-0.1,7,1.7,9.1,4.6c1.7,2.4,41.4,58.3,42.1,101.5c0.6,38.6-29.9,56.8-46,61.1        C394,493.4,393,493.6,392.1,493.6z M390.2,357.7c-10.6,18.5-26.8,51-26.5,75.6c0.4,25.7,20.7,35.1,28.2,37.7        c7.4-2.8,27.4-12.9,27-38.6C418.6,409.3,402.4,377.6,390.2,357.7z" style="fill:url(#CerosGradient_idbc4e60b4c);"/>
						<path class="st0-613b8659ffe67" d="M391.3,567.8c-6.1,0-11-4.9-11-11V441.6c0-6.1,4.9-11,11-11s11,4.9,11,11v115.2        C402.3,562.9,397.4,567.8,391.3,567.8z" style="fill:url(#CerosGradient_idbc4e60b4c);"/>
					</g>
					<g>
						<path class="st0-613b8659ffe67" d="M241.7,631.7c-43,0-99.2-37.4-101.6-39c-3-2-4.8-5.4-4.9-9c-0.1-3.6,1.7-7,4.6-9.1        c2.4-1.7,58.3-41.4,101.5-42.1c38.7-0.6,56.9,30,61.1,46c0.5,1.7,0.5,3.5,0.1,5.3c-3.8,16.3-21,47.3-59.6,47.9        C242.5,631.7,242.1,631.7,241.7,631.7z M166.9,583.3c18.3,10.4,50.3,26.5,74.8,26.5c0.3,0,0.5,0,0.8,0        c13.1-0.2,23.5-5.4,30.9-15.5c3.6-4.9,5.7-9.8,6.8-12.7c-2.8-7.3-12.7-27-37.8-27c-0.3,0-0.5,0-0.8,0        C218.4,554.9,186.8,571.1,166.9,583.3z" style="fill:url(#CerosGradient_idbc4e60b4c);"/>
						<path class="st0-613b8659ffe67" d="M364.6,593.1H250.8c-6.1,0-11-4.9-11-11s4.9-11,11-11h113.8c6.1,0,11,4.9,11,11S370.7,593.1,364.6,593.1z        " style="fill:url(#CerosGradient_idbc4e60b4c);"/>
					</g>
				</g>
			</g>
			<path class="st0-613b8659ffe67" d="M862.4,505C862.4,505,862.4,505,862.4,505c-21.3,0-37.5-10-38.2-10.4c-1.5-0.9-2.8-2.2-3.7-3.8     c-0.7-1.2-7-12.3-8.8-28c-1.8-15.1,0.4-37.2,20.7-57c35.2-34.1,112.4-47.2,115.6-47.7c3.6-0.6,7.2,0.6,9.7,3.2     c2.5,2.6,3.6,6.2,2.9,9.8c-0.6,3.3-16.1,80-51.2,114.1C896.2,498.1,879.9,505,862.4,505z M838.3,477.2c4.2,2,13.3,5.8,24,5.8     c11.8,0,22.5-4.6,31.8-13.6c12.3-11.9,24-33.3,33.7-61.9c3.1-9.1,5.5-17.5,7.3-24.3c-23.5,5.5-66.1,17.7-87.4,38.4     c-11.1,10.8-15.9,23.8-14.2,38.6C834.5,467.8,836.9,474,838.3,477.2z" style="fill:url(#CerosGradient_idbc4e60b4c);"/>
			<path class="st0-613b8659ffe67" d="M671.8,1119.5c-2.6,0-5.1-0.9-7.2-2.7c-19.7-17.1-33.6-57.8-42.5-124.4c-6.2-45.9-7.5-86.9-7.6-91.1     l-12.2-148.9c-0.2-2.9,0.7-5.8,2.6-8l169.8-200L613.9,680.9c-3.1,2.7-7.5,3.4-11.3,1.8c-3.8-1.6-6.4-5.2-6.8-9.3l-27.1-332.2     l-27.5,337.2c-0.3,4.1-2.9,7.7-6.8,9.3c-3.8,1.6-8.2,0.9-11.3-1.8L356.4,544.4L532,751.2c1.9,2.2,2.8,5.1,2.6,8L523,901.3     c-0.1,4.3-1.4,45.2-7.6,91.1c-8.9,66.5-22.9,107.2-42.5,124.4c-4.6,4-11.5,3.5-15.5-1.1c-4-4.6-3.5-11.5,1.1-15.5     c8.6-7.5,24.5-31.8,35.2-110.5c6.2-46.3,7.4-88.8,7.5-89.3c0-0.2,0-0.4,0-0.6L512.3,762L252.4,455.9c-3.7-4.4-3.4-10.8,0.6-14.9     c4.1-4.1,10.5-4.3,14.9-0.6L521,655.3l36.8-450.2c0.5-5.7,5.2-10.1,11-10.1c5.7,0,10.5,4.4,11,10.1L616,650.2l247.1-209.8     c4.4-3.7,10.8-3.4,14.9,0.6c4,4.1,4.3,10.5,0.6,14.9L624.6,755.2l11.8,144.7c0,0.2,0,0.4,0,0.6c0,0.4,1.2,43,7.5,89.3     c10.6,78.8,26.6,103.1,35.2,110.5c4.6,4,5.1,10.9,1.1,15.5C677.9,1118.2,674.9,1119.5,671.8,1119.5z" style="fill:url(#CerosGradient_idbc4e60b4c);"/>
			<g>
				<g>
					<path class="st0-613b8659ffe67" d="M739,493.6c-0.9,0-1.9-0.1-2.8-0.4c-16.2-4.2-46.6-22.5-46-61.1c0.7-43.1,40.4-99.1,42.1-101.5       c2.1-2.9,5.5-4.7,9.1-4.6c3.6,0.1,7,1.9,9,4.9c1.6,2.4,39.7,59.6,39,102.7c-0.6,38.6-31.6,55.9-47.9,59.6       C740.6,493.5,739.8,493.6,739,493.6z M740.9,357.7c-11.1,18.2-28.4,50.2-28.7,74.8c-0.2,13.1,4.7,23.6,14.5,31.4       c4.8,3.8,9.6,6,12.5,7.1c7.5-2.6,27.7-12.1,28.1-37.7c0.2-14.6-5.7-34.7-17.1-58C747,368.7,743.7,362.7,740.9,357.7z" style="fill:url(#CerosGradient_idbc4e60b4c);"/>
					<path class="st0-613b8659ffe67" d="M739.7,567.6c-6.1,0-11-4.9-11-11v-115c0-6.1,4.9-11,11-11c6.1,0,11,4.9,11,11v115       C750.7,562.6,745.8,567.6,739.7,567.6z" style="fill:url(#CerosGradient_idbc4e60b4c);"/>
				</g>
				<g>
					<path class="st0-613b8659ffe67" d="M889.4,631.7C889.3,631.7,889.3,631.7,889.4,631.7c-0.4,0-0.8,0-1.1,0c-38.6-0.6-55.9-31.6-59.6-47.9       c-0.4-1.7-0.4-3.5,0.1-5.3c4.2-15.9,22.1-46,60-46c0.4,0,0.7,0,1.1,0c43.1,0.7,99.1,40.4,101.5,42.1c2.9,2.1,4.6,5.5,4.6,9.1       c-0.1,3.6-1.9,7-4.9,9C988.5,594.3,932.3,631.7,889.4,631.7z M850.8,581.6c2.6,7.4,12,27.8,37.7,28.2c0.3,0,0.5,0,0.8,0       c24.5,0,56.5-16,74.8-26.5c-18.2-11.1-50.2-28.4-74.8-28.7c-0.3,0-0.5,0-0.8,0C863.5,554.5,853.6,574.2,850.8,581.6z" style="fill:url(#CerosGradient_idbc4e60b4c);"/>
					<path class="st0-613b8659ffe67" d="M880.3,593.1H760.8c-6.1,0-11-4.9-11-11s4.9-11,11-11h119.5c6.1,0,11,4.9,11,11S886.3,593.1,880.3,593.1z" style="fill:url(#CerosGradient_idbc4e60b4c);"/>
				</g>
			</g>
			<g>
				<path class="st0-613b8659ffe67" d="M663.8,349.8c-17.1,0-30-7.2-31.4-8c-1.5-0.9-2.8-2.2-3.8-3.7c-8.6-13.7-18-46.8,8.1-73.7      c29-29.9,93.9-42.9,96.6-43.5c3.5-0.7,7.2,0.4,9.8,2.9c2.6,2.5,3.8,6.1,3.2,9.7c-0.5,2.8-11.5,68-40.5,97.9      C694.2,343.4,679.6,349.8,663.8,349.8z M646,324c3.4,1.5,10.1,3.8,17.8,3.8c9.9,0,18.7-3.9,26.2-11.6      c15.3-15.8,25.8-47.8,31.1-69.6c-19.8,5.4-52.4,16.4-68.6,33.2c-8.7,8.9-12.2,19.4-10.4,31.2C642.9,316.6,644.8,321.3,646,324z" style="fill:url(#CerosGradient_idbc4e60b4c);"/>
				<path class="st0-613b8659ffe67" d="M586,394.2c-2.8,0-5.6-1.1-7.8-3.2c-4.3-4.3-4.3-11.3,0-15.6l79.4-79.4c4.3-4.3,11.3-4.3,15.6,0      c4.3,4.3,4.3,11.3,0,15.6L593.7,391C591.6,393.1,588.8,394.2,586,394.2z" style="fill:url(#CerosGradient_idbc4e60b4c);"/>
			</g>
			<g>
				<path class="st0-613b8659ffe67" d="M475.3,349.6c-15.1,0-29.2-5.9-40.7-17.1c-29.9-29-42.9-93.9-43.5-96.6c-0.7-3.5,0.4-7.2,2.9-9.8      c2.5-2.6,6.1-3.8,9.7-3.2c2.8,0.5,68,11.5,97.9,40.5c26.8,26,18.5,59.4,10.3,73.4c-0.9,1.5-2.2,2.8-3.7,3.8      C506.8,341.5,493.4,349.6,475.3,349.6z M416.7,248.1c5.4,19.8,16.4,52.4,33.2,68.6c7.4,7.2,16,10.9,25.4,10.9      c8.2,0,15.3-2.7,18.8-4.4c3.1-7,9.6-27.1-7.9-44C470.5,263.8,438.5,253.4,416.7,248.1z" style="fill:url(#CerosGradient_idbc4e60b4c);"/>
				<path class="st0-613b8659ffe67" d="M553.7,394.5c-2.8,0-5.6-1.1-7.8-3.2l-79.7-79.7c-4.3-4.3-4.3-11.3,0-15.6c4.3-4.3,11.3-4.3,15.6,0      l79.7,79.7c4.3,4.3,4.3,11.3,0,15.6C559.3,393.4,556.5,394.5,553.7,394.5z" style="fill:url(#CerosGradient_idbc4e60b4c);"/>
			</g>
			<g>
				<g>
					<path class="st0-613b8659ffe67" d="M481.6,570.4c-0.9,0-1.7-0.1-2.6-0.3c-14.8-3.6-42.9-19.6-43.1-54.8c-0.2-38.9,34.4-89.9,35.9-92       c2-3,5.4-4.8,9-4.8c3.6,0,7,1.7,9.1,4.7c1.5,2.1,36.7,52.8,36.9,91.6c0.2,35.2-27.7,51.6-42.5,55.3       C483.4,570.3,482.5,570.4,481.6,570.4z M481,450.1c-9.5,16.5-23.2,44-23.1,65c0.1,11.3,4.5,20.3,13.1,26.8c4,3,8,4.9,10.6,5.8       c2.7-1,6.9-3,11.1-6.4c8.2-6.6,12.3-15.5,12.2-26.6C504.7,495,491.5,468,481,450.1z" style="fill:url(#CerosGradient_idbc4e60b4c);"/>
					<path class="st0-613b8659ffe67" d="M483.6,647.5c-5.9,0-10.8-4.7-11-10.7l-3.3-112.3c-0.2-6.1,4.6-11.1,10.7-11.3c6.1-0.2,11.1,4.6,11.3,10.7       l3.3,112.3c0.2,6.1-4.6,11.1-10.7,11.3C483.8,647.5,483.7,647.5,483.6,647.5z" style="fill:url(#CerosGradient_idbc4e60b4c);"/>
				</g>
				<g>
					<path class="st0-613b8659ffe67" d="M655.8,570.4c-0.9,0-1.8-0.1-2.7-0.3c-14.8-3.7-42.7-20.1-42.5-55.3c0.2-38.9,35.4-89.5,36.9-91.6       c2.1-2.9,5.4-4.7,9-4.7c0,0,0,0,0.1,0c3.6,0,7,1.8,9,4.8c1.5,2.2,36.1,53.2,35.9,92c-0.2,35.2-28.3,51.2-43.1,54.8       C657.5,570.3,656.6,570.4,655.8,570.4z M656.4,450.2c-9.7,16.4-23.7,43.7-23.8,64.7c-0.1,11.3,4.2,20.4,12.8,27       c4,3.1,8,4.9,10.5,5.9c2.7-1,7-3,11.1-6.2c8.2-6.5,12.5-15.4,12.5-26.4C679.6,494.1,665.9,466.7,656.4,450.2z" style="fill:url(#CerosGradient_idbc4e60b4c);"/>
					<path class="st0-613b8659ffe67" d="M654.2,641.7c-0.1,0-0.2,0-0.3,0c-6.1-0.2-10.9-5.2-10.7-11.3L646,524c0.2-6,5-10.7,11-10.7       c0.1,0,0.2,0,0.3,0c6.1,0.2,10.9,5.2,10.7,11.3L665.2,631C665.1,637,660.2,641.7,654.2,641.7z" style="fill:url(#CerosGradient_idbc4e60b4c);"/>
				</g>
			</g>
		</g>
	</g>
</g>
</svg>