<!-- Generator: Adobe Illustrator 25.2.3, SVG Export Plug-In  --><svg xmlns="http://www.w3.org/2000/svg" xmlns:xlink="http://www.w3.org/1999/xlink" version="1.1" x="0px" y="0px" width="1131px" height="1131px" viewBox="0 0 1131.1 1131.1" style="overflow:visible;enable-background:new 0 0 1131.1 1131.1;fill:url(#CerosGradient_idab26bdb04);" xml:space="preserve" aria-hidden="true">
<style type="text/css">
	.st0-61377eb9cddb7{fill:#B28338;}
</style>
<defs><linearGradient class="cerosgradient" data-cerosgradient="true" id="CerosGradient_idab26bdb04" gradientUnits="userSpaceOnUse" x1="50%" y1="100%" x2="50%" y2="0%"><stop offset="0%" stop-color="#0099A8"/><stop offset="100%" stop-color="#0099A8"/></linearGradient><linearGradient/>
</defs>
<g>
	<g>
		<path class="st0-61377eb9cddb7" d="M565.3,1131.1c-6.1,0-11-4.9-11-11V503.8c0-6.1,4.9-11,11-11s11,4.9,11,11v616.2    C576.3,1126.1,571.4,1131.1,565.3,1131.1z" style="fill:url(#CerosGradient_idab26bdb04);"/>
		<g>
			<path class="st0-61377eb9cddb7" d="M565.3,514.1c-1,0-2-0.1-3-0.4c-1.1-0.3-26.5-7.6-52-28.8c-23.7-19.7-51.9-55.5-51.9-114.3     c0-45.4,16.5-102.3,49.1-169.1c24-49.3,47.7-84.9,48.7-86.4c2-3.1,5.5-4.9,9.2-4.9c3.7,0,7.1,1.8,9.2,4.9     c1,1.5,24.7,37.2,48.7,86.4c32.6,66.8,49.1,123.7,49.1,169.1c0,58.7-28.2,94.6-51.9,114.3c-25.5,21.2-51,28.5-52,28.8     C567.3,513.9,566.3,514.1,565.3,514.1z M565.3,141.8c-23.7,38.7-85,147-85,228.8c0,40,14.6,72.6,43.4,96.8     c17.2,14.5,34.7,21.7,41.6,24.1c6.9-2.4,24.4-9.6,41.6-24.1c28.8-24.2,43.4-56.8,43.4-96.8C650.3,288.7,589,180.5,565.3,141.8z" style="fill:url(#CerosGradient_idab26bdb04);"/>
			<g>
				<g>
					<path class="st0-61377eb9cddb7" d="M565.3,413.2c-2.9,0-5.7-1.2-7.8-3.2l-53.9-53.9c-4.3-4.3-4.3-11.3,0-15.6c4.3-4.3,11.3-4.3,15.6,0       l46.1,46.1l46.1-46.1c4.3-4.3,11.3-4.3,15.6,0c4.3,4.3,4.3,11.3,0,15.6L573.1,410C571,412.1,568.2,413.2,565.3,413.2z" style="fill:url(#CerosGradient_idab26bdb04);"/>
					<path class="st0-61377eb9cddb7" d="M565.3,334.9c-2.8,0-5.6-1.1-7.8-3.2l-33-33c-4.3-4.3-4.3-11.3,0-15.6c4.3-4.3,11.3-4.3,15.6,0l25.3,25.3       l25.3-25.3c4.3-4.3,11.3-4.3,15.6,0c4.3,4.3,4.3,11.3,0,15.6l-33,33C570.9,333.8,568.1,334.9,565.3,334.9z" style="fill:url(#CerosGradient_idab26bdb04);"/>
				</g>
				<path class="st0-61377eb9cddb7" d="M565.3,458.4c-6.1,0-11-4.9-11-11V252.8c0-6.1,4.9-11,11-11s11,4.9,11,11v194.5      C576.3,453.4,571.4,458.4,565.3,458.4z" style="fill:url(#CerosGradient_idab26bdb04);"/>
			</g>
		</g>
		<g>
			<path class="st0-61377eb9cddb7" d="M389.1,432.8c-8,0-78.7-2-99-71.4c-20-68.3,18.3-176.6,19.9-181.2c1.2-3.3,3.9-5.9,7.3-6.9     c3.4-1,7-0.3,9.8,1.9c3.8,3,94.4,73.6,114.3,141.9c8.8,30.3,3.7,59.7-15,85c-13.8,18.8-30.2,28.7-30.9,29.1     c-1.6,0.9-3.4,1.5-5.3,1.5C390.2,432.8,389.8,432.8,389.1,432.8z M325.8,202.7c-9.5,31.4-28.5,105-14.6,152.5     c14.5,49.7,62.9,55,75.5,55.5c10.3-7.1,48.3-37.4,33.6-87.4C406.4,275.8,350.8,224.1,325.8,202.7z" style="fill:url(#CerosGradient_idab26bdb04);"/>
			<g>
				<g>
					<path class="st0-61377eb9cddb7" d="M370,364.9c-1.8,0-3.6-0.5-5.3-1.4l-40.6-22.2c-5.3-2.9-7.3-9.6-4.4-14.9c2.9-5.3,9.6-7.3,14.9-4.4       l30.9,16.9l16.9-30.9c2.9-5.3,9.6-7.3,14.9-4.4c5.3,2.9,7.3,9.6,4.4,14.9l-22.2,40.6c-1.4,2.6-3.8,4.5-6.6,5.3       C372.1,364.8,371,364.9,370,364.9z" style="fill:url(#CerosGradient_idab26bdb04);"/>
				</g>
				<path class="st0-61377eb9cddb7" d="M377.7,391.2c-4.8,0-9.2-3.1-10.6-7.9L334,269.9c-1.7-5.8,1.6-11.9,7.5-13.6c5.8-1.7,11.9,1.6,13.6,7.5      l33.1,113.3c1.7,5.8-1.6,11.9-7.5,13.6C379.7,391,378.7,391.2,377.7,391.2z" style="fill:url(#CerosGradient_idab26bdb04);"/>
			</g>
		</g>
		<g>
			<g>
				<g>
					<path class="st0-61377eb9cddb7" d="M296.7,585.9C296.7,585.9,296.7,585.9,296.7,585.9c-19.6,0-38.3-6.2-55.4-18.3       c-58-41.2-95.1-149.9-96.7-154.5c-1.1-3.3-0.6-7,1.5-9.9c2-2.9,5.3-4.6,8.9-4.6c0,0,0.4,0,1.2,0c5.7,0,36,0.3,71.4,5.3       c46.3,6.6,81.6,18.5,105.1,35.2c25.7,18.3,39.9,44.5,40.9,76c0.8,23.3-5.9,41.2-6.2,42c-0.7,1.7-1.8,3.3-3.2,4.5       C363,562.5,334.8,585.9,296.7,585.9z M171,420.9c12,30.6,42.7,100.1,83.1,128.7c13.3,9.5,27.7,14.3,42.6,14.3c0,0,0,0,0,0       c24.7,0,44.5-12.7,51-17.5c3.7-12,14.7-59.2-27.8-89.4C279.3,428.2,203.8,422.2,171,420.9z" style="fill:url(#CerosGradient_idab26bdb04);"/>
				</g>
			</g>
			<g>
				<g>
					<path class="st0-61377eb9cddb7" d="M253.8,530.9c-5.3,0-9.9-3.8-10.8-9.2c-1-6,3-11.7,9-12.7l34.8-5.9l-5.9-34.8c-1-6,3-11.7,9-12.7       c6-1,11.7,3,12.7,9l7.7,45.6c1,6-3,11.7-9,12.7l-45.6,7.7C255,530.8,254.4,530.9,253.8,530.9z" style="fill:url(#CerosGradient_idab26bdb04);"/>
				</g>
				<path class="st0-61377eb9cddb7" d="M321.7,539c-2.2,0-4.4-0.7-6.4-2l-96.2-68.4c-5-3.5-6.1-10.4-2.6-15.3c3.5-5,10.4-6.1,15.3-2.6l96.2,68.4      c5,3.5,6.1,10.4,2.6,15.3C328.6,537.4,325.2,539,321.7,539z" style="fill:url(#CerosGradient_idab26bdb04);"/>
			</g>
		</g>
		<g>
			<g>
				<g>
					<path class="st0-61377eb9cddb7" d="M296.7,585.9C296.7,585.9,296.7,585.9,296.7,585.9c-19.6,0-38.3-6.2-55.4-18.3       c-58-41.2-95.1-149.9-96.7-154.5c-1.1-3.3-0.6-7,1.5-9.9c2-2.9,5.3-4.6,8.9-4.6c0,0,0.4,0,1.2,0c5.7,0,36,0.3,71.4,5.3       c46.3,6.6,81.6,18.5,105.1,35.2c25.7,18.3,39.9,44.5,40.9,76c0.8,23.3-5.9,41.2-6.2,42c-0.7,1.7-1.8,3.3-3.2,4.5       C363,562.5,334.8,585.9,296.7,585.9z M171,420.9c12,30.6,42.7,100.1,83.1,128.7c13.3,9.5,27.7,14.3,42.6,14.3c0,0,0,0,0,0       c24.7,0,44.5-12.7,51-17.5c3.7-12,14.7-59.2-27.8-89.4C279.3,428.2,203.8,422.2,171,420.9z" style="fill:url(#CerosGradient_idab26bdb04);"/>
				</g>
			</g>
			<g>
				<g>
					<path class="st0-61377eb9cddb7" d="M253.8,530.9c-5.3,0-9.9-3.8-10.8-9.2c-1-6,3-11.7,9-12.7l34.8-5.9l-5.9-34.8c-1-6,3-11.7,9-12.7       c6-1,11.7,3,12.7,9l7.7,45.6c1,6-3,11.7-9,12.7l-45.6,7.7C255,530.8,254.4,530.9,253.8,530.9z" style="fill:url(#CerosGradient_idab26bdb04);"/>
				</g>
				<path class="st0-61377eb9cddb7" d="M321.7,539c-2.2,0-4.4-0.7-6.4-2l-96.2-68.4c-5-3.5-6.1-10.4-2.6-15.3c3.5-5,10.4-6.1,15.3-2.6l96.2,68.4      c5,3.5,6.1,10.4,2.6,15.3C328.6,537.4,325.2,539,321.7,539z" style="fill:url(#CerosGradient_idab26bdb04);"/>
			</g>
		</g>
		<g>
			<path class="st0-61377eb9cddb7" d="M741.6,432.8c-0.7,0-1.1,0-1.1,0c-1.8-0.1-3.7-0.6-5.3-1.5c-0.7-0.4-17.1-10.3-30.9-29.1     c-18.7-25.3-23.8-54.7-15-85c20-68.3,110.5-139,114.3-141.9c2.8-2.2,6.4-2.8,9.8-1.9c3.4,1,6.1,3.5,7.3,6.9     c1.6,4.6,39.9,112.8,19.9,181.2C820.3,430.8,749.6,432.8,741.6,432.8z M804.8,202.7c-25,21.4-80.6,73.1-94.5,120.6     c-14.6,50,23.3,80.3,33.6,87.4c12.5-0.5,60.9-5.8,75.5-55.5C833.3,307.6,814.3,234.1,804.8,202.7z" style="fill:url(#CerosGradient_idab26bdb04);"/>
			<g>
				<g>
					<path class="st0-61377eb9cddb7" d="M760.6,364.9c-3.9,0-7.7-2.1-9.7-5.7l-22.2-40.6c-2.9-5.3-1-12,4.4-14.9c5.3-2.9,12-1,14.9,4.4L765,339       l30.9-16.9c5.3-2.9,12-1,14.9,4.4c2.9,5.3,1,12-4.4,14.9l-40.6,22.2C764.2,364.5,762.4,364.9,760.6,364.9z" style="fill:url(#CerosGradient_idab26bdb04);"/>
				</g>
				<path class="st0-61377eb9cddb7" d="M752.9,391.2c-1,0-2.1-0.1-3.1-0.4c-5.8-1.7-9.2-7.8-7.5-13.6l33.1-113.3c1.7-5.8,7.8-9.2,13.6-7.5      c5.8,1.7,9.2,7.8,7.5,13.6l-33.1,113.3C762.1,388.1,757.7,391.2,752.9,391.2z" style="fill:url(#CerosGradient_idab26bdb04);"/>
			</g>
		</g>
		<g>
			<g>
				<g>
					<path class="st0-61377eb9cddb7" d="M311.6,808.1C311.6,808.1,311.6,808.1,311.6,808.1c-19.2,0-38-5.4-56-15.9c-39.5-23.2-72.1-65.1-94.2-121       c-16.5-41.7-21.4-76.3-21.6-77.8c-0.5-3.3,0.6-6.6,2.8-9c2.3-2.4,5.5-3.7,8.8-3.5c1.2,0.1,30.6,2.1,69.3,9.1       c52.4,9.5,94.6,23,125.5,40.3c32.6,18.2,52.6,47.2,57.8,84.1c3.9,27.3-1.7,49.3-1.9,50.2c-0.5,1.8-1.4,3.4-2.6,4.8       C398.1,771,362.4,808.1,311.6,808.1z M164.2,604.2c2.9,13.4,8.4,35.3,17.9,59.4c14.1,35.6,40.3,83.5,84.7,109.7       c14.5,8.5,29.6,12.9,44.8,12.9c35.3,0,62.4-22.8,69.9-29.8c1.2-6.1,3.4-21.6,0.7-39.5c-4.5-29.8-20.2-52.5-46.7-67.3       C281,619,197.3,607.6,164.2,604.2z" style="fill:url(#CerosGradient_idab26bdb04);"/>
				</g>
			</g>
			<g>
				<g>
					<path class="st0-61377eb9cddb7" d="M263.5,746.5c-4.8,0-9.2-3.2-10.6-8c-1.7-5.8,1.7-11.9,7.6-13.6l43.1-12.2l-12.2-43.1       c-1.7-5.8,1.7-11.9,7.6-13.6c5.8-1.7,11.9,1.7,13.6,7.6l15.2,53.7c1.7,5.8-1.7,11.9-7.6,13.6l-53.7,15.2       C265.5,746.3,264.5,746.5,263.5,746.5z" style="fill:url(#CerosGradient_idab26bdb04);"/>
				</g>
				<path class="st0-61377eb9cddb7" d="M345.9,747.4c-1.8,0-3.7-0.4-5.4-1.4l-124.2-69.4c-5.3-3-7.2-9.7-4.2-15c3-5.3,9.7-7.2,15-4.2l124.2,69.4      c5.3,3,7.2,9.7,4.2,15C353.5,745.3,349.8,747.4,345.9,747.4z" style="fill:url(#CerosGradient_idab26bdb04);"/>
			</g>
		</g>
		<path class="st0-61377eb9cddb7" d="M565.2,908.2c-6,0-10.9-4.8-11-10.8c-1.8-79.1-103.8-113.5-164.4-126.9c-5.9-1.3-9.7-7.2-8.4-13.1    c1.3-5.9,7.2-9.7,13.1-8.4c115.5,25.7,180,78.2,181.6,147.9c0.1,6.1-4.7,11.1-10.7,11.2C565.4,908.2,565.3,908.2,565.2,908.2z" style="fill:url(#CerosGradient_idab26bdb04);"/>
		<g>
			<path class="st0-61377eb9cddb7" d="M426,521.8c-3.7,0-7.3-1.9-9.4-5.2c-17-27.4-29.1-57.3-36-88.7c-1.3-5.9,2.4-11.8,8.4-13.1     c5.9-1.3,11.8,2.4,13.1,8.4c6.4,29,17.6,56.6,33.2,81.9c3.2,5.2,1.6,11.9-3.6,15.1C430,521.3,428,521.8,426,521.8z" style="fill:url(#CerosGradient_idab26bdb04);"/>
			<path class="st0-61377eb9cddb7" d="M406.6,596c-2.4,0-4.9-0.8-6.9-2.4c-14.9-12-30.9-22.1-47.5-30c-5.5-2.6-7.8-9.1-5.3-14.6     c2.6-5.5,9.1-7.8,14.6-5.3c18.2,8.6,35.7,19.6,51.9,32.8c4.7,3.8,5.5,10.7,1.6,15.5C412.9,594.6,409.8,596,406.6,596z" style="fill:url(#CerosGradient_idab26bdb04);"/>
			<g>
				<g>
					<path class="st0-61377eb9cddb7" d="M565,793.2c-1.5,0-3.1-0.3-4.6-1c-35.1-16.1-64.4-43.4-74.7-69.7c-2.2-5.7,0.6-12,6.2-14.3       c5.7-2.2,12,0.6,14.3,6.2c8.2,20.9,33.6,44.1,63.4,57.7c5.5,2.5,7.9,9.1,5.4,14.6C573.2,790.8,569.2,793.2,565,793.2z" style="fill:url(#CerosGradient_idab26bdb04);"/>
					<g>
						<g>
							<path class="st0-61377eb9cddb7" d="M485.2,689.1c-4.8,0-9.2-3.1-10.6-7.9l-33.1-113.3c-1.7-5.8,1.6-11.9,7.5-13.6         c5.8-1.7,11.9,1.6,13.6,7.5L495.8,675c1.7,5.8-1.6,11.9-7.5,13.6C487.3,688.9,486.2,689.1,485.2,689.1z" style="fill:url(#CerosGradient_idab26bdb04);"/>
						</g>
					</g>
				</g>
			</g>
		</g>
		<path class="st0-61377eb9cddb7" d="M704.3,521.8c-2,0-4-0.5-5.8-1.6c-5.2-3.2-6.8-10-3.6-15.1c15.7-25.3,26.8-52.9,33.2-81.9    c1.3-5.9,7.2-9.7,13.1-8.4c5.9,1.3,9.7,7.2,8.4,13.1c-6.9,31.4-19.1,61.3-36,88.7C711.6,520,708,521.8,704.3,521.8z" style="fill:url(#CerosGradient_idab26bdb04);"/>
		<path class="st0-61377eb9cddb7" d="M723.8,596c-3.2,0-6.4-1.4-8.6-4.1c-3.8-4.7-3.1-11.6,1.6-15.5c16.2-13.1,33.7-24.2,51.9-32.8    c5.5-2.6,12-0.2,14.6,5.3c2.6,5.5,0.2,12-5.3,14.6c-16.6,7.8-32.6,17.9-47.5,30C728.6,595.2,726.2,596,723.8,596z" style="fill:url(#CerosGradient_idab26bdb04);"/>
		<g>
			<path class="st0-61377eb9cddb7" d="M565.3,793.2c-4.2,0-8.2-2.4-10-6.4c-2.5-5.5-0.1-12.1,5.4-14.6c29.7-13.6,55.2-36.8,63.4-57.7     c2.2-5.7,8.6-8.4,14.3-6.2c5.7,2.2,8.4,8.6,6.2,14.3c-10.3,26.2-39.6,53.6-74.7,69.7C568.4,792.9,566.8,793.2,565.3,793.2z" style="fill:url(#CerosGradient_idab26bdb04);"/>
			<g>
				<path class="st0-61377eb9cddb7" d="M633.8,730.7c-0.7,0-1.1,0-1.1,0c-2.6-0.1-5-1.1-6.9-2.8c-1.8-1.6-43.2-39.2-29.7-111.8      c15.1-80.7,86-140.3,89.1-142.8c2.6-2.2,6.1-3,9.5-2.2c3.3,0.8,6.1,3.1,7.5,6.2c2.1,4.6,50.8,113.2,30.7,182      C712.5,728.7,641.8,730.7,633.8,730.7z M688,500.6c-19.8,19.6-60.1,65-70.3,119.5c-9.3,50,12,79.5,19.9,88.4      c14.3-0.8,60.1-7.4,74.1-55.5C725.5,605.5,700.1,531.4,688,500.6z" style="fill:url(#CerosGradient_idab26bdb04);"/>
				<g>
					<g>
						<path class="st0-61377eb9cddb7" d="M652.8,662.8c-1.1,0-2.2-0.2-3.2-0.5c-2.8-0.9-5.2-2.8-6.6-5.5l-14.5-28.2c-2.8-5.4-0.7-12,4.8-14.8        c5.4-2.8,12-0.7,14.8,4.8l9.3,18.2l30.7-16.8c5.3-2.9,12-1,14.9,4.4c2.9,5.3,1,12-4.4,14.9l-40.6,22.2        C656.5,662.3,654.6,662.8,652.8,662.8z" style="fill:url(#CerosGradient_idab26bdb04);"/>
					</g>
					<path class="st0-61377eb9cddb7" d="M645.1,689.1c-1,0-2.1-0.1-3.1-0.4c-5.8-1.7-9.2-7.8-7.5-13.6l33.1-113.3c1.7-5.8,7.8-9.2,13.6-7.5       c5.8,1.7,9.2,7.8,7.5,13.6l-33.1,113.3C654.3,685.9,649.9,689.1,645.1,689.1z" style="fill:url(#CerosGradient_idab26bdb04);"/>
				</g>
			</g>
		</g>
		<g>
			<path class="st0-61377eb9cddb7" d="M565,793.2c-1.5,0-3.1-0.3-4.6-1c-35.1-16.1-64.4-43.4-74.7-69.7c-2.2-5.7,0.6-12,6.2-14.3     c5.7-2.2,12,0.6,14.3,6.2c8.2,20.9,33.6,44.1,63.4,57.7c5.5,2.5,7.9,9.1,5.4,14.6C573.2,790.8,569.2,793.2,565,793.2z" style="fill:url(#CerosGradient_idab26bdb04);"/>
			<g>
				<path class="st0-61377eb9cddb7" d="M496.6,730.7c-8,0-78.7-2-99-71.4c-20.1-68.8,28.6-177.4,30.7-182c1.4-3.1,4.2-5.4,7.5-6.2      c3.3-0.8,6.8,0.1,9.5,2.2c3,2.5,74,62,89.1,142.8c13.6,72.6-27.9,110.2-29.7,111.8c-1.9,1.7-4.4,2.7-6.9,2.8      C497.7,730.7,497.3,730.7,496.6,730.7z M442.4,500.6c-12.1,30.9-37.6,105-23.7,152.5c14.1,48.1,59.9,54.6,74.2,55.5      c7.9-8.9,29.2-38.3,19.9-88.4C502.5,565.4,462.2,520.1,442.4,500.6z" style="fill:url(#CerosGradient_idab26bdb04);"/>
				<g>
					<g>
						<path class="st0-61377eb9cddb7" d="M477.5,662.8c-1.8,0-3.6-0.5-5.3-1.4l-40.6-22.2c-5.3-2.9-7.3-9.6-4.4-14.9c2.9-5.3,9.6-7.3,14.9-4.4        l30.7,16.8l9.3-18.2c2.8-5.4,9.4-7.5,14.8-4.8c5.4,2.8,7.5,9.4,4.8,14.8l-14.5,28.2c-1.4,2.6-3.7,4.6-6.6,5.5        C479.7,662.6,478.6,662.8,477.5,662.8z" style="fill:url(#CerosGradient_idab26bdb04);"/>
					</g>
				</g>
			</g>
		</g>
		<g>
			<path class="st0-61377eb9cddb7" d="M565.4,983.7c-0.3,0-0.7,0-1,0c-6-0.6-10.5-5.9-9.9-12c1.5-15.8-22.2-58.3-44.8-68.3     c-5.6-2.5-8.1-9-5.6-14.5c2.5-5.6,9-8.1,14.5-5.6c30.7,13.6,60.2,64.7,57.8,90.5C575.9,979.4,571.1,983.7,565.4,983.7z" style="fill:url(#CerosGradient_idab26bdb04);"/>
			<g>
				<path class="st0-61377eb9cddb7" d="M455.1,939.4c-7,0-14.1-1-21.3-2.9c-55.2-14.6-113.4-85.4-115.9-88.4c-2.2-2.7-3-6.4-2.1-9.8      c0.9-3.4,3.4-6.2,6.7-7.4c2.5-1,60.8-23.3,112-23.3c12.1,0,23,1.3,32.4,3.8c24.9,6.6,43.2,22.6,53,46.3      c7.2,17.5,7.2,33.1,7.2,33.8c0,1.9-0.5,3.7-1.4,5.3C524.7,898.5,501.2,939.4,455.1,939.4z M345.4,846.3      c6.1,6.6,14.4,15.3,24.1,24.2c26.1,24.1,50.2,39.6,69.9,44.8c5.3,1.4,10.6,2.1,15.7,2.1c28,0,44.9-21.5,49.9-29      c-0.8-10.5-6.3-45.8-43.8-55.8c-7.6-2-16.6-3-26.8-3C402.1,829.7,365.5,839.8,345.4,846.3z" style="fill:url(#CerosGradient_idab26bdb04);"/>
				<g>
					<g>
						<path class="st0-61377eb9cddb7" d="M430.3,906.5c-3.8,0-7.5-2-9.5-5.5c-3.1-5.3-1.3-12,4-15l31.7-18.4c5.2-3.1,12-1.3,15,4        c3.1,5.3,1.3,12-4,15L435.8,905C434.1,906.1,432.2,906.5,430.3,906.5z" style="fill:url(#CerosGradient_idab26bdb04);"/>
					</g>
					<path class="st0-61377eb9cddb7" d="M482.9,893.6c-0.9,0-1.9-0.1-2.8-0.4l-90.4-23.9c-5.9-1.6-9.4-7.6-7.8-13.4c1.6-5.9,7.6-9.4,13.4-7.8       l90.4,23.9c5.9,1.6,9.4,7.6,7.8,13.4C492.3,890.4,487.8,893.6,482.9,893.6z" style="fill:url(#CerosGradient_idab26bdb04);"/>
				</g>
			</g>
		</g>
		<g>
			<g>
				<g>
					<g>
						<path class="st0-61377eb9cddb7" d="M819.4,808.1c-50.8,0-86.5-37.1-88-38.7c-1.3-1.3-2.2-3-2.6-4.8c-0.2-0.9-5.9-22.9-1.9-50.2        c5.3-36.8,25.3-65.9,57.8-84.1c30.9-17.3,73.2-30.8,125.5-40.3c38.7-7,68.1-9,69.3-9.1c3.3-0.2,6.5,1.1,8.8,3.5        c2.3,2.4,3.3,5.7,2.8,9c-0.2,1.5-5.1,36-21.6,77.8c-22.1,55.9-54.7,97.8-94.2,121C857.5,802.7,838.6,808.1,819.4,808.1z         M749.5,756.2c7.5,6.9,34.9,29.8,69.9,29.8c15.2,0,30.3-4.3,44.8-12.9c24.5-14.4,59.1-45.1,84.7-109.7        c9.6-24.1,15.1-45.9,17.9-59.4c-33.1,3.5-116.8,14.9-171.4,45.4c-26.7,14.9-42.5,37.8-46.8,68        C746.1,735.3,748.3,750.2,749.5,756.2z" style="fill:url(#CerosGradient_idab26bdb04);"/>
					</g>
				</g>
				<g>
					<g>
						<path class="st0-61377eb9cddb7" d="M867.6,746.5c-1,0-2-0.1-3-0.4l-53.7-15.2c-2.8-0.8-5.2-2.7-6.6-5.2c-1.4-2.5-1.8-5.6-1-8.4l15.2-53.7        c1.7-5.8,7.7-9.2,13.6-7.6c5.8,1.7,9.2,7.7,7.6,13.6l-12.2,43.1l43.1,12.2c5.8,1.7,9.2,7.7,7.6,13.6        C876.8,743.3,872.4,746.5,867.6,746.5z" style="fill:url(#CerosGradient_idab26bdb04);"/>
					</g>
					<path class="st0-61377eb9cddb7" d="M785.1,747.4c-3.9,0-7.6-2-9.6-5.6c-3-5.3-1.1-12,4.2-15L904,657.4c5.3-3,12-1.1,15,4.2       c3,5.3,1.1,12-4.2,15L790.5,746C788.8,746.9,786.9,747.4,785.1,747.4z" style="fill:url(#CerosGradient_idab26bdb04);"/>
				</g>
			</g>
			<path class="st0-61377eb9cddb7" d="M565.9,908.2c-0.1,0-0.2,0-0.3,0c-6.1-0.1-10.9-5.2-10.7-11.2c1.6-69.7,66.1-122.2,181.6-147.9     c5.9-1.3,11.8,2.4,13.1,8.4c1.3,5.9-2.4,11.8-8.4,13.1c-60.6,13.5-162.6,47.9-164.4,126.9C576.7,903.5,571.8,908.2,565.9,908.2z" style="fill:url(#CerosGradient_idab26bdb04);"/>
			<g>
				<path class="st0-61377eb9cddb7" d="M565.6,983.7c-5.6,0-10.4-4.3-10.9-10c-2.4-25.8,27.1-76.9,57.8-90.5c5.6-2.5,12.1,0.1,14.5,5.6      c2.5,5.6-0.1,12.1-5.6,14.5c-10.2,4.5-22,16.5-31.6,32c-9.9,16.1-13.8,30.1-13.3,36.3c0.6,6-3.9,11.4-9.9,12      C566.3,983.7,566,983.7,565.6,983.7z" style="fill:url(#CerosGradient_idab26bdb04);"/>
				<g>
					<path class="st0-61377eb9cddb7" d="M676,939.4C676,939.4,676,939.4,676,939.4c-46.2,0-69.7-40.9-70.7-42.6c-0.9-1.6-1.4-3.5-1.4-5.3       c0-0.7,0-16.3,7.2-33.8c9.8-23.7,28.2-39.7,53-46.3c9.4-2.5,20.3-3.8,32.4-3.8c51.3,0,109.6,22.4,112,23.3       c3.3,1.3,5.8,4,6.7,7.4c0.9,3.4,0.1,7-2.1,9.8c-2.5,3-60.7,73.8-115.9,88.4C690.1,938.5,683,939.4,676,939.4z M626.1,888.5       c5,7.4,21.9,29,49.9,29c0,0,0,0,0,0c5.1,0,10.3-0.7,15.7-2.1c19.6-5.2,43.8-20.7,69.9-44.8c9.7-9,18-17.6,24.1-24.2       c-20-6.5-56.7-16.6-89-16.6c-10.2,0-19.2,1-26.8,3C632.3,842.6,626.9,877.9,626.1,888.5z" style="fill:url(#CerosGradient_idab26bdb04);"/>
					<g>
						<g>
							<path class="st0-61377eb9cddb7" d="M700.7,906.5c-1.9,0-3.8-0.5-5.5-1.5l-31.7-18.4c-5.3-3.1-7-9.8-4-15c3.1-5.3,9.8-7,15-4l31.7,18.4         c5.3,3.1,7,9.8,4,15C708.2,904.6,704.5,906.5,700.7,906.5z" style="fill:url(#CerosGradient_idab26bdb04);"/>
						</g>
						<path class="st0-61377eb9cddb7" d="M648.1,893.6c-4.9,0-9.3-3.3-10.6-8.2c-1.6-5.9,1.9-11.9,7.8-13.4l90.4-23.9c5.9-1.6,11.9,1.9,13.4,7.8        c1.6,5.9-1.9,11.9-7.8,13.4l-90.4,23.9C650,893.5,649,893.6,648.1,893.6z" style="fill:url(#CerosGradient_idab26bdb04);"/>
					</g>
				</g>
			</g>
		</g>
		<g>
			<g>
				<g>
					<path class="st0-61377eb9cddb7" d="M833.9,585.9c-38.1,0-66.3-23.4-67.5-24.4c-1.4-1.2-2.5-2.7-3.2-4.5c-0.3-0.8-7-18.7-6.2-42       c1.1-31.5,15.2-57.7,40.9-76c23.5-16.7,58.9-28.5,105.1-35.2c35.3-5.1,65.6-5.3,71.4-5.3c0.8,0,1.2,0,1.2,0       c3.5,0,6.8,1.8,8.9,4.6c2,2.9,2.6,6.5,1.5,9.9c-1.6,4.6-38.7,113.3-96.7,154.5C872.2,579.8,853.5,585.9,833.9,585.9z        M782.9,546.5c6.6,4.7,26.6,17.5,51,17.5c15,0,29.3-4.8,42.6-14.3c40.3-28.7,71-98.2,83.1-128.7       c-32.8,1.2-108.3,7.3-148.9,36.1c-20.2,14.3-30.9,34.1-31.7,58.8C778.5,529.7,781.4,541.4,782.9,546.5z" style="fill:url(#CerosGradient_idab26bdb04);"/>
				</g>
			</g>
			<g>
				<g>
					<path class="st0-61377eb9cddb7" d="M876.8,530.9c-0.6,0-1.2-0.1-1.8-0.2l-45.6-7.7c-2.9-0.5-5.4-2.1-7.1-4.5c-1.7-2.4-2.4-5.3-1.9-8.2       l7.7-45.6c1-6,6.7-10,12.7-9c6,1,10,6.7,9,12.7l-5.9,34.8l34.8,5.9c6,1,10,6.7,9,12.7C886.8,527.1,882.1,530.9,876.8,530.9z" style="fill:url(#CerosGradient_idab26bdb04);"/>
				</g>
				<path class="st0-61377eb9cddb7" d="M808.9,539c-3.4,0-6.8-1.6-9-4.6c-3.5-5-2.4-11.8,2.6-15.3l96.2-68.4c5-3.5,11.8-2.4,15.3,2.6      c3.5,5,2.4,11.8-2.6,15.3L815.2,537C813.3,538.4,811.1,539,808.9,539z" style="fill:url(#CerosGradient_idab26bdb04);"/>
			</g>
		</g>
		<g>
			<g>
				<g>
					<path class="st0-61377eb9cddb7" d="M833.9,585.9c-38.1,0-66.3-23.4-67.5-24.4c-1.4-1.2-2.5-2.7-3.2-4.5c-0.3-0.8-7-18.7-6.2-42       c1.1-31.5,15.2-57.7,40.9-76c23.5-16.7,58.9-28.5,105.1-35.2c35.3-5.1,65.6-5.3,71.4-5.3c0.8,0,1.2,0,1.2,0       c3.5,0,6.8,1.8,8.9,4.6c2,2.9,2.6,6.5,1.5,9.9c-1.6,4.6-38.7,113.3-96.7,154.5C872.2,579.8,853.5,585.9,833.9,585.9z        M782.9,546.5c6.6,4.7,26.6,17.5,51,17.5c15,0,29.3-4.8,42.6-14.3c40.3-28.7,71-98.2,83.1-128.7       c-32.8,1.2-108.3,7.3-148.9,36.1c-20.2,14.3-30.9,34.1-31.7,58.8C778.5,529.7,781.4,541.4,782.9,546.5z" style="fill:url(#CerosGradient_idab26bdb04);"/>
				</g>
			</g>
			<g>
				<g>
					<path class="st0-61377eb9cddb7" d="M876.8,530.9c-0.6,0-1.2-0.1-1.8-0.2l-45.6-7.7c-2.9-0.5-5.4-2.1-7.1-4.5c-1.7-2.4-2.4-5.3-1.9-8.2       l7.7-45.6c1-6,6.7-10,12.7-9c6,1,10,6.7,9,12.7l-5.9,34.8l34.8,5.9c6,1,10,6.7,9,12.7C886.8,527.1,882.1,530.9,876.8,530.9z" style="fill:url(#CerosGradient_idab26bdb04);"/>
				</g>
				<path class="st0-61377eb9cddb7" d="M808.9,539c-3.4,0-6.8-1.6-9-4.6c-3.5-5-2.4-11.8,2.6-15.3l96.2-68.4c5-3.5,11.8-2.4,15.3,2.6      c3.5,5,2.4,11.8-2.6,15.3L815.2,537C813.3,538.4,811.1,539,808.9,539z" style="fill:url(#CerosGradient_idab26bdb04);"/>
			</g>
		</g>
		<g>
			<g>
				<path class="st0-61377eb9cddb7" d="M475.4,298.7c-0.6,0-1.1,0-1.7-0.1c-12.5-2-23.5-18.8-30.6-32.5c-9.2-18-14.8-37.2-15.3-52.7      c-0.2-6.1,4.5-11.2,10.6-11.4c6.1-0.2,11.2,4.5,11.4,10.6c0.4,11.5,4.8,26.9,11.8,41.1c7.2,14.7,13.9,22,16.2,23.3      c5.7,1.2,9.4,6.7,8.5,12.5C485.4,294.8,480.7,298.7,475.4,298.7z" style="fill:url(#CerosGradient_idab26bdb04);"/>
				<g>
					<path class="st0-61377eb9cddb7" d="M439.8,254.4c-0.9,0-1.8-0.1-2.6-0.3c-13.9-3.4-40.2-18.4-40.5-50.5c-0.3-35.2,31.6-80.6,33-82.5       c2-2.9,5.3-4.6,8.9-4.6c3.5,0,6.8,1.6,8.9,4.4c1.4,1.9,34.3,46.6,34.6,81.8c0.3,32.1-25.7,47.5-39.5,51.2       C441.7,254.3,440.8,254.4,439.8,254.4z M438.9,147.6c-9.2,15.7-20.3,38.8-20.2,55.8c0.1,9.6,3.8,17,11.2,22.8       c3.6,2.8,7.3,4.6,9.8,5.5c2.4-1,6.1-2.8,9.7-5.7c7.4-5.9,10.9-13.5,10.8-23.1C460,186,448.4,163.1,438.9,147.6z" style="fill:url(#CerosGradient_idab26bdb04);"/>
				</g>
			</g>
		</g>
		<g>
			<g>
				<path class="st0-61377eb9cddb7" d="M654.2,298.7c-5.3,0-10-3.9-10.9-9.3c-0.9-5.8,2.9-11.3,8.6-12.5c6.7-3.4,24.9-34.2,26.5-62      c0.3-6.1,5.5-10.7,11.6-10.4c6.1,0.3,10.7,5.5,10.4,11.6c-0.9,15.8-6.3,34.5-14.9,51.3c-6.6,13.1-17.2,29.1-29.7,31      C655.4,298.7,654.8,298.7,654.2,298.7z" style="fill:url(#CerosGradient_idab26bdb04);"/>
				<g>
					<path class="st0-61377eb9cddb7" d="M689.8,254.4c-1,0-1.9-0.1-2.9-0.4c-13.8-3.7-39.8-19.2-39.5-51.2c0.3-35.2,33.2-79.9,34.6-81.8       c2.1-2.8,5.5-4.5,8.9-4.4c3.5,0,6.8,1.8,8.9,4.6c1.4,1.9,33.4,47.3,33,82.5c-0.3,32-26.6,47-40.5,50.5       C691.6,254.3,690.7,254.4,689.8,254.4z M690.7,147.6c-9.5,15.5-21.1,38.4-21.3,55.3c-0.1,9.8,3.6,17.5,11.3,23.5       c3.4,2.6,6.8,4.3,9.1,5.3c2.4-1,6.2-2.7,9.8-5.5c7.5-5.8,11.1-13.3,11.2-22.8c0.1-11.2-4.7-26.6-14-44.6       C694.8,154.8,692.7,151,690.7,147.6z" style="fill:url(#CerosGradient_idab26bdb04);"/>
				</g>
			</g>
		</g>
	</g>
	<path class="st0-61377eb9cddb7" d="M565.5,1131.1c-76.3,0-150.4-15-220.1-44.4c-67.3-28.5-127.8-69.3-179.8-121.2   C113.7,913.5,72.9,853,44.4,785.7C15,715.9,0,641.9,0,565.5s15-150.4,44.4-220.1c28.5-67.3,69.3-127.8,121.2-179.8   c51.9-51.9,112.4-92.7,179.8-121.2C415.1,15,489.2,0,565.5,0s150.4,15,220.1,44.4c67.3,28.5,127.8,69.3,179.8,121.2   c51.9,51.9,92.7,112.4,121.2,179.8c29.5,69.7,44.4,143.8,44.4,220.1s-15,150.4-44.4,220.1c-28.5,67.3-69.3,127.8-121.2,179.8   c-51.9,51.9-112.4,92.7-179.8,121.2C715.9,1116.1,641.9,1131.1,565.5,1131.1z M565.5,22C492.1,22,421,36.4,354,64.7   c-64.7,27.4-122.8,66.6-172.8,116.5S92.1,289.2,64.7,354C36.4,421,22,492.1,22,565.5c0,73.4,14.4,144.6,42.7,211.6   c27.4,64.7,66.6,122.8,116.5,172.8c49.9,49.9,108,89.1,172.8,116.5c67,28.3,138.2,42.7,211.6,42.7s144.6-14.4,211.6-42.7   c64.7-27.4,122.8-66.6,172.8-116.5c49.9-49.9,89.1-108,116.5-172.8c28.3-67,42.7-138.2,42.7-211.6c0-73.4-14.4-144.6-42.7-211.6   c-27.4-64.7-66.6-122.8-116.5-172.8c-49.9-49.9-108-89.1-172.8-116.5C710.1,36.4,638.9,22,565.5,22z" style="fill:url(#CerosGradient_idab26bdb04);"/>
</g>
</svg>