<!-- Generator: Adobe Illustrator 25.2.3, SVG Export Plug-In  --><svg xmlns="http://www.w3.org/2000/svg" xmlns:xlink="http://www.w3.org/1999/xlink" version="1.1" x="0px" y="0px" width="1131px" height="1131px" viewBox="0 0 1131.1 1131.1" style="overflow:visible;enable-background:new 0 0 1131.1 1131.1;fill:url(#CerosGradient_ide898b4035);" xml:space="preserve" aria-hidden="true">
<style type="text/css">
	.st0-613b80ae26c60{fill:#B28338;}
</style>
<defs><linearGradient class="cerosgradient" data-cerosgradient="true" id="CerosGradient_ide898b4035" gradientUnits="userSpaceOnUse" x1="50%" y1="100%" x2="50%" y2="0%"><stop offset="0%" stop-color="#F3D47B"/><stop offset="100%" stop-color="#F3D47B"/></linearGradient><linearGradient/>
</defs>
<g>
	<g>
		<g>
			<path class="st0-613b80ae26c60" d="M761.6,800.4c-23.4,0-45.1-7.3-62.8-21.1c-17.7-13.8-29.7-32.8-34.8-55c-1.4-5.9,2.3-11.8,8.3-13.2     c5.9-1.4,11.8,2.3,13.2,8.3c8.1,35.3,38.7,59,76.2,59c39.5,0,73.2-29.5,78.4-68.6c0.7-5,4.6-8.9,9.6-9.5     c59.1-7,103.7-57.3,103.7-116.9c0-43.1-23.5-82.7-61.4-103.4c-2.6-1.4-4.6-3.9-5.4-6.8c-0.8-2.9-0.3-6,1.2-8.6     c11.3-18.4,17.3-39.7,17.3-61.4c0-64.9-52.8-117.7-117.7-117.7c-17.5,0-34.4,3.8-50.1,11.2c-2.8,1.3-6.1,1.4-8.9,0.2     c-2.9-1.2-5.1-3.6-6.1-6.5c-23.3-66.4-86.3-111.1-156.7-111.1c-70.4,0-133.4,44.6-156.7,111.1c-1,2.9-3.3,5.3-6.1,6.5     c-2.9,1.2-6.1,1.1-8.9-0.2c-15.7-7.4-32.6-11.2-50.1-11.2c-64.9,0-117.7,52.8-117.7,117.7c0,21.7,6,43,17.3,61.4     c1.6,2.6,2,5.7,1.2,8.6c-0.8,2.9-2.7,5.4-5.4,6.8c-37.9,20.7-61.4,60.3-61.4,103.4c0,59.6,44.6,109.9,103.7,116.9     c5,0.6,8.9,4.5,9.6,9.5c5.2,39.1,38.9,68.6,78.4,68.6c37.9,0,68.9-23.4,77-58.2c1.4-5.9,7.3-9.6,13.2-8.2     c5.9,1.4,9.6,7.3,8.2,13.2c-5.2,22-17.4,40.9-35.4,54.5c-17.8,13.5-39.6,20.6-63,20.6c-47.7,0-88.7-33.6-98.8-79.4     c-66.1-11.8-115-69.5-115-137.5c0-47.5,24-91.3,63.4-117c-9.9-19.5-15.1-41.1-15.1-63.2c0-77,62.7-139.7,139.7-139.7     c16.8,0,33.1,2.9,48.6,8.7c29.2-69.2,97.4-114.9,173.2-114.9c75.9,0,144.1,45.7,173.2,114.9c15.5-5.8,31.8-8.7,48.6-8.7     c77,0,139.7,62.7,139.7,139.7c0,22.1-5.2,43.7-15.1,63.2c39.3,25.7,63.4,69.6,63.4,117c0,68-48.9,125.7-115,137.5     C850.4,766.8,809.3,800.4,761.6,800.4z" style="fill:url(#CerosGradient_ide898b4035);"/>
			<g>
				<path class="st0-613b80ae26c60" d="M499.2,1122.6c-0.2,0-0.4,0-0.6,0c-6.1-0.3-10.7-5.5-10.4-11.5l16.5-327.4L342.3,621.2      c-4.3-4.3-4.3-11.3,0-15.6c4.3-4.3,11.3-4.3,15.6,0l165.9,165.9c2.2,2.2,3.4,5.2,3.2,8.3l-16.7,332.2      C509.9,1118,505.1,1122.6,499.2,1122.6z" style="fill:url(#CerosGradient_ide898b4035);"/>
				<path class="st0-613b80ae26c60" d="M431.7,648.4c-2.6,0-5.2-0.9-7.3-2.8l-50.7-44.9c-4.5-4-5-11-0.9-15.5s11-5,15.5-0.9l25.1,22.2l-11.6-51.3      c-1.3-5.9,2.4-11.8,8.3-13.2c5.9-1.3,11.8,2.4,13.2,8.3l19.2,84.6c1.1,4.7-1,9.5-5.1,11.9C435.5,647.9,433.6,648.4,431.7,648.4z      " style="fill:url(#CerosGradient_ide898b4035);"/>
				<path class="st0-613b80ae26c60" d="M520.3,727c-2.6,0-5.2-1-7.3-2.8l-49.3-43.8c-1.6-1.4-2.8-3.3-3.3-5.4l-34-126.2      c-1.6-5.9,1.9-11.9,7.8-13.5c5.9-1.6,11.9,1.9,13.5,7.8l33.2,123.1l30.2,26.7l13-188c0.4-6.1,5.7-10.7,11.7-10.2      c6.1,0.4,10.6,5.7,10.2,11.7l-14.5,210.3c-0.3,4.2-2.9,7.8-6.8,9.4C523.1,726.8,521.7,727,520.3,727z" style="fill:url(#CerosGradient_ide898b4035);"/>
				<path class="st0-613b80ae26c60" d="M629.4,522.4c-23.6,0-45.9-8-63.9-22.7c-18,14.7-40.3,22.7-63.9,22.7c-6.1,0-11-4.9-11-11      c0-6.1,4.9-11,11-11c21.2,0,41.1-8.3,56.1-23.3c2.1-2.1,4.9-3.2,7.8-3.2s5.7,1.2,7.8,3.2c15,15,34.9,23.3,56.1,23.3      c6.1,0,11,4.9,11,11C640.4,517.5,635.5,522.4,629.4,522.4z" style="fill:url(#CerosGradient_ide898b4035);"/>
				<g>
					<path class="st0-613b80ae26c60" d="M445.7,556.5c-11.4,0-22.9-2.6-33.7-8.2c-5.4-2.8-7.5-9.4-4.7-14.8c2.8-5.4,9.4-7.5,14.8-4.7       c25.4,13.1,56.7,3.1,69.8-22.3c2.8-5.4,9.4-7.5,14.8-4.7c5.4,2.8,7.5,9.4,4.7,14.8C498.4,541.9,472.5,556.5,445.7,556.5z" style="fill:url(#CerosGradient_ide898b4035);"/>
					<path class="st0-613b80ae26c60" d="M299.2,633.4c-15.1,0-30.2-2.5-44.8-7.6c-5.7-2-8.8-8.3-6.8-14c2-5.7,8.3-8.8,14-6.8       c28.7,10,59.6,8.2,87-5c27.4-13.2,48-36.3,58-65.1c2-5.7,8.3-8.8,14-6.8c5.7,2,8.8,8.3,6.8,14c-11.9,34.3-36.5,61.8-69.2,77.6       C339.5,628.8,319.4,633.4,299.2,633.4z" style="fill:url(#CerosGradient_ide898b4035);"/>
				</g>
			</g>
			<g>
				<path class="st0-613b80ae26c60" d="M633.1,1122.6c-5.8,0-10.7-4.6-11-10.4l-16.7-332.2c-0.2-3.1,1-6.1,3.2-8.3l165.9-165.9      c4.3-4.3,11.3-4.3,15.6,0c4.3,4.3,4.3,11.3,0,15.6L627.6,783.7l16.5,327.4c0.3,6.1-4.4,11.2-10.4,11.5      C633.5,1122.6,633.3,1122.6,633.1,1122.6z" style="fill:url(#CerosGradient_ide898b4035);"/>
				<path class="st0-613b80ae26c60" d="M700.7,648.4c-1.9,0-3.9-0.5-5.6-1.5c-4.1-2.4-6.2-7.2-5.1-11.9l19.2-84.6c1.3-5.9,7.2-9.6,13.2-8.3      c5.9,1.3,9.6,7.2,8.3,13.2L719,606.5l25.1-22.2c4.5-4,11.5-3.6,15.5,0.9c4,4.5,3.6,11.5-0.9,15.5L708,645.7      C705.9,647.5,703.3,648.4,700.7,648.4z" style="fill:url(#CerosGradient_ide898b4035);"/>
				<path class="st0-613b80ae26c60" d="M612,727c-1.4,0-2.8-0.3-4.2-0.8c-3.9-1.6-6.5-5.2-6.8-9.4l-14.5-210.3c-0.4-6.1,4.2-11.3,10.2-11.7      c6.1-0.4,11.3,4.2,11.7,10.2l13,188l30.2-26.7l33.5-124.1c1.6-5.9,7.6-9.3,13.5-7.8c5.9,1.6,9.3,7.6,7.8,13.5L672,675.2      c-0.6,2.1-1.7,3.9-3.3,5.4l-49.3,43.8C617.3,726.1,614.7,727,612,727z" style="fill:url(#CerosGradient_ide898b4035);"/>
				<path class="st0-613b80ae26c60" d="M630.7,522.4c-23.6,0-45.9-8-63.9-22.7c-18,14.7-40.3,22.7-63.9,22.7c-6.1,0-11-4.9-11-11      c0-6.1,4.9-11,11-11c21.2,0,41.1-8.3,56.1-23.3c2.1-2.1,4.9-3.2,7.8-3.2s5.7,1.2,7.8,3.2c15,15,34.9,23.3,56.1,23.3      c6.1,0,11,4.9,11,11C641.7,517.5,636.7,522.4,630.7,522.4z" style="fill:url(#CerosGradient_ide898b4035);"/>
				<g>
					<path class="st0-613b80ae26c60" d="M686.7,556.5c-26.8,0-52.7-14.6-65.8-40c-2.8-5.4-0.7-12,4.7-14.8c5.4-2.8,12-0.7,14.8,4.7       c13.1,25.4,44.4,35.4,69.8,22.3c5.4-2.8,12-0.7,14.8,4.7c2.8,5.4,0.7,12-4.7,14.8C709.6,553.9,698,556.5,686.7,556.5z" style="fill:url(#CerosGradient_ide898b4035);"/>
					<path class="st0-613b80ae26c60" d="M833.3,633.3c-56.2,0-108.9-35.2-128.4-91.2c-2-5.7,1-12,6.8-14c5.7-2,12,1,14,6.8       c20.7,59.3,85.7,90.7,145,70.1c5.7-2,12,1,14,6.8c2,5.7-1,12-6.8,14C863.2,630.9,848.1,633.3,833.3,633.3z" style="fill:url(#CerosGradient_ide898b4035);"/>
				</g>
			</g>
		</g>
		<g>
			<path class="st0-613b80ae26c60" d="M485.3,383.9c-6.1,0-11-4.9-11-11c0-22.8-18.5-41.3-41.3-41.3c-22.8,0-41.3,18.5-41.3,41.3     c0,6.1-4.9,11-11,11s-11-4.9-11-11c0-34.9,28.4-63.3,63.3-63.3s63.3,28.4,63.3,63.3C496.3,378.9,491.4,383.9,485.3,383.9z" style="fill:url(#CerosGradient_ide898b4035);"/>
			<path class="st0-613b80ae26c60" d="M613.5,280.3c-5.4,0-10.1-3.9-10.9-9.4c-1.7-11.6-8.2-21.9-17.9-28.4c-18.9-12.7-44.7-7.6-57.3,11.4     c-3.4,5-10.2,6.4-15.3,3c-5-3.4-6.4-10.2-3-15.3c19.4-29,58.8-36.8,87.9-17.4c14.9,10,24.9,25.8,27.4,43.5     c0.9,6-3.3,11.6-9.3,12.5C614.5,280.3,614,280.3,613.5,280.3z" style="fill:url(#CerosGradient_ide898b4035);"/>
			<path class="st0-613b80ae26c60" d="M327.5,427.6c-1.1,0-2.2-0.2-3.4-0.5c-5.8-1.9-9-8-7.1-13.8c10.7-33.3,46.4-51.6,79.6-41     c5.8,1.9,9,8,7.1,13.8c-1.9,5.8-8,9-13.8,7.1c-21.7-6.9-45,5.1-52,26.8C336.5,424.6,332.2,427.6,327.5,427.6z" style="fill:url(#CerosGradient_ide898b4035);"/>
			<path class="st0-613b80ae26c60" d="M302,567.7c-5.1,0-9.6-3.5-10.7-8.7c-4.7-21.5-0.7-43.5,11.1-62c11.9-18.5,30.2-31.3,51.7-36     c5.9-1.3,11.8,2.5,13.1,8.4c1.3,5.9-2.5,11.8-8.4,13.1c-15.7,3.4-29.2,12.8-37.9,26.3c-8.7,13.5-11.6,29.7-8.2,45.4     c1.3,5.9-2.5,11.8-8.4,13.1C303.6,567.6,302.8,567.7,302,567.7z" style="fill:url(#CerosGradient_ide898b4035);"/>
			<path class="st0-613b80ae26c60" d="M450.2,488.9c-1.3,0-2.6-0.2-3.9-0.7c-5.7-2.2-8.5-8.5-6.4-14.2c11.6-30.5,43.3-46.9,70.5-36.6     c5.7,2.2,8.5,8.5,6.4,14.2c-2.2,5.7-8.5,8.5-14.2,6.4c-15.9-6.1-34.8,4.6-42.1,23.8C458.8,486.2,454.6,488.9,450.2,488.9z" style="fill:url(#CerosGradient_ide898b4035);"/>
			<path class="st0-613b80ae26c60" d="M628.3,310.3c-4.1,0-8.1-2.3-10-6.3c-3.4-7.2-9.9-12.5-18.4-14.9c-9.1-2.6-19.2-1.6-28.4,2.7     c-5.5,2.6-12.1,0.2-14.6-5.3c-2.6-5.5-0.2-12.1,5.3-14.6c14.1-6.6,29.6-8,43.8-4c14.7,4.2,26.2,13.7,32.3,26.8     c2.6,5.5,0.2,12.1-5.3,14.6C631.5,310,629.9,310.3,628.3,310.3z" style="fill:url(#CerosGradient_ide898b4035);"/>
			<path class="st0-613b80ae26c60" d="M591.6,435.1c-5.3,0-10-3.9-10.9-9.3c-2.7-16.8-21.4-27.9-41.6-24.7c-6,1-11.6-3.1-12.6-9.1     c-1-6,3.1-11.6,9.1-12.6c32.3-5.1,62.3,14.1,66.8,42.9c1,6-3.1,11.6-9.1,12.6C592.7,435,592.1,435.1,591.6,435.1z" style="fill:url(#CerosGradient_ide898b4035);"/>
			<path class="st0-613b80ae26c60" d="M387.7,729.7c-29.7,0-54.9-20.1-57.6-47.1c-0.6-6,3.8-11.4,9.9-12c6-0.6,11.4,3.8,12,9.9     c1.7,16.9,19.7,29.1,40.1,27c6-0.6,11.4,3.8,12,9.9c0.6,6-3.8,11.4-9.9,12C392,729.6,389.8,729.7,387.7,729.7z" style="fill:url(#CerosGradient_ide898b4035);"/>
			<path class="st0-613b80ae26c60" d="M245.6,572.8c-0.6,0-1.3-0.1-1.9-0.2c-6-1.1-10-6.8-8.9-12.7c5.2-29.7,33.7-49.7,63.4-44.5     c6,1.1,10,6.8,8.9,12.7c-1.1,6-6.7,10-12.7,8.9c-17.8-3.1-34.8,8.8-37.9,26.6C255.5,569,250.8,572.8,245.6,572.8z" style="fill:url(#CerosGradient_ide898b4035);"/>
		</g>
		<g>
			<path class="st0-613b80ae26c60" d="M754.8,383.9c-6.1,0-11-4.9-11-11c0-22.8-18.5-41.3-41.3-41.3c-22.8,0-41.3,18.5-41.3,41.3     c0,6.1-4.9,11-11,11s-11-4.9-11-11c0-34.9,28.4-63.3,63.3-63.3s63.3,28.4,63.3,63.3C765.8,378.9,760.8,383.9,754.8,383.9z" style="fill:url(#CerosGradient_ide898b4035);"/>
			<path class="st0-613b80ae26c60" d="M807.9,427.6c-4.7,0-9-3-10.5-7.6c-7-21.7-30.3-33.7-52-26.8c-5.8,1.9-12-1.3-13.8-7.1     c-1.9-5.8,1.3-12,7.1-13.8c33.3-10.7,69,7.7,79.6,41c1.9,5.8-1.3,12-7.1,13.8C810.1,427.5,809,427.6,807.9,427.6z" style="fill:url(#CerosGradient_ide898b4035);"/>
			<path class="st0-613b80ae26c60" d="M833.4,567.7c-0.8,0-1.6-0.1-2.4-0.3c-5.9-1.3-9.7-7.2-8.4-13.1c3.4-15.7,0.5-31.9-8.2-45.4     c-8.7-13.6-22.1-22.9-37.9-26.3c-5.9-1.3-9.7-7.2-8.4-13.1c1.3-5.9,7.2-9.7,13.1-8.4c21.5,4.7,39.8,17.5,51.7,36     c11.9,18.5,15.8,40.5,11.1,62C843,564.2,838.4,567.7,833.4,567.7z" style="fill:url(#CerosGradient_ide898b4035);"/>
			<path class="st0-613b80ae26c60" d="M685.2,488.9c-4.4,0-8.6-2.7-10.3-7.1c-7.3-19.2-26.2-29.9-42.1-23.8c-5.7,2.2-12-0.7-14.2-6.4     c-2.2-5.7,0.7-12,6.4-14.2c27.2-10.4,58.9,6,70.5,36.6c2.2,5.7-0.7,12-6.4,14.2C687.8,488.7,686.5,488.9,685.2,488.9z" style="fill:url(#CerosGradient_ide898b4035);"/>
			<path class="st0-613b80ae26c60" d="M747.8,729.7c-2.2,0-4.4-0.1-6.6-0.3c-6-0.6-10.5-6-9.9-12c0.6-6,6-10.5,12-9.9c20.5,2,38.5-10.1,40.1-27     c0.6-6,6-10.5,12-9.9c6,0.6,10.5,6,9.9,12C802.7,709.6,777.5,729.7,747.8,729.7z" style="fill:url(#CerosGradient_ide898b4035);"/>
			<path class="st0-613b80ae26c60" d="M889.8,572.8c-5.2,0-9.9-3.8-10.8-9.1c-3.1-17.8-20.1-29.7-37.9-26.6c-6,1.1-11.7-2.9-12.7-8.9     c-1.1-6,2.9-11.7,8.9-12.7c29.7-5.2,58.2,14.7,63.4,44.5c1.1,6-2.9,11.7-8.9,12.7C891.1,572.7,890.4,572.8,889.8,572.8z" style="fill:url(#CerosGradient_ide898b4035);"/>
		</g>
	</g>
	<path class="st0-613b80ae26c60" d="M565.5,1131.1c-76.3,0-150.4-15-220.1-44.4c-67.3-28.5-127.8-69.3-179.8-121.2   C113.7,913.5,72.9,853,44.4,785.7C15,715.9,0,641.9,0,565.5s15-150.4,44.4-220.1c28.5-67.3,69.3-127.8,121.2-179.8   c51.9-51.9,112.4-92.7,179.8-121.2C415.1,15,489.2,0,565.5,0s150.4,15,220.1,44.4c67.3,28.5,127.8,69.3,179.8,121.2   c51.9,51.9,92.7,112.4,121.2,179.8c29.5,69.7,44.4,143.8,44.4,220.1s-15,150.4-44.4,220.1c-28.5,67.3-69.3,127.8-121.2,179.8   c-51.9,51.9-112.4,92.7-179.8,121.2C715.9,1116.1,641.9,1131.1,565.5,1131.1z M565.5,22C492.1,22,421,36.4,354,64.7   c-64.7,27.4-122.8,66.6-172.8,116.5c-49.9,49.9-89.1,108-116.5,172.8C36.4,421,22,492.1,22,565.5s14.4,144.6,42.7,211.6   c27.4,64.7,66.6,122.8,116.5,172.8c49.9,49.9,108,89.1,172.8,116.5c67,28.3,138.2,42.7,211.6,42.7s144.6-14.4,211.6-42.7   c64.7-27.4,122.8-66.6,172.8-116.5c49.9-49.9,89.1-108,116.5-172.8c28.3-67,42.7-138.2,42.7-211.6S1094.7,421,1066.3,354   c-27.4-64.7-66.6-122.8-116.5-172.8c-49.9-49.9-108-89.1-172.8-116.5C710.1,36.4,638.9,22,565.5,22z" style="fill:url(#CerosGradient_ide898b4035);"/>
</g>
</svg>