<svg xmlns:x="http://ns.adobe.com/Extensibility/1.0/" xmlns:i="http://ns.adobe.com/AdobeIllustrator/10.0/" xmlns:graph="http://ns.adobe.com/Graphs/1.0/" xmlns="http://www.w3.org/2000/svg" xmlns:xlink="http://www.w3.org/1999/xlink" version="1.1" x="0px" y="0px" viewBox="0 0 100 100" enable-background="new 0 0 100 100" xml:space="preserve" aria-hidden="true" width="100px" height="100px" style="fill:url(#CerosGradient_idff22dfaa3);"><defs><linearGradient class="cerosgradient" data-cerosgradient="true" id="CerosGradient_idff22dfaa3" gradientUnits="userSpaceOnUse" x1="50%" y1="100%" x2="50%" y2="0%"><stop offset="0%" stop-color="#FFFFFF"/><stop offset="100%" stop-color="#FFFFFF"/></linearGradient><linearGradient/></defs><switch><g i:extraneous="self"><path fill="#000000" d="M14.179,53.509H77.35L53.803,77.056c-1.371,1.37-1.371,3.592,0,4.962c0.685,0.685,1.583,1.028,2.481,1.028    s1.796-0.343,2.481-1.028L88.3,52.482c0.165-0.165,0.313-0.347,0.443-0.541c0.008-0.012,0.015-0.025,0.023-0.037    c0.116-0.18,0.218-0.37,0.3-0.57c0.006-0.015,0.011-0.03,0.016-0.045c0.077-0.195,0.139-0.399,0.181-0.609    c0.002-0.011,0.003-0.023,0.005-0.034c0.039-0.21,0.062-0.425,0.062-0.646s-0.023-0.436-0.062-0.646    c-0.002-0.011-0.003-0.023-0.005-0.034c-0.041-0.211-0.103-0.414-0.181-0.609c-0.006-0.015-0.01-0.03-0.016-0.045    c-0.082-0.2-0.184-0.39-0.3-0.57c-0.008-0.012-0.014-0.025-0.023-0.037c-0.13-0.195-0.278-0.377-0.443-0.541L58.764,17.982    c-1.369-1.37-3.592-1.37-4.962,0c-1.371,1.37-1.371,3.592,0,4.962L77.35,46.491H14.179c-1.938,0-3.509,1.571-3.509,3.509    S12.241,53.509,14.179,53.509z" style="fill:url(#CerosGradient_idff22dfaa3);"/></g></switch></svg>