<svg xmlns="http://www.w3.org/2000/svg" xmlns:xlink="http://www.w3.org/1999/xlink" version="1.1" x="0px" y="0px" viewBox="0 0 52.5449 52.5444" enable-background="new 0 0 52.5449 52.5444" xml:space="preserve" aria-hidden="true" width="52px" height="52px"><defs><linearGradient class="cerosgradient" data-cerosgradient="true" id="CerosGradient_idabe628cb3" gradientUnits="userSpaceOnUse" x1="50%" y1="100%" x2="50%" y2="0%"><stop offset="0%" stop-color="#d1d1d1"/><stop offset="100%" stop-color="#d1d1d1"/></linearGradient><linearGradient/></defs><path d="M15.21,5.5444c1.4961,0,2.71-1.2134,2.71-2.71s-1.2139-2.71-2.71-2.71H0v52.4199h23.5h2.71h23.5  c1.4961,0,2.71-1.2134,2.71-2.71v-15.21H47v12.5H26.21H23.5H5.4199V5.5444H15.21z"/><path d="M23.3564,33.1973L46.875,9.6787l-0.001,16.0815c0,1.5654,1.2695,2.8345,2.835,2.8345s2.835-1.269,2.835-2.8345  l0.001-25.7598L26.7832,0c-1.5654,0-2.835,1.269-2.835,2.8345s1.2695,2.8345,2.835,2.8345l16.083,0.0005l-23.5195,23.519  L23.3564,33.1973z"/></svg>